<?xml version="1.0" standalone="no"?>
<!DOCTYPE svg PUBLIC "-//W3C//DTD SVG 1.1//EN" "http://www.w3.org/Graphics/SVG/1.1/DTD/svg11.dtd" >
<svg xmlns="http://www.w3.org/2000/svg" xmlns:xlink="http://www.w3.org/1999/xlink" version="1.1">
<metadata>
Created by FontForge 20170731 at Fri Dec 22 18:04:19 2017
 By Aleksey,,,
Modern and elegant sans serif font family.
</metadata>
<defs>
<font id="Mont-Light" horiz-adv-x="0" >
  <font-face 
    font-family="Mont Light"
    font-weight="400"
    font-stretch="normal"
    units-per-em="1000"
    panose-1="0 0 5 0 0 0 0 0 0 0"
    ascent="800"
    descent="-200"
    x-height="540"
    cap-height="700"
    bbox="-800 -297 1134 975"
    underline-thickness="50"
    underline-position="-200"
    unicode-range="U+0020-25CA"
  />
<missing-glyph horiz-adv-x="461" 
d="M378 731v-922h-292v922h292zM307 670h-152v-31h60v-34h-61v-30h153v30h-61v34h61v31zM246 551h-92v-96h153v31h-61v65zM215 519v-33h-30v33h30zM307 430h-153v-31h61v-34h-61v-30h92v64h61v31zM307 374h-30v-61h-123v-31h153v92zM307 262h-92v-52h31v21h31v-43h-92v74
h-31v-105h153v105zM307 102h-153v-104h153v104zM277 72v-44h-92v44h92zM307 -23h-153v-31h65l-65 -43v-31h153v31h-94l65 43h29v31z" />
    <glyph glyph-name="f_f.liga" unicode="ff" horiz-adv-x="709" 
d="M696 538v-42h-184v-496h-49v496h-285v-496h-49v496h-114v42h114v43q0 92 40.5 132.5t133.5 40.5h58v-41h-50q-75 0 -104.5 -29.5t-29.5 -103.5v-42h286v43q0 46 9.5 78.5t31 54t54 31t79.5 9.5h58v-41h-50q-74 0 -104 -29.5t-30 -103.5v-42h185z" />
    <glyph glyph-name="f_f_t.liga" unicode="fft" horiz-adv-x="1032" 
d="M947 46h67v-46h-72q-39 0 -71 12t-54 34t-33.5 54t-11.5 72v324h-260v-496h-49v496h-285v-496h-49v496h-114v42h114v43q0 92 40.5 132.5t133.5 40.5h58v-41h-50q-75 0 -104.5 -29.5t-29.5 -103.5v-42h286v43q0 46 9.5 78.5t31 54t54 31t79.5 9.5h47v-41h-39
q-74 0 -104 -29.5t-30 -103.5v-42h261v160h49v-160h189v-42h-189v-322q0 -61 33 -94.5t93 -33.5z" />
    <glyph glyph-name="f_t.liga" unicode="ft" horiz-adv-x="720" 
d="M634 46h67v-46h-72q-52 0 -90.5 20.5t-59 59t-20.5 91.5v325h-281v-496h-49v496h-114v42h114v43q0 92 40.5 132.5t133.5 40.5h58v-41h-50q-75 0 -104.5 -29.5t-29.5 -103.5v-42h282v160h49v-160h190v-42h-190v-323q0 -61 33 -94t93 -33z" />
    <glyph glyph-name="f_t_t.liga" unicode="ftt" horiz-adv-x="1078" 
d="M990 46h68v-46h-73q-52 0 -90.5 20.5t-59 59t-20.5 91.5v325h-307v-323q0 -61 32.5 -94t93.5 -33h67v-46h-72q-80 0 -125 45.5t-45 125.5v325h-281v-496h-49v496h-114v42h114v48q0 92 40.5 132.5t133.5 40.5h58v-41h-50q-75 0 -104.5 -29.5t-29.5 -103.5v-47h282v160h49
v-160h307v160h49v-160h193v-42h-193v-323q0 -61 33 -94t93 -33z" />
    <glyph glyph-name="r_f.liga" unicode="rf" horiz-adv-x="770" 
d="M757 540v-43h-184v-497h-49v497h-113v43h113v41q0 92 40.5 132.5t133.5 40.5h58v-41h-50q-74 0 -104 -29.5t-30 -103.5v-40h185zM139 432q58 109 185 109h47v-46h-50q-81 -1 -129.5 -55t-48.5 -140v-300h-49v540h37z" />
    <glyph glyph-name="r_t.liga" unicode="rt" horiz-adv-x="771" 
d="M686 45h67v-47h-72q-79 0 -124.5 46.5t-45.5 126.5v325h-114v43h114v159h49v-159h189v-43h-189v-323q0 -61 33 -94.5t93 -33.5zM139 431q28 52 75 80.5t110 28.5h34v-46h-37q-81 0 -129.5 -53.5t-48.5 -140.5v-300h-49v540h37z" />
    <glyph glyph-name="s_t.liga" unicode="st" horiz-adv-x="896" 
d="M799 46h59v-46h-65q-52 0 -90.5 20.5t-59 59.5t-20.5 92v323h-90v11l130 129h9v-95h182v-45h-182v-322q0 -61 33 -94t94 -33zM259 305q27 -4 41.5 -7t39.5 -9.5t39 -13t32 -18.5t27.5 -26.5t16 -36t6.5 -47.5q0 -71 -56.5 -114.5t-150.5 -43.5q-92 0 -147.5 44t-61.5 120
h48q6 -56 49 -87t114 -31q46 0 81.5 13.5t55.5 38.5t20 59q0 24 -10 42.5t-23.5 29t-38.5 19.5t-43 12.5t-50 9.5q-21 3 -32 5t-30 6.5t-30 8t-26.5 10t-24.5 14t-19.5 17.5t-16 22t-9.5 27.5t-4 33.5q0 66 54 107t141 41q88 0 140.5 -42t56.5 -114h-47q-4 53 -43.5 82.5
t-107.5 29.5q-66 0 -106 -28t-40 -74q0 -16 4.5 -28.5t11 -21.5t19.5 -16.5t23.5 -11.5t30 -9t31.5 -7t35 -6z" />
    <glyph glyph-name="t_f.liga" unicode="tf" horiz-adv-x="694" 
d="M681 538v-42h-184v-496h-49v496h-296v-322q0 -62 33 -95t94 -33h59v-46h-65q-79 0 -124.5 46t-45.5 126v324h-91v9l131 132h9v-99h296v53q0 92 40.5 132.5t133.5 40.5h58v-41h-50q-74 0 -104 -29.5t-30 -103.5v-52h185z" />
    <glyph glyph-name=".notdef" horiz-adv-x="461" 
d="M378 731v-922h-292v922h292zM307 670h-152v-31h60v-34h-61v-30h153v30h-61v34h61v31zM246 551h-92v-96h153v31h-61v65zM215 519v-33h-30v33h30zM307 430h-153v-31h61v-34h-61v-30h92v64h61v31zM307 374h-30v-61h-123v-31h153v92zM307 262h-92v-52h31v21h31v-43h-92v74
h-31v-105h153v105zM307 102h-153v-104h153v104zM277 72v-44h-92v44h92zM307 -23h-153v-31h65l-65 -43v-31h153v31h-94l65 43h29v31z" />
    <glyph glyph-name=".null" 
 />
    <glyph glyph-name="nonmarkingreturn" horiz-adv-x="333" 
 />
    <glyph glyph-name="space" unicode=" " horiz-adv-x="275" 
 />
    <glyph glyph-name="exclam" unicode="!" horiz-adv-x="257" 
d="M104 177v543h49v-543h-49zM97 0v77h64v-77h-64z" />
    <glyph glyph-name="quotedbl" unicode="&#x22;" horiz-adv-x="321" 
d="M74 470v232h47v-232h-47zM201 470v232h46v-232h-46z" />
    <glyph glyph-name="numbersign" unicode="#" horiz-adv-x="634" 
d="M595 451h-101l-27 -184h105v-43h-112l-34 -224h-46l33 224h-233l-35 -224h-46l35 224h-94v43h101l29 184h-107v42h114l33 207h46l-32 -207h230l31 207h46l-31 -207h95v-42zM420 267l27 184h-230l-30 -184h233z" />
    <glyph glyph-name="dollar" unicode="$" horiz-adv-x="549" 
d="M508 185q0 -82 -56.5 -134.5t-149.5 -58.5v-88h-42v88q-102 6 -160.5 63t-58.5 149h49q0 -75 52.5 -119.5t137.5 -44.5q78 0 128 40t50 104q0 18 -3.5 33t-12 27t-17 21t-24 17t-27 13t-32 10.5t-33.5 8.5t-36 8q-29 6 -45 10t-43 12t-42 16t-34.5 22t-29.5 29.5
t-17.5 38.5t-7.5 50q0 52 24.5 92t69.5 62.5t106 26.5v83h43v-83q44 -3 80 -18.5t61 -40.5t38.5 -60.5t13.5 -78.5h-49q0 70 -46 110.5t-121 40.5q-50 0 -89 -16t-60.5 -46t-21.5 -70q0 -15 4 -28t8 -23t15 -19.5t18 -15.5t23.5 -13t25 -10t29.5 -8.5t29 -7.5t32 -7
q29 -7 45.5 -11t43.5 -12.5t42.5 -17t35 -22.5t29.5 -30.5t17.5 -40t7.5 -51.5z" />
    <glyph glyph-name="percent" unicode="%" horiz-adv-x="781" 
d="M185 410q-67 0 -109.5 42.5t-42.5 109.5q0 66 42.5 108.5t109.5 42.5q34 0 62 -11t48 -31t31.5 -48t11.5 -61q0 -67 -43 -109.5t-110 -42.5zM145 -4l425 705h53l-425 -705h-53zM185 450q32 0 57.5 14.5t39.5 40t14 57.5q0 24 -8 44.5t-22.5 35t-35.5 22.5t-45 8
q-48 0 -79 -31t-31 -79q0 -49 31 -80.5t79 -31.5zM597.5 -6q-66.5 0 -109 42t-42.5 108q0 43 19 77.5t53.5 53.5t78.5 19q67 0 109.5 -42t42.5 -108t-42.5 -108t-109 -42zM597 35q48 0 79 30.5t31 78.5t-31 78.5t-79 30.5t-78.5 -30.5t-30.5 -78.5t30.5 -78.5t78.5 -30.5z
" />
    <glyph glyph-name="ampersand" unicode="&#x26;" horiz-adv-x="609" 
d="M604 0h-57q-42 44 -76 80q-82 -90 -217 -90q-93 0 -150 49t-57 129q0 30 9 57t22.5 47.5t35 41t41.5 35t47 31.5q-50 65 -70.5 108.5t-20.5 82.5q0 64 46 101.5t119 37.5q72 0 117 -37t45 -95q0 -30 -10.5 -56.5t-24.5 -45.5t-40.5 -40.5t-45 -33.5t-51.5 -32
q67 -82 199 -223q40 65 40 153h43q0 -108 -51 -187q47 -51 107 -113zM276 671q-54 0 -87 -27.5t-33 -72.5q0 -59 84 -168q25 15 39.5 24t35 24t32.5 27.5t24 28.5t17 33.5t5 37.5q0 40 -32.5 66.5t-84.5 26.5zM258 34q113 0 182 79q-143 152 -211 234q-65 -41 -100 -81
t-35 -97q0 -60 45 -97.5t119 -37.5z" />
    <glyph glyph-name="quotesingle" unicode="'" horiz-adv-x="195" 
d="M74 470v232h47v-232h-47z" />
    <glyph glyph-name="parenleft" unicode="(" horiz-adv-x="273" 
d="M195 -124q-141 202 -141 460q0 256 140 460h55q-67 -94 -107 -213t-40 -247.5t39.5 -247.5t108.5 -212h-55z" />
    <glyph glyph-name="parenright" unicode=")" horiz-adv-x="273" 
d="M78 -124h-55q69 93 108.5 212t39.5 248q0 86 -19 170.5t-51.5 156.5t-76.5 133h55q140 -204 140 -460q0 -258 -141 -460z" />
    <glyph glyph-name="asterisk" unicode="*" horiz-adv-x="382" 
d="M335 590l-113 -37l73 -99l-30 -25l-74 101l-75 -101l-31 25l75 99l-113 37l13 36l111 -37v118h40v-118l111 37z" />
    <glyph glyph-name="plus" unicode="+" horiz-adv-x="516" 
d="M483 370v-45h-201v-208h-48v208h-201v45h201v203h48v-203h201z" />
    <glyph glyph-name="comma" unicode="," horiz-adv-x="210" 
d="M71 -116v33q22 11 30.5 30t8.5 53h-42v76h72v-71q0 -50 -16.5 -78t-52.5 -43z" />
    <glyph glyph-name="hyphen" unicode="-" horiz-adv-x="459" 
d="M73 255v47h313v-47h-313z" />
    <glyph glyph-name="period" unicode="." horiz-adv-x="200" 
d="M68 0v77h64v-77h-64z" />
    <glyph glyph-name="slash" unicode="/" horiz-adv-x="397" 
d="M30 -61l285 822h51l-285 -822h-51z" />
    <glyph glyph-name="zero" unicode="0" horiz-adv-x="616" 
d="M308 -11q-115 0 -182 92.5t-67 251.5q0 158 67 250.5t182 92.5t182 -92.5t67 -250.5q0 -159 -67 -251.5t-182 -92.5zM308 35q93 0 147 79.5t54 218t-54 218t-147 79.5t-147 -79.5t-54 -217.5q0 -92 24 -159.5t69.5 -103t107.5 -35.5z" />
    <glyph glyph-name="one" unicode="1" horiz-adv-x="316" 
d="M24 665h189v-665h-47v621h-142v44z" />
    <glyph glyph-name="two" unicode="2" horiz-adv-x="512" 
d="M129 46h345v-46h-436v20q162 164 236 249t96.5 130t22.5 95q0 61 -39 98.5t-104 37.5t-106 -38t-41 -98v-18h-48v18q0 54 25 95.5t69.5 64t100.5 22.5q85 0 138 -50.5t53 -131.5q0 -53 -20.5 -99t-87 -126.5t-204.5 -222.5z" />
    <glyph glyph-name="three" unicode="3" horiz-adv-x="521" 
d="M258 409q92 -2 152 -61.5t60 -146.5q0 -61 -28.5 -109.5t-77.5 -75.5t-109 -27q-88 0 -147 55t-65 142h47q6 -68 51.5 -109.5t113.5 -41.5q72 0 119.5 47.5t47.5 120.5q0 71 -50.5 118.5t-126.5 47.5h-61v13l186 239h-302v45h377v-15l-189 -242h2z" />
    <glyph glyph-name="four" unicode="4" horiz-adv-x="528" 
d="M497 191v-43h-80v-148h-46v148h-353v15l243 505h50l-230 -477h290v233h46v-233h80z" />
    <glyph glyph-name="five" unicode="5" horiz-adv-x="516" 
d="M248 411q97 0 160 -60.5t63 -149.5q0 -91 -61.5 -151.5t-151.5 -60.5q-89 0 -149 55.5t-65 141.5h47q5 -67 51.5 -109t115.5 -42q71 0 118 47.5t47 118.5t-50.5 119t-125.5 48h-160l-9 10l31 288h318v-45h-278l-23 -210h122z" />
    <glyph glyph-name="six" unicode="6" horiz-adv-x="543" 
d="M287 420q93 0 158 -60.5t65 -152.5q0 -95 -65 -156.5t-164 -61.5q-100 0 -165 61.5t-65 156.5t74 227l134 239h52q-144 -258 -162 -300q59 47 138 47zM280.5 35q78.5 0 130 49t51.5 123q0 49 -23.5 88t-65 61t-92.5 22q-79 0 -130.5 -48.5t-51.5 -122.5t51.5 -123
t130 -49z" />
    <glyph glyph-name="seven" unicode="7" horiz-adv-x="484" 
d="M25 666h434v-12l-266 -654h-52l255 621h-371v45z" />
    <glyph glyph-name="eight" unicode="8" horiz-adv-x="566" 
d="M389 358q56 -20 88.5 -66.5t32.5 -107.5q0 -86 -63.5 -140.5t-163.5 -54.5q-102 0 -164.5 54t-62.5 141q0 61 32.5 107.5t89.5 66.5q-44 20 -69.5 60t-25.5 90q0 75 55.5 121.5t144 46.5t143.5 -46.5t55 -121.5q0 -50 -25 -90.5t-67 -59.5zM130 508q0 -59 43 -94.5
t110 -35.5q66 0 108.5 35.5t42.5 94.5q0 56 -41.5 91t-109.5 35q-69 0 -111 -35t-42 -91zM283 32q80 0 129.5 42t49.5 109q0 70 -50 111.5t-129 41.5t-129 -41.5t-50 -111.5q0 -67 49.5 -109t129.5 -42z" />
    <glyph glyph-name="nine" unicode="9" horiz-adv-x="542" 
d="M261.5 676q99.5 0 164 -61.5t64.5 -156.5q0 -99 -72 -227l-134 -236h-53q144 255 162 296q-58 -46 -137 -46q-95 0 -159 61t-64 152q0 95 64.5 156.5t164 61.5zM81 458q0 -74 51.5 -122.5t129.5 -48.5q51 0 92.5 22t64.5 61t23 88q0 74 -51 123t-129 49t-129.5 -49
t-51.5 -123z" />
    <glyph glyph-name="colon" unicode=":" horiz-adv-x="212" 
d="M74 387v76h64v-76h-64zM74 0v77h64v-77h-64z" />
    <glyph glyph-name="semicolon" unicode=";" horiz-adv-x="228" 
d="M79 387v77h65v-77h-65zM81 -116v33q21 11 30 30t9 53h-42v76h72v-71q0 -50 -16.5 -78t-52.5 -43z" />
    <glyph glyph-name="less" unicode="&#x3c;" horiz-adv-x="528" 
d="M459 617v-56l-354 -220l354 -216v-55l-430 264v12z" />
    <glyph glyph-name="equal" unicode="=" horiz-adv-x="630" 
d="M75 433v46h480v-46h-480zM75 213v46h480v-46h-480z" />
    <glyph glyph-name="greater" unicode="&#x3e;" horiz-adv-x="528" 
d="M70 617l430 -271v-12l-430 -264v55l353 216l-353 220v56z" />
    <glyph glyph-name="question" unicode="?" horiz-adv-x="499" 
d="M207 177v22q0 32 8 58.5t25.5 49t29.5 34.5t37 34q24 20 36.5 32t29 33t23.5 45.5t7 55.5q0 69 -44.5 111t-117.5 42q-44 0 -80 -17t-58.5 -49t-25.5 -74h-47q6 85 65.5 135.5t145.5 50.5q61 0 108.5 -24t74.5 -69.5t27 -105.5q0 -30 -6.5 -56t-15 -43.5t-25.5 -37
t-28 -30t-31 -27.5q-23 -20 -34 -31t-26.5 -30t-22 -40t-6.5 -47v-22h-49zM200 0v77h64v-77h-64z" />
    <glyph glyph-name="at" unicode="@" horiz-adv-x="1021" 
d="M507 696q135 0 240 -54.5t162.5 -153t57.5 -226.5q0 -97 -43 -157.5t-112 -60.5q-46 0 -79.5 27.5t-44.5 71.5q-18 -35 -47 -60.5t-66.5 -39.5t-80.5 -14q-96 0 -160 65.5t-64 163t64 163t160 65.5q62 0 111.5 -28t78.5 -78l7 86h29v-276q0 -47 26.5 -77.5t67.5 -30.5
q50 0 81.5 50t31.5 130q0 176 -116 285t-303 109t-302.5 -110t-115.5 -288t111.5 -286.5t292.5 -108.5q53 0 104.5 14t85.5 38v-41q-85 -51 -194 -51q-196 0 -318.5 120.5t-122.5 314.5q0 196 126.5 317t331.5 121zM497 71q79 0 131 53t52 134t-51.5 133.5t-131.5 52.5
q-79 0 -131 -53t-52 -133q0 -39 14 -74t38 -59.5t58 -39t73 -14.5z" />
    <glyph glyph-name="A" unicode="A" horiz-adv-x="686" 
d="M608 0l-81 191h-370l-81 -191h-54l294 700h46l301 -700h-55zM340 629l-164 -391h331z" />
    <glyph glyph-name="B" unicode="B" horiz-adv-x="644" 
d="M459 367q55 -18 88.5 -66.5t33.5 -109.5q0 -81 -58 -136t-149 -55h-270v700h269q82 0 135 -49.5t53 -122.5q0 -53 -28 -97t-74 -64zM377 651h-223v-260h226q55 0 92.5 38.5t37.5 91.5q0 55 -38.5 92.5t-94.5 37.5zM379 50q64 0 107.5 42t43.5 104q0 61 -43 103t-105 42
h-228v-291h225z" />
    <glyph glyph-name="C" unicode="C" horiz-adv-x="778" 
d="M410 -10q-156 0 -256.5 101t-100.5 258q0 104 45.5 186.5t127.5 128.5t184 46q117 0 204.5 -61.5t121.5 -167.5h-52q-33 85 -105 132.5t-169 47.5q-88 0 -157.5 -39.5t-109 -111t-39.5 -161t39 -160.5t109 -110.5t158 -39.5q100 0 173.5 50.5t105.5 141.5h51
q-22 -74 -69 -128.5t-114 -83.5t-147 -29z" />
    <glyph glyph-name="D" unicode="D" horiz-adv-x="727" 
d="M319 700q101 0 182.5 -45t127 -125t45.5 -179q0 -153 -100.5 -252t-254.5 -99h-215v700h215zM317 48q66 0 122.5 22.5t97 62.5t63 96.5t22.5 121.5q0 131 -86 216t-219 85h-163v-604h163z" />
    <glyph glyph-name="E" unicode="E" horiz-adv-x="545" 
d="M154 49h344v-49h-394v700h383v-48h-333v-265h307v-47h-307v-291z" />
    <glyph glyph-name="F" unicode="F" horiz-adv-x="515" 
d="M483 652h-329v-279h303v-47h-303v-326h-50v700h379v-48z" />
    <glyph glyph-name="G" unicode="G" horiz-adv-x="799" 
d="M374 334h376q-4 -152 -100.5 -248t-244.5 -96q-154 0 -253 101.5t-99 257.5t100 258t251 102q81 0 152.5 -31.5t119.5 -88.5t63 -129h-52q-23 88 -101.5 144t-180.5 56q-131 0 -215.5 -88t-84.5 -223q0 -136 83.5 -222.5t216.5 -86.5q116 0 196.5 68t94.5 178h-322v48z
" />
    <glyph glyph-name="H" unicode="H" horiz-adv-x="728" 
d="M574 700h51v-700h-51v339h-420v-339h-50v700h50v-312h420v312z" />
    <glyph glyph-name="I" unicode="I" horiz-adv-x="258" 
d="M104 0v700h50v-700h-50z" />
    <glyph glyph-name="J" unicode="J" horiz-adv-x="590" 
d="M264 -11q-99 0 -166 68t-67 170v9h50v-7q0 -82 52.5 -136t130.5 -54q77 0 129 54.5t52 135.5v471h50v-473q0 -102 -66.5 -170t-164.5 -68z" />
    <glyph glyph-name="K" unicode="K" horiz-adv-x="614" 
d="M547 0l-282 340h-111v-340h-50v700h50v-313h111l257 313h65l-277 -336l302 -364h-65z" />
    <glyph glyph-name="L" unicode="L" horiz-adv-x="507" 
d="M154 48h331v-48h-381v700h50v-652z" />
    <glyph glyph-name="M" unicode="M" horiz-adv-x="947" 
d="M897 0h-51l-105 608l-260 -581h-16l-259 580l-106 -607h-51l122 700h47l255 -578l256 578h48z" />
    <glyph glyph-name="N" unicode="N" horiz-adv-x="746" 
d="M593 700h50v-700h-43l-447 611v-611h-49v700h45l444 -608v608z" />
    <glyph glyph-name="O" unicode="O" horiz-adv-x="831" 
d="M415.5 -11q-157.5 0 -260 103t-102.5 257q0 156 102.5 259t260 103t260 -103t102.5 -259q0 -155 -102.5 -257.5t-260 -102.5zM416 39q89 0 160 40t111 111.5t40 158.5q0 89 -40 160t-111 111.5t-160 40.5q-135 0 -223.5 -89t-88.5 -223q0 -133 88.5 -221.5t223.5 -88.5z
" />
    <glyph glyph-name="P" unicode="P" horiz-adv-x="602" 
d="M344 700q96 0 160 -61.5t64 -153.5t-64 -153.5t-160 -61.5h-190v-270h-50v700h240zM342 319q75 0 125 47.5t50 118.5t-50 118.5t-125 47.5h-188v-332h188z" />
    <glyph glyph-name="Q" unicode="Q" horiz-adv-x="831" 
d="M789 -96h-63l-120 135q-85 -50 -190 -50q-158 0 -260.5 103t-102.5 257q0 156 102.5 259t260 103t260 -103t102.5 -259q0 -58 -16 -111.5t-45.5 -97t-71.5 -75.5zM416 39q86 0 156 38l-183 205h63l159 -179q27 21 48.5 47.5t36.5 58t23 67t8 73.5q0 89 -40 160
t-111 111.5t-160 40.5q-135 0 -223.5 -89t-88.5 -223q0 -133 88.5 -221.5t223.5 -88.5z" />
    <glyph glyph-name="R" unicode="R" horiz-adv-x="636" 
d="M526 0l-175 294h-197v-294h-50v700h258q94 0 155.5 -57.5t61.5 -146.5q0 -76 -48 -130.5t-126 -67.5l178 -298h-57zM154 652v-310h205q75 0 122 43.5t47 111t-47.5 111.5t-121.5 44h-205z" />
    <glyph glyph-name="S" unicode="S" horiz-adv-x="587" 
d="M300 -8q-112 0 -181 59t-69 158h52q0 -77 54.5 -122.5t143.5 -45.5q81 0 132.5 41.5t51.5 108.5q0 19 -3.5 35t-12.5 28t-17.5 21.5t-25.5 18t-28.5 13.5t-33.5 11.5t-34.5 9.5t-37.5 8q-31 7 -47.5 11t-44.5 13t-43.5 17.5t-35.5 22.5t-30 30t-17.5 39.5t-7.5 51.5
q0 86 62.5 136.5t166.5 50.5q102 0 162.5 -54t60.5 -144h-50q0 68 -48 109t-126 41q-52 0 -92.5 -17t-63 -48t-22.5 -73q0 -20 6 -37t14.5 -29t25 -22.5t29 -16.5t37 -13.5t38.5 -11t42 -9.5q32 -7 48.5 -11.5t45 -13.5t44 -17.5t35.5 -23t30.5 -31.5t18 -41t7.5 -53
q0 -91 -66 -145.5t-170 -54.5z" />
    <glyph glyph-name="T" unicode="T" horiz-adv-x="540" 
d="M519 700v-48h-224v-652h-50v652h-223v48h497z" />
    <glyph glyph-name="U" unicode="U" horiz-adv-x="721" 
d="M361 -10q-76 0 -137 34.5t-95 96t-34 138.5v441h50v-438q0 -98 60.5 -160t155.5 -62q62 0 111 28t76.5 79t27.5 115v438h51v-441q0 -117 -75.5 -193t-190.5 -76z" />
    <glyph glyph-name="V" unicode="V" horiz-adv-x="670" 
d="M588 700h55l-284 -700h-45l-291 700h56l258 -623z" />
    <glyph glyph-name="W" unicode="W" horiz-adv-x="1018" 
d="M936 700h53l-223 -700h-44l-213 571l-210 -571h-43l-229 700h54l198 -615l218 593h23l222 -593z" />
    <glyph glyph-name="X" unicode="X" horiz-adv-x="586" 
d="M575 0h-58l-224 326l-224 -326h-58l251 366l-230 334h57l204 -296l204 296h57l-229 -336z" />
    <glyph glyph-name="Y" unicode="Y" horiz-adv-x="645" 
d="M614 700l-266 -423v-277h-51v277l-264 423h56l234 -375l236 375h55z" />
    <glyph glyph-name="Z" unicode="Z" horiz-adv-x="546" 
d="M105 48h420v-48h-500v11l405 641h-390v48h470v-10z" />
    <glyph glyph-name="bracketleft" unicode="[" horiz-adv-x="327" 
d="M103 -125v914h204v-42h-158v-828h160v-44h-206z" />
    <glyph glyph-name="backslash" unicode="\" horiz-adv-x="397" 
d="M367 -61h-51l-285 822h51z" />
    <glyph glyph-name="bracketright" unicode="]" horiz-adv-x="327" 
d="M224 -125h-205v44h159v828h-157v42h203v-914z" />
    <glyph glyph-name="asciicircum" unicode="^" horiz-adv-x="516" 
d="M36 339l217 363h12l214 -363h-56l-165 284l-166 -284h-56z" />
    <glyph glyph-name="underscore" unicode="_" horiz-adv-x="516" 
d="M0 -103v47h516v-47h-516z" />
    <glyph glyph-name="grave" unicode="`" horiz-adv-x="600" 
d="M232 606h-41l-86 152h52z" />
    <glyph glyph-name="a" unicode="a" horiz-adv-x="701" 
d="M567 540h40v-540h-42l-5 117q-36 -60 -97.5 -94t-137.5 -34q-119 0 -198 80.5t-79 200.5t79 200.5t198 80.5q76 0 137.5 -34.5t97.5 -94.5zM328 37q65 0 117.5 30t82 83.5t29.5 119.5q0 101 -65 167t-164 66t-164.5 -66.5t-65.5 -166.5t65.5 -166.5t164.5 -66.5z" />
    <glyph glyph-name="b" unicode="b" horiz-adv-x="698" 
d="M374 551q120 0 198 -80t78 -201t-78 -201t-198 -80q-74 0 -135 33.5t-98 91.5l-8 -114h-39v731h49v-301q37 56 97.5 88.5t133.5 32.5zM371 37q99 0 164 66t65 167t-65 167t-164 66t-165 -66.5t-66 -166.5q0 -99 66 -166t165 -67z" />
    <glyph glyph-name="c" unicode="c" horiz-adv-x="619" 
d="M326 -11q-118 0 -198 80.5t-80 200.5q0 121 79.5 201t198.5 80q91 0 159.5 -48.5t95.5 -129.5h-49q-27 61 -81.5 95.5t-124.5 34.5q-98 0 -163 -66.5t-65 -166.5q0 -99 65.5 -166t162.5 -67q69 0 123.5 34.5t83.5 97.5h50q-29 -83 -98 -131.5t-159 -48.5z" />
    <glyph glyph-name="d" unicode="d" horiz-adv-x="697" 
d="M554 731h49v-731h-39l-7 113q-37 -58 -97.5 -91t-135.5 -33q-119 0 -197.5 80.5t-78.5 200.5q0 121 78.5 201t197.5 80q74 0 133.5 -32t96.5 -88v300zM327 37q100 0 165 66.5t65 166.5q0 101 -65 167t-165 66q-64 0 -117 -30t-82.5 -83.5t-29.5 -119.5
q0 -100 65.5 -166.5t163.5 -66.5z" />
    <glyph glyph-name="e" unicode="e" horiz-adv-x="634" 
d="M588 272q0 -7 -1 -19h-490q4 -63 33.5 -112t79.5 -76.5t111 -27.5q66 0 117.5 31.5t81.5 88.5h52q-37 -81 -102 -124.5t-149 -43.5q-117 0 -195 80.5t-78 201.5q0 119 78.5 199.5t194.5 80.5q117 0 192 -80t75 -199zM321 504q-90 0 -152 -57.5t-71 -147.5h442
q-4 45 -22.5 83.5t-47.5 65.5t-67.5 41.5t-81.5 14.5z" />
    <glyph glyph-name="f" unicode="f" horiz-adv-x="374" 
d="M361 538v-42h-183v-496h-49v496h-114v42h114v43q0 92 40.5 132.5t133.5 40.5h58v-41h-50q-75 0 -104.5 -29.5t-29.5 -103.5v-42h184z" />
    <glyph glyph-name="g" unicode="g" horiz-adv-x="676" 
d="M547 540h34v-462q0 -131 -69 -205.5t-189 -74.5q-93 0 -156.5 45t-88.5 126h49q22 -60 74 -93t122 -33q97 0 153.5 61t56.5 169v61q-23 -35 -56 -61t-75.5 -40t-89.5 -14q-112 0 -188 76t-76 190q0 112 76.5 189t187.5 77q73 0 132.5 -34t94.5 -92zM317 66q94 0 155 62
t61 156.5t-61.5 157t-154.5 62.5q-94 0 -156.5 -63t-62.5 -156.5t62.5 -156t156.5 -62.5z" />
    <glyph glyph-name="h" unicode="h" horiz-adv-x="641" 
d="M346 551q64 0 111.5 -28t73 -80t25.5 -122v-321h-49v311q0 92 -45.5 143.5t-126.5 51.5q-79 0 -135.5 -58.5t-56.5 -139.5v-308h-49v731h49v-295q31 53 84.5 84t118.5 31z" />
    <glyph glyph-name="i" unicode="i" horiz-adv-x="237" 
d="M88 652v69h61v-69h-61zM94 0v540h49v-540h-49z" />
    <glyph glyph-name="j" unicode="j" horiz-adv-x="249" 
d="M100 652v69h62v-69h-62zM-41 -191v45h23q39 0 67 14.5t42.5 42.5t14.5 67v562h49v-565q0 -76 -45.5 -121t-121.5 -45h-29z" />
    <glyph glyph-name="k" unicode="k" horiz-adv-x="524" 
d="M457 0l-215 259h-94v-259h-49v731h49v-426h95l196 235h60l-215 -258l235 -282h-62z" />
    <glyph glyph-name="l" unicode="l" horiz-adv-x="237" 
d="M94 0v731h49v-731h-49z" />
    <glyph glyph-name="m" unicode="m" horiz-adv-x="954" 
d="M685 551q54 0 96 -26.5t65 -73.5t23 -109v-342h-49v329q0 81 -39 129t-105 48q-74 0 -122 -55t-48 -141v-310h-48v329q0 82 -39 129.5t-106 47.5q-48 0 -87 -25t-61 -69.5t-22 -101.5v-310h-49v540h37l9 -96q18 34 46 57.5t63 36.5t74 13q61 0 106 -33.5t64 -91.5
q26 58 77 91.5t115 33.5z" />
    <glyph glyph-name="n" unicode="n" horiz-adv-x="641" 
d="M346 551q96 0 153 -63.5t57 -166.5v-321h-49v311q0 92 -45.5 143.5t-126.5 51.5q-79 0 -135.5 -58.5t-56.5 -139.5v-308h-49v540h37l9 -109q30 55 85 87.5t121 32.5z" />
    <glyph glyph-name="o" unicode="o" horiz-adv-x="661" 
d="M331 -11q-121 0 -202 80t-81 201t80.5 201t202 80t202 -80t80.5 -201t-80.5 -201t-201.5 -80zM331 37q66 0 119 30t83 83.5t30 119.5q0 101 -66 167t-166 66q-67 0 -120 -30t-83 -83.5t-30 -119.5q0 -100 66 -166.5t167 -66.5z" />
    <glyph glyph-name="p" unicode="p" horiz-adv-x="698" 
d="M375 551q119 0 197 -80t78 -201t-78 -201t-197 -80q-74 0 -134.5 33t-97.5 91v-304h-49v731h36l10 -118q37 60 98.5 94.5t136.5 34.5zM371 37q100 0 165 66t65 167t-65 167t-165 66q-98 0 -164 -66.5t-66 -166.5t66 -166.5t164 -66.5z" />
    <glyph glyph-name="q" unicode="q" horiz-adv-x="698" 
d="M568 540h36v-731h-49v303q-24 -38 -59 -65.5t-79 -42.5t-93 -15q-119 0 -197.5 80.5t-78.5 200.5t78.5 200.5t197.5 80.5q75 0 136 -34t97 -93zM327 37q99 0 164.5 66t65.5 167t-65.5 167t-164.5 66t-164.5 -66.5t-65.5 -166.5t66 -166.5t164 -66.5z" />
    <glyph glyph-name="r" unicode="r" horiz-adv-x="382" 
d="M324 542h47v-47h-50q-81 0 -129.5 -54t-48.5 -140v-301h-49v540h37l8 -107q58 109 185 109z" />
    <glyph glyph-name="s" unicode="s" horiz-adv-x="508" 
d="M254 -11q-92 0 -147.5 44t-61.5 120h48q6 -56 49 -87t113.5 -31t114 30t43.5 81q0 24 -10 42.5t-23.5 29t-38.5 19.5t-43 12.5t-50 9.5q-27 4 -41 7t-37.5 9t-37 12.5t-30 17.5t-25.5 24t-15 32t-6 42q0 66 54 107t141 41q58 0 102 -19t68 -54t27 -83h-47q-2 26 -13 47
t-30 35t-46.5 22t-61.5 8q-66 0 -106 -28t-40 -74q0 -16 4.5 -28.5t11 -21.5t19.5 -16.5t23.5 -11.5t30 -9t31.5 -7t35 -6q27 -4 41.5 -7t39.5 -9.5t39 -13t32 -18.5t27.5 -26.5t16 -36t6.5 -47.5q0 -71 -56.5 -114.5t-150.5 -43.5z" />
    <glyph glyph-name="t" unicode="t" horiz-adv-x="383" 
d="M296 46h59v-46h-65q-79 0 -124.5 46t-45.5 126v323h-90v11l130 129h9v-95h182v-45h-182v-322q0 -61 33 -94t94 -33z" />
    <glyph glyph-name="u" unicode="u" horiz-adv-x="631" 
d="M315 -11q-105 0 -168 64.5t-63 173.5v313h49v-306q0 -91 49 -144t133.5 -53t133.5 53t49 144v306h49v-313q0 -109 -63 -173.5t-169 -64.5z" />
    <glyph glyph-name="v" unicode="v" horiz-adv-x="567" 
d="M492 540h51l-237 -540h-43l-241 540h51l212 -474z" />
    <glyph glyph-name="w" unicode="w" horiz-adv-x="848" 
d="M775 540h50l-189 -540h-39l-174 431l-173 -431h-39l-185 540h51l156 -456l180 441h19l182 -443z" />
    <glyph glyph-name="x" unicode="x" horiz-adv-x="495" 
d="M485 0h-56l-182 250l-181 -250h-55l207 282l-188 258h56l162 -223l163 223h55l-189 -256z" />
    <glyph glyph-name="y" unicode="y" horiz-adv-x="577" 
d="M503 540h53l-270 -579q-40 -87 -82 -119.5t-111 -32.5h-45v44h41q56 0 87.5 24t64.5 96l29 59l-248 508h53l221 -453z" />
    <glyph glyph-name="z" unicode="z" horiz-adv-x="464" 
d="M104 46h331v-46h-409v10l326 484h-309v46h387v-11z" />
    <glyph glyph-name="braceleft" unicode="{" horiz-adv-x="338" 
d="M238 -76h81v-44h-96q-48 0 -81.5 33t-33.5 82v252q0 27 -19 46t-47 19h-9v42h9q19 0 34 8.5t23.5 23.5t8.5 34v249q0 48 33.5 81t81.5 33h94v-44h-79q-35 0 -58 -23t-23 -58v-236q0 -30 -16 -54.5t-41 -34.5q25 -10 41 -34t16 -54v-240q0 -35 23 -58t58 -23z" />
    <glyph glyph-name="bar" unicode="|" horiz-adv-x="254" 
d="M104 -190v1030h46v-1030h-46z" />
    <glyph glyph-name="braceright" unicode="}" horiz-adv-x="338" 
d="M295 354h9v-42h-9q-18 0 -33 -8.5t-24 -23.5t-9 -33v-252q0 -49 -33 -82t-81 -33h-97v44h82q35 0 58 23t23 58v240q0 30 16 54t41 34q-25 10 -41 34.5t-16 54.5v236q0 35 -23 58t-58 23h-80v44h95q48 0 81 -33t33 -81v-249q0 -28 19.5 -47t46.5 -19z" />
    <glyph glyph-name="asciitilde" unicode="~" horiz-adv-x="570" 
d="M389 243q-21 0 -39 6.5t-36 20t-41 37.5q-29 32 -47 43.5t-38 11.5q-34 0 -55 -28t-21 -73v-14h-37v16q0 64 30.5 103.5t81.5 39.5q33 0 59.5 -15t59.5 -54q27 -29 44.5 -40t37.5 -11q33 0 53 26.5t20 71.5v14h37v-15q0 -64 -29.5 -102t-79.5 -38z" />
    <glyph glyph-name="uni00A0" unicode="&#xa0;" horiz-adv-x="275" 
 />
    <glyph glyph-name="exclamdown" unicode="&#xa1;" horiz-adv-x="222" 
d="M143 540v-77h-65v77h65zM136 363v-543h-50v543h50z" />
    <glyph glyph-name="cent" unicode="&#xa2;" horiz-adv-x="596" 
d="M314 36q66 0 118 33.5t79 92.5l48 -1q-17 -49 -49.5 -86t-77.5 -59t-97 -26v-86h-41v86q-105 8 -175 84t-70 184q0 109 69.5 184.5t175.5 82.5v89h41v-89q80 -6 139.5 -52t84.5 -119h-48q-13 29 -33 52.5t-45 39.5t-55.5 24.5t-63.5 8.5q-93 0 -155 -63t-62 -158
q0 -94 62.5 -158t154.5 -64z" />
    <glyph glyph-name="sterling" unicode="&#xa3;" horiz-adv-x="587" 
d="M495 141h44v-141h-496v36l75 6v257h-67v42h67v139q0 89 57.5 146t143.5 57q85 0 141 -56t56 -139v-6h-44v3q0 65 -44.5 109t-108.5 44q-66 0 -109.5 -45.5t-43.5 -114.5v-137h208v-42h-208v-256h329v98z" />
    <glyph glyph-name="currency" unicode="&#xa4;" horiz-adv-x="592" 
d="M541 81l-29 -30l-88 89q-56 -46 -128 -46q-73 0 -129 46l-85 -88l-30 29l86 88q-45 55 -45 127q0 74 47 130l-87 88l29 29l88 -88q55 44 126 44t126 -44l88 88l29 -29l-88 -88q47 -56 47 -130q0 -71 -45 -127zM135 297q0 -67 47.5 -114t113.5 -47q44 0 80.5 21.5t58 58.5
t21.5 81q0 66 -47 113t-113 47q-43 0 -80.5 -21.5t-59 -58.5t-21.5 -80z" />
    <glyph glyph-name="yen" unicode="&#xa5;" horiz-adv-x="624" 
d="M336 298v-25h209v-34h-209v-90h209v-34h-209v-115h-49v115h-209v34h209v90h-209v34h209v25l-250 367h51l223 -326l226 326h52z" />
    <glyph glyph-name="brokenbar" unicode="&#xa6;" horiz-adv-x="254" 
d="M104 400v440h46v-440h-46zM104 -190v450h46v-450h-46z" />
    <glyph glyph-name="section" unicode="&#xa7;" horiz-adv-x="497" 
d="M353 175q66 -38 66 -110q0 -63 -46.5 -97.5t-119.5 -34.5q-82 0 -130.5 40.5t-48.5 108.5h42q0 -51 37.5 -80.5t100.5 -29.5q55 0 88.5 25t33.5 68q0 20 -8 36.5t-19 27t-33 20t-38 14.5t-45 13q-24 6 -37.5 10t-35.5 11.5t-35 15.5t-29 20.5t-25 26.5t-15 34t-6 43
q0 94 97 133q-63 36 -63 108q0 63 44 98t114 35q82 0 130.5 -40.5t48.5 -107.5h-42q0 50 -37.5 79.5t-100.5 29.5q-51 0 -82.5 -25.5t-31.5 -67.5q0 -21 7.5 -38t18 -27t31.5 -19.5t36 -14.5t43 -13q24 -6 37 -9.5t35.5 -11.5t35.5 -15.5t29 -20t24.5 -27t15 -34.5t6.5 -43
q0 -89 -93 -131zM93 340q0 -25 9.5 -44.5t21.5 -31t36.5 -22.5t40.5 -16t47 -14q24 -6 58 -18q46 14 71.5 42.5t25.5 66.5q0 18 -5.5 33.5t-12 26.5t-20.5 21t-24 16t-30.5 13t-30.5 10.5t-34 9.5q-18 6 -52 17q-24 -7 -43.5 -17.5t-32 -25t-19 -31.5t-6.5 -36z" />
    <glyph glyph-name="dieresis" unicode="&#xa8;" horiz-adv-x="600" 
d="M100 652v69h64v-69h-64zM276 652v69h65v-69h-65z" />
    <glyph glyph-name="copyright" unicode="&#xa9;" horiz-adv-x="847" 
d="M422 -10q-162 0 -266 100.5t-104 258.5t104 258.5t266 100.5q107 0 192 -45.5t132.5 -128t47.5 -185.5q0 -157 -104.5 -258t-267.5 -101zM422.5 23q147.5 0 242.5 91.5t95 234.5t-95 234.5t-242.5 91.5t-242 -91.5t-94.5 -235t94.5 -234.5t242 -91zM423 168
q-77 0 -129.5 52.5t-52.5 129.5q0 79 52 131t130 52q59 0 103.5 -31.5t62.5 -84.5h-35q-18 38 -52.5 60t-78.5 22q-63 0 -105 -42.5t-42 -106.5q0 -31 11.5 -58t30.5 -47t46.5 -31t58.5 -11q44 0 78 21.5t52 60.5h36q-19 -54 -63.5 -85.5t-102.5 -31.5z" />
    <glyph glyph-name="ordfeminine" unicode="&#xaa;" horiz-adv-x="463" 
d="M356 708h28v-338h-29l-4 73q-22 -35 -58 -55t-79 -20q-69 0 -116.5 50t-47.5 122q0 71 48 120.5t116 49.5q44 0 79.5 -20t57.5 -55zM218 401q55 0 93 40t38 99q0 58 -38 98t-93 40q-37 0 -68 -18.5t-48.5 -50t-17.5 -69.5q0 -59 38.5 -99t95.5 -40z" />
    <glyph glyph-name="guillemotleft" unicode="&#xab;" horiz-adv-x="554" 
d="M220 61l-174 201v10l174 201h58l-177 -206l177 -206h-58zM437 61l-174 201v10l174 201h59l-178 -206l178 -206h-59z" />
    <glyph glyph-name="logicalnot" unicode="&#xac;" horiz-adv-x="578" 
d="M60 383h438v-259h-49v213h-389v46z" />
    <glyph glyph-name="registered" unicode="&#xae;" horiz-adv-x="461" 
d="M231 710q75 0 127 -52t52 -127t-52 -127.5t-127 -52.5t-127.5 52.5t-52.5 127.5t52.5 127t127.5 52zM231 375q65 0 110 45.5t45 110.5q0 64 -45.5 109.5t-109.5 45.5q-65 0 -110.5 -45.5t-45.5 -109.5q0 -65 45.5 -110.5t110.5 -45.5zM306 571q0 -21 -12 -35.5t-31 -18.5
l47 -80h-26l-46 78h-42v-78h-24v192h74q17 0 30.5 -7.5t21.5 -21t8 -29.5zM196 606v-69h49q16 0 26.5 9.5t10.5 24.5t-10.5 25t-26.5 10h-49z" />
    <glyph glyph-name="macron" unicode="&#xaf;" horiz-adv-x="507" 
d="M97 667v40h313v-40h-313z" />
    <glyph glyph-name="degree" unicode="&#xb0;" horiz-adv-x="376" 
d="M187 553q-60 0 -101.5 42t-41.5 102q0 59 42 100.5t101 41.5q39 0 72.5 -18.5t53 -51.5t19.5 -72q0 -59 -42.5 -101.5t-102.5 -42.5zM187 588q46 0 78 32t32 77t-32 76.5t-78 31.5q-45 0 -76.5 -31.5t-31.5 -76.5q0 -46 31.5 -77.5t76.5 -31.5z" />
    <glyph glyph-name="plusminus" unicode="&#xb1;" horiz-adv-x="611" 
d="M282 186v200h-216v46h216v200h48v-200h215v-46h-215v-200h-48zM66 75h480v-46h-480v46z" />
    <glyph glyph-name="acute" unicode="&#xb4;" horiz-adv-x="373" 
d="M100 606l75 152h52l-86 -152h-41z" />
    <glyph glyph-name="paragraph" unicode="&#xb6;" horiz-adv-x="582" 
d="M545 700v-46h-94v-713h-45v713h-147v-713h-45v371q-82 5 -132 58t-50 135q0 86 55.5 140.5t145.5 54.5h312z" />
    <glyph glyph-name="periodcentered" unicode="&#xb7;" horiz-adv-x="212" 
d="M74 273v77h64v-77h-64z" />
    <glyph glyph-name="cedilla" unicode="&#xb8;" horiz-adv-x="388" 
d="M180 -53q44 -3 71.5 -28t27.5 -62q0 -26 -13.5 -46.5t-38 -32t-56.5 -11.5h-67v31h62q22 0 39 7.5t26.5 21.5t9.5 31q0 27 -21 43.5t-55 16.5h-18l-5 7l24 90h34z" />
    <glyph glyph-name="ordmasculine" unicode="&#xba;" horiz-adv-x="449" 
d="M225 368q-49 0 -89.5 22t-63.5 61.5t-23 87.5q0 73 50.5 122t125.5 49q49 0 89 -22t63 -61.5t23 -87.5q0 -73 -50 -122t-125 -49zM225 401q61 0 101 39t40 99t-40 99t-101 39t-101 -39t-40 -99t40 -99t101 -39z" />
    <glyph glyph-name="guillemotright" unicode="&#xbb;" horiz-adv-x="554" 
d="M117 61h-59l178 206l-178 206h59l174 -201v-10zM334 61h-58l177 206l-177 206h58l174 -201v-10z" />
    <glyph glyph-name="onequarter" unicode="&#xbc;" horiz-adv-x="633" 
d="M450 730h41l-405 -760h-41zM92 330v334h-70v36h110v-370h-40zM606 115v-36h-41v-79h-39v79h-191v12l132 279h41l-122 -255h140l6 119h33v-119h41z" />
    <glyph glyph-name="onehalf" unicode="&#xbd;" horiz-adv-x="652" 
d="M450 730h41l-405 -760h-41zM92 330v334h-70v36h110v-370h-40zM450 39h168v-39h-244v12q66 69 102 109.5t57 69.5t26.5 45t5.5 36t-9 36t-25 24.5t-37 8.5q-33 0 -53.5 -19.5t-20.5 -50.5v-9h-40v9q0 48 31.5 77.5t81.5 29.5t81 -29.5t31 -76.5q0 -42 -29.5 -87
t-125.5 -146z" />
    <glyph glyph-name="threequarters" unicode="&#xbe;" horiz-adv-x="755" 
d="M572 730h41l-404 -760h-42zM279 443q0 -53 -35 -87t-88 -34q-34 0 -61 14.5t-43 40.5t-18 58h39q3 -33 26 -54t57 -21q36 0 60 23.5t24 60.5q0 36 -25.5 59.5t-64.5 23.5h-44v10l99 126h-158v37h218v-10l-102 -129q51 -3 83.5 -36.5t32.5 -81.5zM728 115v-36h-41v-79h-39
v79h-191v12l132 279h41l-122 -255h140l6 119h33v-119h41z" />
    <glyph glyph-name="questiondown" unicode="&#xbf;" horiz-adv-x="489" 
d="M292 540v-77h-65v77h65zM284 363v-22q0 -32 -7.5 -58.5t-25 -49t-30 -34.5t-36.5 -34q-25 -20 -37.5 -32t-28.5 -33t-23.5 -45.5t-7.5 -55.5q0 -69 45 -111t117 -42q44 0 80 17t58.5 49t25.5 74h47q-3 -42 -20.5 -77.5t-45.5 -59t-65.5 -36.5t-79.5 -13q-92 0 -151 54.5
t-59 144.5q0 37 8.5 66.5t26.5 54t32 38t39 35.5q24 20 34.5 30.5t26 30t22 40.5t6.5 47v22h49z" />
    <glyph glyph-name="Agrave" unicode="&#xc0;" horiz-adv-x="686" 
d="M325 781l-95 142h53l83 -142h-41zM608 0l-81 191h-370l-81 -191h-54l294 700h46l301 -700h-55zM340 629l-164 -391h331z" />
    <glyph glyph-name="Aacute" unicode="&#xc1;" horiz-adv-x="686" 
d="M444 923l-94 -142h-41l82 142h53zM608 0l-81 191h-370l-81 -191h-54l294 700h46l301 -700h-55zM340 629l-164 -391h331z" />
    <glyph glyph-name="Acircumflex" unicode="&#xc2;" horiz-adv-x="686" 
d="M339 893l-103 -112h-45l120 142h57l120 -142h-45zM608 0l-81 191h-370l-81 -191h-54l294 700h46l301 -700h-55zM340 629l-164 -391h331z" />
    <glyph glyph-name="Atilde" unicode="&#xc3;" horiz-adv-x="686" 
d="M413 790q-27 0 -47.5 12.5t-44.5 39.5q-21 22 -35 31.5t-31 9.5q-16 0 -28.5 -9t-19.5 -26.5t-7 -41.5v-11h-33v13q0 51 24 81.5t64 30.5q26 0 45.5 -12t43.5 -39q20 -23 35 -33t33 -10q26 0 40.5 21t14.5 56v9h33v-10q0 -51 -23.5 -81.5t-63.5 -30.5zM608 0l-81 191
h-370l-81 -191h-54l294 700h46l301 -700h-55zM340 629l-164 -391h331z" />
    <glyph glyph-name="Adieresis" unicode="&#xc4;" horiz-adv-x="686" 
d="M204 809v69h64v-69h-64zM411 809v69h65v-69h-65zM608 0l-81 192h-370l-81 -192h-54l294 700h46l301 -700h-55zM340 629l-164 -391h331z" />
    <glyph glyph-name="Aring" unicode="&#xc5;" horiz-adv-x="686" 
d="M340 763q-49 0 -80 30t-31 77t30.5 76t80.5 29q32 0 57 -13t39 -37t14 -55q0 -47 -30.5 -77t-79.5 -30zM340 796q34 0 55 20.5t21 53.5t-21 53t-55 20q-35 0 -56 -20t-21 -53q0 -22 9.5 -39t27 -26t40.5 -9zM608 0l-81 191h-370l-81 -191h-54l294 700h46l301 -700h-55z
M340 629l-164 -391h331z" />
    <glyph glyph-name="AE" unicode="&#xc6;" horiz-adv-x="874" 
d="M482 49h344v-49h-395v173h-278l-105 -173h-60l427 700h400v-48h-333v-268h306v-47h-306v-288zM181 220h250v411z" />
    <glyph glyph-name="Ccedilla" unicode="&#xc7;" horiz-adv-x="778" 
d="M740 231q-33 -110 -118.5 -174.5t-202.5 -66.5l-12 -43q43 -4 70.5 -28.5t27.5 -61.5q0 -39 -32 -64.5t-81 -25.5h-64v32h63q33 0 53 16.5t20 42.5q0 25 -21 42t-53 17h-19l-5 8l17 65q-146 10 -238 110t-92 249q0 104 45.5 186.5t127.5 128.5t184 46q117 0 204.5 -61.5
t121.5 -167.5h-52q-33 85 -105 132.5t-169 47.5q-88 0 -157.5 -39.5t-109 -111t-39.5 -161t39 -160.5t109 -110.5t158 -39.5q100 0 173.5 50.5t105.5 141.5h51z" />
    <glyph glyph-name="Egrave" unicode="&#xc8;" horiz-adv-x="545" 
d="M277 781l-94 142h53l82 -142h-41zM154 49h344v-49h-394v700h383v-48h-333v-265h307v-47h-307v-291z" />
    <glyph glyph-name="Eacute" unicode="&#xc9;" horiz-adv-x="545" 
d="M397 923l-95 -142h-40l82 142h53zM154 49h344v-49h-394v700h383v-48h-333v-265h307v-47h-307v-291z" />
    <glyph glyph-name="Ecircumflex" unicode="&#xca;" horiz-adv-x="545" 
d="M292 893l-103 -112h-45l120 142h56l121 -142h-45zM154 49h344v-49h-394v700h383v-48h-333v-265h307v-47h-307v-291z" />
    <glyph glyph-name="Edieresis" unicode="&#xcb;" horiz-adv-x="545" 
d="M156 809v69h65v-69h-65zM364 809v69h64v-69h-64zM154 49h344v-49h-394v700h383v-48h-333v-265h307v-47h-307v-291z" />
    <glyph glyph-name="Igrave" unicode="&#xcc;" horiz-adv-x="258" 
d="M144 781h-41l-66 142h52zM104 0v700h50v-700h-50z" />
    <glyph glyph-name="Iacute" unicode="&#xcd;" horiz-adv-x="258" 
d="M97 782l55 142h51l-66 -142h-40zM104 0v700h50v-700h-50z" />
    <glyph glyph-name="Icircumflex" unicode="&#xce;" horiz-adv-x="258" 
d="M155 923l104 -142h-44l-86 112l-87 -112h-43l104 142h52zM104 0v700h50v-700h-50z" />
    <glyph glyph-name="Idieresis" unicode="&#xcf;" horiz-adv-x="258" 
d="M28 809v69h60v-69h-60zM170 809v69h59v-69h-59zM104 0v700h50v-700h-50z" />
    <glyph glyph-name="Eth" unicode="&#xd0;" horiz-adv-x="742" 
d="M334 700q154 0 254 -99t100 -250q0 -153 -100 -252t-254 -99h-215v329h-104v43h104v328h215zM332 48q133 0 219 85.5t86 217.5q0 131 -86 216t-219 85h-163v-280h236v-43h-236v-281h163z" />
    <glyph glyph-name="Ntilde" unicode="&#xd1;" horiz-adv-x="746" 
d="M245 806v-11h-33v13q0 51 23.5 81.5t64.5 30.5q26 0 45.5 -12t43.5 -39q20 -23 35 -33t33 -10q26 0 40.5 21t14.5 56v9h33v-10q0 -51 -23.5 -81.5t-63.5 -30.5q-27 0 -47.5 12.5t-45.5 39.5q-20 22 -34 31.5t-31 9.5q-24 0 -39.5 -21t-15.5 -56zM593 700h50v-700h-43
l-447 611v-611h-49v700h45l444 -608v608z" />
    <glyph glyph-name="Ograve" unicode="&#xd2;" horiz-adv-x="831" 
d="M400 781l-94 142h53l82 -142h-41zM415.5 -11q-157.5 0 -260 103t-102.5 257q0 156 102.5 259t260 103t260 -103t102.5 -259q0 -155 -102.5 -257.5t-260 -102.5zM416 39q89 0 160 40t111 111.5t40 158.5q0 89 -40 160t-111 111.5t-160 40.5q-135 0 -223.5 -89t-88.5 -223
q0 -133 88.5 -221.5t223.5 -88.5z" />
    <glyph glyph-name="Oacute" unicode="&#xd3;" horiz-adv-x="831" 
d="M385 781l82 142h53l-95 -142h-40zM415.5 -11q-157.5 0 -260 103t-102.5 257q0 156 102.5 259t260 103t260 -103t102.5 -259q0 -155 -102.5 -257.5t-260 -102.5zM416 39q89 0 160 40t111 111.5t40 158.5q0 89 -40 160t-111 111.5t-160 40.5q-135 0 -223.5 -89t-88.5 -223
q0 -133 88.5 -221.5t223.5 -88.5z" />
    <glyph glyph-name="Ocircumflex" unicode="&#xd4;" horiz-adv-x="831" 
d="M564 781h-45l-104 112l-103 -112h-45l120 142h56zM415.5 -11q-157.5 0 -260 103t-102.5 257q0 156 102.5 259t260.5 103q77 0 145 -27.5t115.5 -75.5t74.5 -115t27 -144q0 -155 -102.5 -257.5t-260 -102.5zM416 39q89 0 160 40t111 111.5t40 158.5q0 89 -40 160
t-111 111.5t-160 40.5q-135 0 -223.5 -89t-88.5 -223q0 -133 88.5 -221.5t223.5 -88.5z" />
    <glyph glyph-name="Otilde" unicode="&#xd5;" horiz-adv-x="831" 
d="M489 790q-19 0 -35 6.5t-29 17t-29 28.5q-20 22 -34 32t-31 10q-24 0 -39.5 -21.5t-15.5 -56.5v-11h-33v13q0 51 23.5 81.5t64.5 30.5q26 0 45.5 -12t43.5 -39q20 -23 35 -33t33 -10q25 0 40 21t15 56v9h33v-10q0 -51 -23.5 -81.5t-63.5 -30.5zM415.5 -11
q-157.5 0 -260 103t-102.5 257q0 156 102.5 259t260 103t260 -103t102.5 -259q0 -155 -102.5 -257.5t-260 -102.5zM416 39q89 0 160 40t111 111.5t40 158.5q0 89 -40 160t-111 111.5t-160 40.5q-135 0 -223.5 -89t-88.5 -223q0 -133 88.5 -221.5t223.5 -88.5z" />
    <glyph glyph-name="Odieresis" unicode="&#xd6;" horiz-adv-x="831" 
d="M279 809v69h65v-69h-65zM487 809v69h64v-69h-64zM415.5 -11q-157.5 0 -260 103t-102.5 257q0 156 102.5 259t260 103t260 -103t102.5 -259q0 -155 -102.5 -257.5t-260 -102.5zM416 39q89 0 160 40t111 111.5t40 158.5q0 89 -40 160t-111 111.5t-160 40.5
q-135 0 -223.5 -89t-88.5 -223q0 -133 88.5 -221.5t223.5 -88.5z" />
    <glyph glyph-name="multiply" unicode="&#xd7;" horiz-adv-x="501" 
d="M443 508l-160 -163l160 -163l-33 -32l-159 162l-160 -162l-33 32l160 163l-160 163l33 32l160 -162l159 162z" />
    <glyph glyph-name="Oslash" unicode="&#xd8;" horiz-adv-x="834" 
d="M629 645q71 -48 112 -125.5t41 -171.5q0 -153 -103 -254.5t-258 -101.5q-88 0 -163 36l-54 -90h-55l67 111q-76 47 -120 126t-44 175q0 153 104 255.5t259 102.5q94 0 172 -41l58 95h55zM104 350q0 -82 37 -150t101 -109l321 534q-68 34 -148 34q-133 0 -222 -88.5
t-89 -220.5zM420 42q133 0 221.5 87.5t88.5 218.5q0 80 -34 146t-93 108l-319 -532q64 -28 136 -28z" />
    <glyph glyph-name="Ugrave" unicode="&#xd9;" horiz-adv-x="721" 
d="M346 781l-95 142h53l82 -142h-40zM361 -10q-76 0 -137 34.5t-95 96t-34 138.5v441h50v-438q0 -98 60.5 -160t155.5 -62q62 0 111 28t76.5 79t27.5 115v438h51v-441q0 -117 -75.5 -193t-190.5 -76z" />
    <glyph glyph-name="Uacute" unicode="&#xda;" horiz-adv-x="721" 
d="M330 781l82 142h53l-94 -142h-41zM361 -10q-76 0 -137 34.5t-95 96t-34 138.5v441h50v-438q0 -98 60.5 -160t155.5 -62q62 0 111 28t76.5 79t27.5 115v438h51v-441q0 -117 -75.5 -193t-190.5 -76z" />
    <glyph glyph-name="Ucircumflex" unicode="&#xdb;" horiz-adv-x="721" 
d="M509 781h-45l-104 112l-103 -112h-45l120 142h57zM361 -10q-76 0 -137 34.5t-95 96t-34 138.5v441h50v-438q0 -98 60.5 -160t155.5 -62q62 0 111 28t76.5 79t27.5 115v438h51v-441q0 -117 -75.5 -193t-190.5 -76z" />
    <glyph glyph-name="Udieresis" unicode="&#xdc;" horiz-adv-x="721" 
d="M225 809v69h64v-69h-64zM432 809v69h65v-69h-65zM361 -10q-116 0 -191 76t-75 193v441h50v-438q0 -98 60.5 -160t155.5 -62q94 0 154.5 62t60.5 160v438h51v-441q0 -117 -75.5 -193t-190.5 -76z" />
    <glyph glyph-name="Yacute" unicode="&#xdd;" horiz-adv-x="645" 
d="M428 923l-94 -142h-41l82 142h53zM615 700l-267 -423v-277h-51v277l-264 423h56l234 -375l236 375h56z" />
    <glyph glyph-name="Thorn" unicode="&#xde;" horiz-adv-x="615" 
d="M344 566q97 0 160.5 -61t63.5 -155t-63 -155t-161 -61h-190v-134h-50v700h50v-134h190zM342 182q76 0 125.5 47.5t49.5 120.5t-49.5 120.5t-125.5 47.5h-188v-336h188z" />
    <glyph glyph-name="germandbls" unicode="&#xdf;" horiz-adv-x="603" 
d="M436 385q35 -11 62 -36.5t41.5 -62.5t14.5 -81q0 -92 -67 -148.5t-176 -56.5h-65v48h65q88 0 141.5 44t53.5 117q0 65 -42.5 107.5t-107.5 42.5h-100v47h95q53 0 91 41.5t38 100.5q0 65 -45.5 107.5t-115.5 42.5q-84 0 -130 -53t-46 -152v-493h-49v493q0 120 59 186.5
t166 66.5q89 0 147.5 -56t58.5 -140q0 -54 -25 -99t-64 -66z" />
    <glyph glyph-name="agrave" unicode="&#xe0;" horiz-adv-x="701" 
d="M362 606h-41l-86 152h52zM567 540h40v-540h-42l-5 117q-36 -60 -97.5 -94t-137.5 -34q-119 0 -198 80.5t-79 200.5t79 200.5t198 80.5q76 0 137.5 -34.5t97.5 -94.5zM328 37q65 0 117.5 30t82 83.5t29.5 119.5q0 101 -65 167t-164 66q-65 0 -117.5 -30.5t-82.5 -84
t-30 -118.5q0 -100 65.5 -166.5t164.5 -66.5z" />
    <glyph glyph-name="aacute" unicode="&#xe1;" horiz-adv-x="701" 
d="M424 758l-87 -152h-41l75 152h53zM567 540h40v-540h-42l-5 117q-36 -60 -97.5 -94t-137.5 -34q-119 0 -198 80.5t-79 200.5t79 200.5t198 80.5q76 0 137.5 -34.5t97.5 -94.5zM328 37q65 0 117.5 30t82 83.5t29.5 119.5q0 101 -65 167t-164 66q-65 0 -117.5 -30.5
t-82.5 -84t-30 -118.5q0 -100 65.5 -166.5t164.5 -66.5z" />
    <glyph glyph-name="acircumflex" unicode="&#xe2;" horiz-adv-x="701" 
d="M334 726l-103 -120h-45l120 152h56l122 -152h-46zM567 540h40v-540h-42l-5 117q-36 -60 -97.5 -94t-137.5 -34q-119 0 -198 80.5t-79 200.5t79 200.5t198 80.5q76 0 137.5 -34.5t97.5 -94.5zM328 37q65 0 117.5 30t82 83.5t29.5 119.5q0 101 -65 167t-164 66
q-65 0 -117.5 -30.5t-82.5 -84t-30 -118.5q0 -100 65.5 -166.5t164.5 -66.5z" />
    <glyph glyph-name="atilde" unicode="&#xe3;" horiz-adv-x="701" 
d="M197 634v-11h-32v12q0 33 10.5 58t30 39t46 14t46 -12t42.5 -40q20 -22 34.5 -31.5t32.5 -9.5q17 0 29 9t19 26.5t7 40.5v9h32v-10q0 -50 -23.5 -80.5t-62.5 -30.5q-27 0 -47 12t-44 39q-14 15 -23.5 23.5t-20 13.5t-21.5 5q-24 0 -39.5 -21t-15.5 -55zM567 540h40v-540
h-42l-5 117q-24 -39 -59 -67.5t-80 -44.5t-96 -16q-119 0 -198 80.5t-79 200.5t79 200.5t198 80.5q76 0 137.5 -34.5t97.5 -94.5zM328 37q65 0 117.5 30t82 83.5t29.5 119.5q0 101 -65 167t-164 66q-65 0 -117.5 -30.5t-82.5 -84t-30 -118.5q0 -100 65.5 -166.5t164.5 -66.5
z" />
    <glyph glyph-name="adieresis" unicode="&#xe4;" horiz-adv-x="701" 
d="M278 721v-69h-65v69h65zM454 721v-69h-64v69h64zM567 540h40v-540h-42l-5 117q-36 -60 -97.5 -94t-137.5 -34q-119 0 -198 80.5t-79 200.5t79 200.5t198 80.5q76 0 137.5 -34.5t97.5 -94.5zM328 37q65 0 117.5 30t82 83.5t29.5 119.5q0 101 -65 167t-164 66
q-65 0 -117.5 -30.5t-82.5 -84t-30 -118.5q0 -100 65.5 -166.5t164.5 -66.5z" />
    <glyph glyph-name="aring" unicode="&#xe5;" horiz-adv-x="701" 
d="M334 593q-46 0 -75 28t-29 72t29 71.5t75 27.5t75 -27.5t29 -71.5t-29 -72t-75 -28zM334 762q-21 0 -37.5 -8.5t-25.5 -24.5t-9 -36q0 -31 20 -50.5t52 -19.5t52 19.5t20 50.5q0 20 -9 36t-25.5 24.5t-37.5 8.5zM567 540h40v-540h-42l-5 117q-36 -60 -97.5 -94
t-137.5 -34q-119 0 -198 80.5t-79 200.5t79 200.5t198 80.5q76 0 137.5 -34.5t97.5 -94.5zM328 37q65 0 117.5 30t82 83.5t29.5 119.5q0 101 -65 167t-164 66q-65 0 -117.5 -30.5t-82.5 -84t-30 -118.5q0 -100 65.5 -166.5t164.5 -66.5z" />
    <glyph glyph-name="ae" unicode="&#xe6;" horiz-adv-x="1138" 
d="M1092 272q0 -6 -1 -20h-490q3 -62 33 -111t79.5 -76t111.5 -27q65 0 117 31t82 88h52q-37 -81 -102 -124.5t-149 -43.5q-73 0 -132.5 35t-94.5 95l-4 -120h-37l-3 112q-36 -57 -95.5 -89t-131.5 -32q-119 0 -199 80t-80 200t79.5 200t199.5 80q73 0 132 -32t95 -89l3 112
h38l3 -120q23 39 57 68t77.5 45t92.5 16q115 0 191 -79.5t76 -198.5zM825 504q-91 0 -153 -58t-71 -148h443q-4 60 -34 107t-78.5 73t-106.5 26zM327 37q64 0 116.5 30.5t82 84t29.5 118.5q0 101 -64.5 167t-163.5 66t-164 -66.5t-65 -166.5q0 -66 29.5 -119.5t82 -83.5
t117.5 -30z" />
    <glyph glyph-name="ccedilla" unicode="&#xe7;" horiz-adv-x="619" 
d="M583 169q-28 -80 -93.5 -128.5t-151.5 -51.5l-13 -42q44 -3 71.5 -28t27.5 -62q0 -26 -13.5 -46.5t-38 -32t-55.5 -11.5h-68v31h63q21 0 38.5 7.5t26.5 21.5t9 31q0 27 -21 43.5t-54 16.5h-18l-6 7l17 65q-110 8 -183 87t-73 193q0 121 79.5 201t198.5 80
q91 0 159.5 -48.5t95.5 -129.5h-49q-18 41 -48.5 70t-71 44.5t-86.5 15.5q-98 0 -163 -66.5t-65 -166.5q0 -99 65.5 -166t162.5 -67q69 0 123.5 34.5t83.5 97.5h50z" />
    <glyph glyph-name="egrave" unicode="&#xe8;" horiz-adv-x="634" 
d="M346 606h-41l-86 152h52zM588 272q0 -7 -1 -19h-490q4 -63 33.5 -112t79.5 -76.5t111 -27.5q66 0 117.5 31.5t81.5 88.5h52q-37 -81 -102 -124.5t-149 -43.5q-116 0 -194.5 80.5t-78.5 201.5q0 119 78.5 199.5t194.5 80.5q117 0 192 -80t75 -199zM321 504
q-90 0 -152 -57.5t-71 -147.5h442q-4 45 -22.5 83.5t-47.5 65.5t-67.5 41.5t-81.5 14.5z" />
    <glyph glyph-name="eacute" unicode="&#xe9;" horiz-adv-x="634" 
d="M408 758l-87 -152h-41l75 152h53zM588 272q0 -7 -1 -19h-490q4 -63 33.5 -112t79.5 -76.5t111 -27.5q66 0 117.5 31.5t81.5 88.5h52q-37 -81 -102 -124.5t-149 -43.5q-77 0 -139 36.5t-98 101t-36 144.5q0 119 78.5 199.5t194.5 80.5q117 0 192 -80t75 -199zM321 504
q-90 0 -152 -57.5t-71 -147.5h442q-4 45 -22.5 83.5t-47.5 65.5t-67.5 41.5t-81.5 14.5z" />
    <glyph glyph-name="ecircumflex" unicode="&#xea;" horiz-adv-x="634" 
d="M318 726l-103 -120h-45l120 152h56l122 -152h-46zM588 272q0 -7 -1 -19h-490q4 -63 33.5 -112t79.5 -76.5t111 -27.5q66 0 117.5 31.5t81.5 88.5h52q-37 -81 -102 -124.5t-149 -43.5q-117 0 -195 80.5t-78 201.5q0 119 78.5 199.5t194.5 80.5q117 0 192 -80t75 -199z
M321 504q-90 0 -152 -57.5t-71 -147.5h442q-3 30 -12.5 57.5t-24 50.5t-34 41t-42.5 30.5t-50 19t-56 6.5z" />
    <glyph glyph-name="edieresis" unicode="&#xeb;" horiz-adv-x="634" 
d="M262 721v-69h-65v69h65zM438 721v-69h-64v69h64zM588 272q0 -7 -1 -19h-490q4 -63 33.5 -112t79.5 -76.5t111 -27.5q66 0 117.5 31.5t81.5 88.5h52q-37 -81 -102 -124.5t-149 -43.5q-117 0 -195 80.5t-78 201.5q0 119 78.5 199.5t194.5 80.5q117 0 192 -80t75 -199z
M321 504q-90 0 -152 -57.5t-71 -147.5h442q-4 45 -22.5 83.5t-47.5 65.5t-67.5 41.5t-81.5 14.5z" />
    <glyph glyph-name="igrave" unicode="&#xec;" horiz-adv-x="237" 
d="M140 606h-42l-65 152h52zM94 0v540h49v-540h-49z" />
    <glyph glyph-name="iacute" unicode="&#xed;" horiz-adv-x="237" 
d="M95 606l55 152h52l-66 -152h-41zM94 0v540h49v-540h-49z" />
    <glyph glyph-name="icircumflex" unicode="&#xee;" horiz-adv-x="237" 
d="M145 758l107 -152h-44l-89 120l-89 -120h-44l107 152h52zM94 0v540h49v-540h-49z" />
    <glyph glyph-name="idieresis" unicode="&#xef;" horiz-adv-x="237" 
d="M28 651v69h58v-69h-58zM151 650v70h58v-70h-58zM94 0v540h49v-540h-49z" />
    <glyph glyph-name="eth" unicode="&#xf0;" horiz-adv-x="644" 
d="M373 712q68 -41 115 -105.5t72 -150.5t26 -189q0 -121 -75.5 -199t-193.5 -78q-116 0 -192 74t-76 188q0 112 75.5 186t187.5 74q66 0 122.5 -28.5t91.5 -78.5q-17 94 -65 164.5t-122 111.5l-130 -117l-23 23l122 110q-85 38 -190 38v43q127 0 225 -49l76 68l22 -23z
M317 35q94 0 157 62.5t63 154.5q-1 94 -64 155.5t-156 61.5q-95 0 -157.5 -62t-62.5 -154.5t63 -155t157 -62.5z" />
    <glyph glyph-name="ntilde" unicode="&#xf1;" horiz-adv-x="641" 
d="M189 634v-11h-33v12q0 50 23.5 80.5t63.5 30.5q26 0 45.5 -12t43.5 -40q19 -22 34 -31.5t33 -9.5q25 0 39.5 20.5t14.5 55.5v9h33v-10q0 -50 -23.5 -80.5t-63.5 -30.5q-26 0 -46 12t-44 39q-21 23 -35 32.5t-31 9.5q-24 0 -39 -21t-15 -55zM346 551q96 0 153 -63.5
t57 -166.5v-321h-49v311q0 92 -45.5 143.5t-126.5 51.5q-79 0 -135.5 -58.5t-56.5 -139.5v-308h-49v540h37l9 -109q30 55 85 87.5t121 32.5z" />
    <glyph glyph-name="ograve" unicode="&#xf2;" horiz-adv-x="661" 
d="M358 606h-40l-87 152h53zM331 -11q-121 0 -202 80t-81 201t80.5 201t202 80t202 -80t80.5 -201t-80.5 -201t-201.5 -80zM331 37q66 0 119 30t83 83.5t30 119.5q0 101 -66 167t-166 66q-67 0 -120 -30t-83 -83.5t-30 -119.5q0 -100 66 -166.5t167 -66.5z" />
    <glyph glyph-name="oacute" unicode="&#xf3;" horiz-adv-x="661" 
d="M293 606l74 152h53l-87 -152h-40zM331 -11q-121 0 -202 80t-81 201t80.5 201t202 80t202 -80t80.5 -201t-80.5 -201t-201.5 -80zM331 37q66 0 119 30t83 83.5t30 119.5q0 101 -66 167t-166 66q-67 0 -120 -30t-83 -83.5t-30 -119.5q0 -100 66 -166.5t167 -66.5z" />
    <glyph glyph-name="ocircumflex" unicode="&#xf4;" horiz-adv-x="661" 
d="M480 606h-45l-104 120l-103 -120h-46l120 152h57zM331 -11q-121 0 -202 80t-81 201t80.5 201t202 80t202 -80t80.5 -201t-80.5 -201t-201.5 -80zM331 37q66 0 119 30t83 83.5t30 119.5q0 101 -66 167t-166.5 66t-166.5 -66t-66 -167q0 -100 66 -166.5t167 -66.5z" />
    <glyph glyph-name="otilde" unicode="&#xf5;" horiz-adv-x="661" 
d="M404 617q-26 0 -46 12t-44 39q-21 23 -35 32.5t-31 9.5q-24 0 -39.5 -21t-15.5 -55v-11h-32v12q0 33 10.5 58t30 39t46.5 14q18 0 33 -6t27.5 -17t28.5 -29q19 -22 33.5 -31.5t33.5 -9.5q16 0 28.5 9t19 26.5t6.5 40.5v9h33v-10q0 -50 -23.5 -80.5t-63.5 -30.5zM331 -11
q-121 0 -202 80t-81 201t80.5 201t202 80t202 -80t80.5 -201t-80.5 -201t-201.5 -80zM331 37q100 0 166 66t66 167t-66 167t-166 66q-67 0 -120 -30t-83 -83.5t-30 -119.5q0 -100 66 -166.5t167 -66.5z" />
    <glyph glyph-name="odieresis" unicode="&#xf6;" horiz-adv-x="661" 
d="M210 652v69h64v-69h-64zM387 652v69h64v-69h-64zM331 -11q-121 0 -202 80t-81 201t80.5 201t202 80t202 -80t80.5 -201t-80.5 -201t-201.5 -80zM331 37q66 0 119 30t83 83.5t30 119.5q0 101 -66 167t-166 66q-67 0 -120 -30t-83 -83.5t-30 -119.5q0 -100 66 -166.5
t167 -66.5z" />
    <glyph glyph-name="divide" unicode="&#xf7;" horiz-adv-x="615" 
d="M307.5 480q-14.5 0 -24 9.5t-9.5 23.5q0 7 2.5 13.5t7 10.5t10.5 7t13 3q14 0 24 -10t10 -24t-9.5 -23.5t-24 -9.5zM67 323v46h480v-46h-480zM307 143q-14 0 -23.5 10t-9.5 24t9.5 23.5t23.5 9.5t24 -9.5t10 -23.5q0 -10 -4.5 -17.5t-12 -12t-17.5 -4.5z" />
    <glyph glyph-name="oslash" unicode="&#xf8;" horiz-adv-x="657" 
d="M476 510q62 -37 97.5 -100t35.5 -140q0 -119 -79 -198t-197 -79q-69 0 -126 27l-45 -81h-45l54 98q-58 37 -91 98t-33 136q0 119 79.5 198t199.5 79q60 0 113 -22l41 75h45zM95 271q0 -62 26 -112.5t73 -81.5l223 408q-44 18 -91 18q-100 0 -165.5 -66t-65.5 -166z
M333 38q99 0 164 66t65 166q0 65 -29 117t-80 82l-224 -408q49 -23 104 -23z" />
    <glyph glyph-name="ugrave" unicode="&#xf9;" horiz-adv-x="631" 
d="M343 606h-40l-87 152h53zM315 -11q-105 0 -168 64.5t-63 173.5v313h49v-306q0 -91 49 -144t133.5 -53t133.5 53t49 144v306h49v-313q0 -109 -63 -173.5t-169 -64.5z" />
    <glyph glyph-name="uacute" unicode="&#xfa;" horiz-adv-x="631" 
d="M277 606l75 152h53l-87 -152h-41zM315 -11q-105 0 -168 64.5t-63 173.5v313h49v-306q0 -91 49 -144t133.5 -53t133.5 53t49 144v306h49v-313q0 -109 -63 -173.5t-169 -64.5z" />
    <glyph glyph-name="ucircumflex" unicode="&#xfb;" horiz-adv-x="631" 
d="M465 606h-46l-103 120l-104 -120h-45l120 152h57zM315 -11q-105 0 -168 64.5t-63 173.5v313h49v-306q0 -91 49 -144t133.5 -53t133.5 53t49 144v306h49v-313q0 -109 -63 -173.5t-169 -64.5z" />
    <glyph glyph-name="udieresis" unicode="&#xfc;" horiz-adv-x="631" 
d="M195 652v69h64v-69h-64zM372 652v69h64v-69h-64zM315 -11q-105 0 -168 64.5t-63 173.5v313h49v-306q0 -91 49 -144t133.5 -53t133.5 53t49 144v306h49v-313q0 -109 -63 -173.5t-169 -64.5z" />
    <glyph glyph-name="yacute" unicode="&#xfd;" horiz-adv-x="577" 
d="M382 758l-86 -152h-41l74 152h53zM503 540h53l-270 -579q-40 -87 -82 -119.5t-111 -32.5h-45v44h41q56 0 87.5 24t64.5 96l29 59l-248 508h53l221 -453z" />
    <glyph glyph-name="thorn" unicode="&#xfe;" horiz-adv-x="699" 
d="M375 550q119 0 197 -79.5t78 -200.5t-78 -201t-197 -80q-74 0 -134.5 33t-97.5 91v-304h-49v922h49v-304q37 57 97.5 90t134.5 33zM371 37q100 0 165 66t65 167t-65 167t-165 66q-98 0 -164 -66.5t-66 -166.5t66 -166.5t164 -66.5z" />
    <glyph glyph-name="ydieresis" unicode="&#xff;" horiz-adv-x="577" 
d="M172 652v69h64v-69h-64zM349 652v69h64v-69h-64zM503 540h53l-270 -579q-40 -87 -82 -119.5t-111 -32.5h-45v44h41q56 0 87.5 24t64.5 96l29 59l-248 508h53l221 -453z" />
    <glyph glyph-name="Amacron" unicode="&#x100;" horiz-adv-x="686" 
d="M184 827v43h313v-43h-313zM608 0l-81 191h-370l-81 -191h-54l294 700h46l301 -700h-55zM340 629l-164 -391h331z" />
    <glyph glyph-name="amacron" unicode="&#x101;" horiz-adv-x="701" 
d="M490 707v-40h-313v40h313zM567 540h40v-540h-42l-5 117q-36 -60 -97.5 -94t-137.5 -34q-119 0 -198 80.5t-79 200.5t79 200.5t198 80.5q76 0 137.5 -34.5t97.5 -94.5zM328 37q65 0 117.5 30t82 83.5t29.5 119.5q0 101 -65 167t-164 66q-65 0 -117.5 -30.5t-82.5 -84
t-30 -118.5q0 -100 65.5 -166.5t164.5 -66.5z" />
    <glyph glyph-name="Abreve" unicode="&#x102;" horiz-adv-x="686" 
d="M340 775q-67 0 -107 39t-40 109h40v-2q0 -26 7.5 -47.5t22 -35.5t34 -21t43.5 -7q49 0 77.5 29t28.5 82v2h41q0 -46 -18.5 -80t-51.5 -51t-77 -17zM608 0l-81 191h-370l-81 -191h-54l294 700h46l301 -700h-55zM340 629l-164 -391h331z" />
    <glyph glyph-name="abreve" unicode="&#x103;" horiz-adv-x="701" 
d="M334 600q-68 0 -108.5 42t-40.5 116h40v-2q0 -29 8 -52t22 -38t34.5 -23t44.5 -8q50 0 79.5 31.5t29.5 89.5v2h40q0 -49 -18.5 -85t-52 -54.5t-78.5 -18.5zM567 540h40v-540h-42l-5 117q-36 -60 -97.5 -94t-137.5 -34q-119 0 -198 80.5t-79 200.5t79 200.5t198 80.5
q76 0 137.5 -34.5t97.5 -94.5zM328 37q65 0 117.5 30t82 83.5t29.5 119.5q0 101 -65 167t-164 66q-65 0 -117.5 -30.5t-82.5 -84t-30 -118.5q0 -100 65.5 -166.5t164.5 -66.5z" />
    <glyph glyph-name="Aogonek" unicode="&#x104;" horiz-adv-x="686" 
d="M630 -190q26 0 46 9v-33q-27 -11 -58 -11q-49 0 -80 26.5t-31 68.5q0 40 27 77.5t71 61.5l-78 182h-370l-81 -191h-54l294 700h46l296 -688l7 -12q-55 -17 -86.5 -50t-31.5 -71q0 -31 22.5 -50t60.5 -19zM340 629l-164 -391h331z" />
    <glyph glyph-name="aogonek" unicode="&#x105;" horiz-adv-x="701" 
d="M583 -190q25 0 47 9v-32q-27 -12 -59 -12t-57 11.5t-39 33t-14 50.5q0 44 28 82t76 63l-5 102q-24 -39 -59 -67.5t-80 -44.5t-96 -16q-119 0 -198 80.5t-79 200.5t79 200.5t198 80.5q76 0 137.5 -34.5t97.5 -94.5l7 118h40v-540q-47 -17 -77 -50.5t-30 -69.5
q0 -32 23 -51t60 -19zM328 37q99 0 164 66t65 167t-65 167t-164 66t-164.5 -66.5t-65.5 -166.5t65.5 -166.5t164.5 -66.5z" />
    <glyph glyph-name="Cacute" unicode="&#x106;" horiz-adv-x="778" 
d="M373 781l82 142h53l-94 -142h-41zM410 -10q-156 0 -256.5 101t-100.5 258q0 104 45.5 186.5t127.5 128.5t184 46q117 0 204.5 -61.5t121.5 -167.5h-52q-33 85 -105 132.5t-169 47.5q-133 0 -219.5 -87.5t-86.5 -224.5q0 -89 39 -160t109 -110.5t158 -39.5
q100 0 173.5 50.5t105.5 141.5h51q-33 -112 -121.5 -176.5t-208.5 -64.5z" />
    <glyph glyph-name="cacute" unicode="&#x107;" horiz-adv-x="619" 
d="M286 606l75 152h53l-87 -152h-41zM326 -11q-118 0 -198 80.5t-80 200.5q0 121 79.5 201t198.5 80q91 0 159.5 -48.5t95.5 -129.5h-49q-18 41 -48.5 70t-71 44.5t-86.5 15.5q-98 0 -163 -66.5t-65 -166.5q0 -99 65.5 -166t162.5 -67q69 0 123.5 34.5t83.5 97.5h50
q-29 -83 -98 -131.5t-159 -48.5z" />
    <glyph glyph-name="Ccircumflex" unicode="&#x108;" horiz-adv-x="778" 
d="M553 781h-46l-104 112l-102 -112h-46l120 142h57zM410 -10q-156 0 -256.5 101t-100.5 258q0 104 45.5 186.5t127.5 128.5t184 46q117 0 204.5 -61.5t121.5 -167.5h-52q-33 85 -105 132.5t-169 47.5q-88 0 -157.5 -39.5t-109 -111t-39.5 -161t39 -160.5t109 -110.5
t158 -39.5q100 0 173.5 50.5t105.5 141.5h51q-33 -112 -121.5 -176.5t-208.5 -64.5z" />
    <glyph glyph-name="ccircumflex" unicode="&#x109;" horiz-adv-x="619" 
d="M474 606h-46l-104 120l-103 -120h-45l120 152h56zM326 -11q-118 0 -198 80.5t-80 200.5q0 121 79.5 201t198.5 80q91 0 159.5 -48.5t95.5 -129.5h-49q-18 41 -48.5 70t-71 44.5t-86.5 15.5q-98 0 -163 -66.5t-65 -166.5q0 -99 65.5 -166t162.5 -67q69 0 123.5 34.5
t83.5 97.5h50q-29 -83 -98 -131.5t-159 -48.5z" />
    <glyph glyph-name="Cdotaccent" unicode="&#x10a;" horiz-adv-x="778" 
d="M372 809v69h64v-69h-64zM410 -10q-156 0 -256.5 101t-100.5 258q0 104 45.5 186.5t127.5 128.5t184 46q117 0 204.5 -61.5t121.5 -167.5h-52q-33 85 -105 132.5t-169 47.5q-133 0 -219.5 -87.5t-86.5 -224.5q0 -89 39 -160t109 -110.5t158 -39.5q100 0 173.5 50.5
t105.5 141.5h51q-22 -74 -69 -128.5t-114 -83.5t-147 -29z" />
    <glyph glyph-name="cdotaccent" unicode="&#x10b;" horiz-adv-x="619" 
d="M293 652v69h62v-69h-62zM326 -11q-118 0 -198 80.5t-80 200.5q0 121 79.5 201t198.5 80q91 0 159.5 -48.5t95.5 -129.5h-49q-18 41 -48.5 70t-71 44.5t-86.5 15.5q-98 0 -163 -66.5t-65 -166.5q0 -99 65.5 -166t162.5 -67q69 0 123.5 34.5t83.5 97.5h50
q-29 -83 -98 -131.5t-159 -48.5z" />
    <glyph glyph-name="Ccaron" unicode="&#x10c;" horiz-adv-x="778" 
d="M507 923h46l-121 -142h-57l-120 142h46l102 -112zM410 -10q-156 0 -256.5 101t-100.5 258q0 104 45.5 186.5t127.5 128.5t184 46q117 0 204.5 -61.5t121.5 -167.5h-52q-33 85 -105 132.5t-169 47.5q-133 0 -219.5 -87.5t-86.5 -224.5q0 -89 39 -160t109 -110.5t158 -39.5
q100 0 173.5 50.5t105.5 141.5h51q-22 -74 -69 -128.5t-114 -83.5t-147 -29z" />
    <glyph glyph-name="ccaron" unicode="&#x10d;" horiz-adv-x="619" 
d="M428 758h45l-121 -152h-57l-120 152h46l103 -120zM326 -11q-118 0 -198 80.5t-80 200.5q0 121 79.5 201t198.5 80q91 0 159.5 -48.5t95.5 -129.5h-49q-18 41 -48.5 70t-71 44.5t-86.5 15.5q-98 0 -163 -66.5t-65 -166.5q0 -99 65.5 -166t162.5 -67q69 0 123.5 34.5
t83.5 97.5h50q-29 -83 -98 -131.5t-159 -48.5z" />
    <glyph glyph-name="Dcaron" unicode="&#x10e;" horiz-adv-x="727" 
d="M325 781h-57l-120 142h46l102 -112l104 112h46zM319 700q101 0 182.5 -45t127 -125t45.5 -179q0 -153 -100.5 -252t-254.5 -99h-215v700h215zM317 48q66 0 122.5 22.5t97 62.5t63 96.5t22.5 121.5q0 131 -86 216t-219 85h-163v-604h163z" />
    <glyph glyph-name="dcaron" unicode="&#x10f;" horiz-adv-x="697" 
d="M554 431v300h49v-731h-39l-7 113q-37 -58 -97.5 -91t-135.5 -33q-119 0 -197.5 80.5t-78.5 200.5q0 121 78.5 201t197.5 80q74 0 133.5 -32t96.5 -88zM671 731h61v-54q0 -31 -16 -55.5t-43 -33.5v31q30 12 30 54h-32v58zM327 37q100 0 165 66.5t65 166.5q0 101 -65 167
t-165 66q-64 0 -117 -30t-82.5 -83.5t-29.5 -119.5t29.5 -119.5t82.5 -83.5t117 -30z" />
    <glyph glyph-name="Dcroat" unicode="&#x110;" horiz-adv-x="742" 
d="M334 700q154 0 254 -99t100 -250q0 -153 -100 -252t-254 -99h-215v329h-104v43h104v328h215zM332 48q133 0 219 85.5t86 217.5q0 131 -86 216t-219 85h-163v-280h236v-43h-236v-281h163z" />
    <glyph glyph-name="dcroat" unicode="&#x111;" horiz-adv-x="697" 
d="M687 646v-42h-84v-604h-39l-7 113q-37 -58 -97.5 -91t-135.5 -33q-119 0 -197.5 80.5t-78.5 200.5q0 121 78.5 201t197.5 80q74 0 133.5 -32t96.5 -88v173h-214v42h214v85h49v-85h84zM327 37q100 0 165 66.5t65 166.5q0 101 -65 167t-165 66q-64 0 -117 -30t-82.5 -83.5
t-29.5 -119.5t29.5 -119.5t82.5 -83.5t117 -30z" />
    <glyph glyph-name="Emacron" unicode="&#x112;" horiz-adv-x="545" 
d="M137 827v43h313v-43h-313zM154 49h344v-49h-394v700h383v-48h-333v-265h307v-47h-307v-291z" />
    <glyph glyph-name="emacron" unicode="&#x113;" horiz-adv-x="634" 
d="M474 707v-40h-313v40h313zM588 272q0 -7 -1 -19h-490q4 -63 33.5 -112t79.5 -76.5t111 -27.5q66 0 117.5 31.5t81.5 88.5h52q-37 -81 -102 -124.5t-149 -43.5q-117 0 -195 80.5t-78 201.5q0 119 78.5 199.5t194.5 80.5q117 0 192 -80t75 -199zM321 504q-90 0 -152 -57.5
t-71 -147.5h442q-4 45 -22.5 83.5t-47.5 65.5t-67.5 41.5t-81.5 14.5z" />
    <glyph glyph-name="Ebreve" unicode="&#x114;" horiz-adv-x="545" 
d="M293 775q-67 0 -107 39t-40 109h40v-2q0 -26 7.5 -47.5t21.5 -35.5t34 -21t44 -7q49 0 77.5 29t28.5 82v2h40q0 -46 -18 -80t-51 -51t-77 -17zM154 49h344v-49h-394v700h383v-48h-333v-265h307v-47h-307v-291z" />
    <glyph glyph-name="ebreve" unicode="&#x115;" horiz-adv-x="634" 
d="M318 600q-68 0 -108.5 42t-40.5 116h40v-2q0 -29 8 -52t22 -38t34.5 -23t44.5 -8q50 0 79.5 31.5t29.5 89.5v2h40q0 -74 -40.5 -116t-108.5 -42zM588 272q0 -7 -1 -19h-490q4 -63 33.5 -112t79.5 -76.5t111 -27.5q66 0 117.5 31.5t81.5 88.5h52q-37 -81 -102 -124.5
t-149 -43.5q-77 0 -139 36.5t-98 101t-36 144.5q0 119 78.5 199.5t194.5 80.5q117 0 192 -80t75 -199zM321 504q-90 0 -152 -57.5t-71 -147.5h442q-4 45 -22.5 83.5t-47.5 65.5t-67.5 41.5t-81.5 14.5z" />
    <glyph glyph-name="Edotaccent" unicode="&#x116;" horiz-adv-x="545" 
d="M260 809v69h65v-69h-65zM154 49h344v-49h-394v700h383v-48h-333v-265h307v-47h-307v-291z" />
    <glyph glyph-name="edotaccent" unicode="&#x117;" horiz-adv-x="634" 
d="M349 721v-69h-62v69h62zM588 272q0 -7 -1 -19h-490q4 -63 33.5 -112t79.5 -76.5t111 -27.5q66 0 117.5 31.5t81.5 88.5h52q-37 -81 -102 -124.5t-149 -43.5q-116 0 -194.5 80.5t-78.5 201.5q0 119 78.5 199.5t194.5 80.5q117 0 192 -80t75 -199zM321 504
q-90 0 -152 -57.5t-71 -147.5h442q-3 30 -12.5 57.5t-24 50.5t-34 41t-42.5 30.5t-50 19t-56 6.5z" />
    <glyph glyph-name="Eogonek" unicode="&#x118;" horiz-adv-x="545" 
d="M470 -190q26 0 48 9v-32q-28 -12 -60 -12q-49 0 -79 26t-30 69q0 38 23 73t62 57h-330v700h383v-48h-333v-265h307v-47h-307v-291h344v-49q-48 -15 -79 -49t-31 -71q0 -32 22.5 -51t59.5 -19z" />
    <glyph glyph-name="eogonek" unicode="&#x119;" horiz-adv-x="635" 
d="M589 276q0 -12 -1 -23h-490q5 -94 68 -155t156 -61q65 0 116.5 31.5t82.5 88.5h52q-51 -109 -158 -151q-44 -21 -71 -55.5t-27 -69.5q0 -33 22 -52t60 -19q26 0 48 9v-31q-28 -13 -59 -13q-49 0 -79.5 26t-30.5 68q0 32 18.5 64.5t48.5 56.5h-23q-77 0 -139.5 36.5
t-98 101t-35.5 143.5q0 119 78 199t194.5 80t192 -79.5t75.5 -194.5zM322 504q-91 0 -154 -58t-70 -147h443q-9 92 -70 148.5t-149 56.5z" />
    <glyph glyph-name="Ecaron" unicode="&#x11a;" horiz-adv-x="545" 
d="M320 781h-56l-120 142h45l103 -112l104 112h45zM154 49h344v-49h-394v700h383v-48h-333v-265h307v-47h-307v-291z" />
    <glyph glyph-name="ecaron" unicode="&#x11b;" horiz-adv-x="634" 
d="M346 606h-57l-120 152h46l103 -120l104 120h45zM588 272q0 -7 -1 -19h-490q4 -63 33.5 -112t79.5 -76.5t111 -27.5q66 0 117.5 31.5t81.5 88.5h52q-37 -81 -102 -124.5t-149 -43.5q-116 0 -194.5 80.5t-78.5 201.5q0 119 78.5 199.5t194.5 80.5q117 0 192 -80t75 -199z
M321 504q-90 0 -152 -57.5t-71 -147.5h442q-4 45 -22.5 83.5t-47.5 65.5t-67.5 41.5t-81.5 14.5z" />
    <glyph glyph-name="Gcircumflex" unicode="&#x11c;" horiz-adv-x="799" 
d="M405 893l-102 -112h-46l120 142h57l121 -142h-46zM374 334h376q-3 -100 -47.5 -178.5t-122.5 -122t-175 -43.5q-154 0 -253 101.5t-99 257.5t100 258t251 102q81 0 152.5 -31.5t119.5 -88.5t63 -129h-52q-23 88 -101.5 144t-180.5 56q-131 0 -215.5 -88t-84.5 -223
q0 -136 83.5 -222.5t216.5 -86.5q116 0 196.5 68t94.5 178h-322v48z" />
    <glyph glyph-name="gcircumflex" unicode="&#x11d;" horiz-adv-x="676" 
d="M322 726l-103 -120h-46l120 152h57l121 -152h-46zM547 540h34v-462q0 -131 -69 -205.5t-189 -74.5q-93 0 -156.5 45t-88.5 126h49q22 -60 74 -93t122 -33q97 0 153.5 61t56.5 169v61q-23 -35 -56 -61t-75.5 -40t-89.5 -14q-112 0 -188 76t-76 190q0 112 76.5 189
t187.5 77q73 0 132.5 -34t94.5 -92zM317 66q94 0 155 62t61 156.5t-61.5 157t-154.5 62.5q-94 0 -156.5 -63t-62.5 -156.5t62.5 -156t156.5 -62.5z" />
    <glyph glyph-name="Gbreve" unicode="&#x11e;" horiz-adv-x="799" 
d="M406 775q-44 0 -77 17t-51.5 51t-18.5 80h40v-2q0 -35 13.5 -60.5t37.5 -38t56 -12.5q49 0 77.5 29t28.5 82v2h41q0 -70 -40 -109t-107 -39zM374 334h376q-4 -152 -100.5 -248t-244.5 -96q-154 0 -253 101.5t-99 257.5t100 258t251 102q124 0 218 -70t117 -179h-52
q-23 88 -101.5 144t-180.5 56q-131 0 -215.5 -88t-84.5 -223q0 -136 83.5 -222.5t216.5 -86.5q77 0 140 30.5t102.5 86.5t48.5 129h-322v48z" />
    <glyph glyph-name="gbreve" unicode="&#x11f;" horiz-adv-x="676" 
d="M322 600q-68 0 -109 42t-41 116h40v-2q0 -29 8 -52t22.5 -38t34.5 -23t45 -8q50 0 79 31.5t29 89.5v2h41q0 -74 -40.5 -116t-108.5 -42zM547 540h34v-462q0 -131 -69 -205.5t-189 -74.5q-93 0 -156.5 45t-88.5 126h49q22 -60 74 -93t122 -33q97 0 153.5 61t56.5 169v61
q-23 -35 -56 -61t-75.5 -40t-89.5 -14q-112 0 -188 76t-76 190q0 112 76.5 189t187.5 77q73 0 132.5 -34t94.5 -92zM317 66q94 0 155 62t61 156.5t-61.5 157t-154.5 62.5q-94 0 -156.5 -63t-62.5 -156.5t62.5 -156t156.5 -62.5z" />
    <glyph glyph-name="Gdotaccent" unicode="&#x120;" horiz-adv-x="799" 
d="M438 878v-69h-64v69h64zM374 334h376q-4 -152 -100.5 -248t-244.5 -96q-154 0 -253 101.5t-99 257.5t100 258t251 102q81 0 152.5 -31.5t119.5 -88.5t63 -129h-52q-23 88 -101.5 144t-180.5 56q-131 0 -215.5 -88t-84.5 -223q0 -136 83.5 -222.5t216.5 -86.5
q116 0 196.5 68t94.5 178h-322v48z" />
    <glyph glyph-name="gdotaccent" unicode="&#x121;" horiz-adv-x="676" 
d="M352 721v-69h-61v69h61zM547 540h34v-462q0 -131 -69 -205.5t-189 -74.5q-93 0 -156.5 45t-88.5 126h49q22 -60 74 -93t122 -33q97 0 153.5 61t56.5 169v61q-23 -35 -56 -61t-75.5 -40t-89.5 -14q-112 0 -188 76t-76 190q0 112 76.5 189t187.5 77q73 0 132.5 -34
t94.5 -92zM317 66q94 0 155 62t61 156.5t-61.5 157t-154.5 62.5q-94 0 -156.5 -63t-62.5 -156.5t62.5 -156t156.5 -62.5z" />
    <glyph glyph-name="uni0122" unicode="&#x122;" horiz-adv-x="799" 
d="M374 334h376q-4 -152 -100.5 -248t-244.5 -96q-154 0 -253 101.5t-99 257.5t100 258t251 102q81 0 152.5 -31.5t119.5 -88.5t63 -129h-52q-23 88 -101.5 144t-180.5 56q-131 0 -215.5 -88t-84.5 -223q0 -136 83.5 -222.5t216.5 -86.5q116 0 196.5 68t94.5 178h-322v48z
M376 -123v58h62v-54q0 -32 -15.5 -56.5t-40.5 -33.5l-4 26q33 16 33 60h-35z" />
    <glyph glyph-name="uni0123" unicode="&#x123;" horiz-adv-x="676" 
d="M352 707v-59h-62v54q0 33 15.5 57t40.5 33l4 -25q-33 -16 -33 -60h35zM547 540h34v-462q0 -131 -69 -205.5t-189 -74.5q-93 0 -156.5 45t-88.5 126h49q22 -60 74 -93t122 -33q97 0 153.5 61t56.5 169v61q-35 -54 -92.5 -84.5t-128.5 -30.5q-112 0 -188 76t-76 190
q0 112 76.5 189t187.5 77q73 0 132.5 -34t94.5 -92zM317 66q94 0 155 62t61 156.5t-61.5 157t-154.5 62.5q-94 0 -156.5 -63t-62.5 -156.5t62.5 -156t156.5 -62.5z" />
    <glyph glyph-name="Hcircumflex" unicode="&#x124;" horiz-adv-x="728" 
d="M369 893l-102 -112h-46l120 142h57l121 -142h-46zM574 700h51v-700h-51v339h-420v-339h-50v700h50v-312h420v312z" />
    <glyph glyph-name="hcircumflex" unicode="&#x125;" horiz-adv-x="641" 
d="M222 790l-104 112l-103 -112h-45l120 142h57l120 -142h-45zM346 551q64 0 111.5 -28t73 -80t25.5 -122v-321h-49v311q0 92 -45.5 143.5t-126.5 51.5q-79 0 -135.5 -58.5t-56.5 -139.5v-308h-49v731h49v-295q31 53 84.5 84t118.5 31z" />
    <glyph glyph-name="Hbar" unicode="&#x126;" horiz-adv-x="742" 
d="M723 588v-40h-92v-548h-50v340h-421v-340h-50v548h-87v40h87v112h50v-112h421v112h50v-112h92zM581 387v161h-421v-161h421z" />
    <glyph glyph-name="hbar" unicode="&#x127;" horiz-adv-x="641" 
d="M346 551q64 0 111.5 -28t73 -80t25.5 -122v-321h-49v311q0 92 -45.5 143.5t-126.5 51.5q-79 0 -135.5 -58.5t-56.5 -139.5v-308h-49v604h-98v42h98v85h49v-85h200v-42h-200v-168q31 53 84.5 84t118.5 31z" />
    <glyph glyph-name="Itilde" unicode="&#x128;" horiz-adv-x="258" 
d="M207 790q-14 0 -27 4t-24.5 12.5t-18.5 15.5t-18 19q-9 11 -14.5 16.5t-14 12.5t-17 10t-18.5 3q-22 0 -36 -21t-14 -56v-11h-31v13q0 51 21.5 81.5t59.5 30.5q19 0 36.5 -8.5t26.5 -17t23 -25.5q13 -15 20 -21.5t19.5 -14t26.5 -7.5q22 0 35.5 21t13.5 56v9h31v-10
q0 -51 -21.5 -81.5t-58.5 -30.5zM104 0v700h50v-700h-50z" />
    <glyph glyph-name="itilde" unicode="&#x129;" horiz-adv-x="237" 
d="M192 616q-18 0 -34.5 8.5t-25.5 17.5t-23 26q-13 15 -19.5 21.5t-18.5 13.5t-24 7q-21 0 -34 -18.5t-13 -49.5v-18h-34v16q0 50 20.5 79.5t57.5 29.5q19 0 36.5 -9.5t26 -18t22.5 -25.5q9 -11 14 -16.5t13.5 -12.5t16.5 -10t17 -3q14 0 24.5 8t16.5 24t6 37v15h34v-13
q0 -34 -9.5 -58.5t-27 -37.5t-42.5 -13zM94 0v540h49v-540h-49z" />
    <glyph glyph-name="Imacron" unicode="&#x12a;" horiz-adv-x="258" 
d="M6 827v45h248v-45h-248zM104 0v700h50v-700h-50z" />
    <glyph glyph-name="imacron" unicode="&#x12b;" horiz-adv-x="237" 
d="M-4 667v40h246v-40h-246zM94 0v540h49v-540h-49z" />
    <glyph glyph-name="Ibreve" unicode="&#x12c;" horiz-adv-x="258" 
d="M129 775q-61 0 -98 39.5t-37 108.5h40v-2q0 -53 26 -82t69.5 -29t69 29t25.5 82v2h40q0 -46 -17 -79.5t-47 -51t-71 -17.5zM104 0v700h50v-700h-50z" />
    <glyph glyph-name="ibreve" unicode="&#x12d;" horiz-adv-x="237" 
d="M119.5 600q-63.5 0 -101.5 42t-38 116h40v-2q0 -58 27 -89.5t72 -31.5q30 0 52 14t34.5 41t12.5 66v2h40q0 -74 -37.5 -116t-101 -42zM94 0v540h49v-540h-49z" />
    <glyph glyph-name="Iogonek" unicode="&#x12e;" horiz-adv-x="258" 
d="M139 -190q25 0 47 9v-32q-27 -12 -59 -12q-49 0 -79 26t-30 69q0 39 23.5 75.5t62.5 59.5v695h51v-700q-30 -12 -52 -31.5t-34.5 -42.5t-12.5 -46q0 -32 22.5 -51t60.5 -19z" />
    <glyph glyph-name="iogonek" unicode="&#x12f;" horiz-adv-x="238" 
d="M150 721v-69h-61v69h61zM120 -190q25 0 48 9v-32q-27 -12 -60 -12q-48 0 -79 26t-31 69q0 38 26.5 74.5t70.5 60.5v535h49v-537v-3q-47 -17 -76.5 -50.5t-29.5 -69.5q0 -32 22.5 -51t59.5 -19z" />
    <glyph glyph-name="Idotaccent" unicode="&#x130;" horiz-adv-x="258" 
d="M97 809v69h64v-69h-64zM104 0v700h50v-700h-50z" />
    <glyph glyph-name="dotlessi" unicode="&#x131;" horiz-adv-x="237" 
d="M94 0v540h49v-540h-49z" />
    <glyph glyph-name="IJ" unicode="&#x132;" horiz-adv-x="792" 
d="M104 0v700h50v-700h-50zM466 -11q-65 0 -118.5 31t-84.5 85.5t-31 121.5v9h50v-7q0 -82 52.5 -136t131.5 -54q50 0 91.5 24.5t65.5 68.5t24 97v471h50v-473q0 -102 -66.5 -170t-164.5 -68z" />
    <glyph glyph-name="ij" unicode="&#x133;" horiz-adv-x="558" 
d="M88 652v69h61v-69h-61zM409 652v69h61v-69h-61zM94 0v540h49v-540h-49zM267 -191v45h23q59 0 91.5 32.5t32.5 91.5v562h49v-565q0 -76 -45.5 -121t-121.5 -45h-29z" />
    <glyph glyph-name="Jcircumflex" unicode="&#x134;" horiz-adv-x="590" 
d="M495 923l104 -142h-44l-86 112l-86 -112h-44l104 142h52zM445 229v471h50v-473q0 -102 -66.5 -170t-164.5 -68q-65 0 -118.5 31t-84 85.5t-30.5 121.5v9h50v-7q0 -54 24 -97.5t66 -68t93 -24.5q77 0 129 54.5t52 135.5z" />
    <glyph glyph-name="jcircumflex" unicode="&#x135;" horiz-adv-x="249" 
d="M156 758l107 -152h-44l-89 120l-89 -120h-43l106 152h52zM106 -18v558h49v-561q0 -76 -45.5 -121.5t-121.5 -45.5h-27v46h20q59 0 92 32.5t33 91.5z" />
    <glyph glyph-name="uni0136" unicode="&#x136;" horiz-adv-x="614" 
d="M310 364l302 -364h-65l-282 340h-111v-340h-50v700h50v-313h111l257 313h65zM308 -123v58h62v-54q0 -32 -15.5 -56.5t-40.5 -33.5l-4 26q33 16 33 60h-35z" />
    <glyph glyph-name="uni0137" unicode="&#x137;" horiz-adv-x="524" 
d="M284 282l235 -282h-62l-215 259h-94v-259h-49v731h49v-426h95l196 235h60zM235 -123v58h62v-54q0 -31 -16 -55.5t-43 -33.5v30q30 13 30 55h-33z" />
    <glyph glyph-name="kgreenlandic" unicode="&#x138;" horiz-adv-x="517" 
d="M453 0l-216 259h-94v-259h-49v540h49v-235h95l197 235h60l-215 -258l234 -282h-61z" />
    <glyph glyph-name="Lacute" unicode="&#x139;" horiz-adv-x="507" 
d="M246 923l-94 -142h-41l83 142h52zM154 48h331v-48h-381v700h50v-652z" />
    <glyph glyph-name="lacute" unicode="&#x13a;" horiz-adv-x="237" 
d="M88 813l82 142h53l-94 -142h-41zM94 0v731h49v-731h-49z" />
    <glyph glyph-name="uni013B" unicode="&#x13b;" horiz-adv-x="507" 
d="M154 48h331v-48h-381v700h50v-652zM252 -123v58h62v-54q0 -21 -7 -39.5t-20 -31.5t-29 -19l-4 26q33 16 33 60h-35z" />
    <glyph glyph-name="uni013C" unicode="&#x13c;" horiz-adv-x="237" 
d="M94 0v731h49v-731h-49zM90 -208v30q30 13 30 55h-33v58h62v-54q0 -31 -16 -55.5t-43 -33.5z" />
    <glyph glyph-name="Lcaron" unicode="&#x13d;" horiz-adv-x="507" 
d="M377 619q30 12 30 54h-33v58h62v-53q0 -32 -16 -56.5t-43 -33.5v31zM154 48h331v-48h-381v700h50v-652z" />
    <glyph glyph-name="lcaron" unicode="&#x13e;" horiz-adv-x="237" 
d="M94 0v731h49v-731h-49zM215 588v31q30 12 30 54h-33v58h62v-53q0 -32 -16 -56.5t-43 -33.5z" />
    <glyph glyph-name="Ldot" unicode="&#x13f;" horiz-adv-x="509" 
d="M154 48h331v-48h-381v700h50v-652zM397 394v-77h-64v77h64z" />
    <glyph glyph-name="ldot" unicode="&#x140;" horiz-adv-x="292" 
d="M94 0v731h49v-731h-49zM232 325v77h65v-77h-65z" />
    <glyph glyph-name="Lslash" unicode="&#x141;" horiz-adv-x="507" 
d="M154 48h331v-48h-381v265l-91 -48v45l91 49v389h50v-362l245 131v-47l-245 -130v-244z" />
    <glyph glyph-name="lslash" unicode="&#x142;" horiz-adv-x="237" 
d="M255 510v-48l-112 -68v-394h-49v364l-112 -69v48l112 68v320h49v-290z" />
    <glyph glyph-name="Nacute" unicode="&#x143;" horiz-adv-x="746" 
d="M489 923l-94 -142h-41l82 142h53zM593 700h50v-700h-43l-447 611v-611h-49v700h45l444 -608v608z" />
    <glyph glyph-name="nacute" unicode="&#x144;" horiz-adv-x="641" 
d="M415 758l-86 -152h-41l74 152h53zM346 551q96 0 153 -63.5t57 -166.5v-321h-49v311q0 92 -45.5 143.5t-126.5 51.5q-79 0 -135.5 -58.5t-56.5 -139.5v-308h-49v540h37l9 -109q30 55 85 87.5t121 32.5z" />
    <glyph glyph-name="uni0145" unicode="&#x145;" horiz-adv-x="746" 
d="M593 700h50v-700h-43l-447 611v-611h-49v700h45l444 -608v608zM338 -123v58h61v-54q0 -32 -15.5 -56.5t-40.5 -33.5l-4 26q33 16 33 60h-34z" />
    <glyph glyph-name="uni0146" unicode="&#x146;" horiz-adv-x="641" 
d="M346 551q96 0 153 -63.5t57 -166.5v-321h-49v311q0 92 -45.5 143.5t-126.5 51.5q-79 0 -135.5 -58.5t-56.5 -139.5v-308h-49v540h37l9 -109q30 55 85 87.5t121 32.5zM292 -123v58h61v-54q0 -20 -7 -38t-20.5 -31.5t-31.5 -19.5v30q30 13 30 55h-32z" />
    <glyph glyph-name="Ncaron" unicode="&#x147;" horiz-adv-x="746" 
d="M413 781h-57l-120 142h45l103 -112l104 112h45zM593 700h50v-700h-43l-447 611v-611h-49v700h45l444 -608v608z" />
    <glyph glyph-name="ncaron" unicode="&#x148;" horiz-adv-x="641" 
d="M354 606h-57l-120 152h45l103 -120l104 120h46zM346 551q96 0 153 -63.5t57 -166.5v-321h-49v311q0 92 -45.5 143.5t-126.5 51.5q-79 0 -135.5 -58.5t-56.5 -139.5v-308h-49v540h37l9 -109q30 55 85 87.5t121 32.5z" />
    <glyph glyph-name="Eng" unicode="&#x14a;" horiz-adv-x="746" 
d="M429 -190v47h20q66 0 106.5 40t40.5 106l-443 609v-612h-49v700h45l444 -611v611h50v-692q0 -92 -53 -145t-145 -53h-16z" />
    <glyph glyph-name="eng" unicode="&#x14b;" horiz-adv-x="641" 
d="M346 550q97 0 153.5 -62t56.5 -168v-321q0 -87 -51 -138.5t-138 -51.5h-22v45h16q67 0 106.5 39.5t39.5 107.5v309q0 92 -45.5 144t-126.5 52q-52 0 -96 -27t-70 -72.5t-26 -98.5v-308h-49v540h37l10 -109q30 55 84.5 87t120.5 32z" />
    <glyph glyph-name="Omacron" unicode="&#x14c;" horiz-adv-x="831" 
d="M260 827v43h313v-43h-313zM415.5 -11q-157.5 0 -260 103t-102.5 257q0 156 102.5 259t260 103t260 -103t102.5 -259q0 -155 -102.5 -257.5t-260 -102.5zM416 39q89 0 160 40t111 111.5t40 158.5q0 89 -40 160t-111 111.5t-160 40.5q-135 0 -223.5 -89t-88.5 -223
q0 -133 88.5 -221.5t223.5 -88.5z" />
    <glyph glyph-name="omacron" unicode="&#x14d;" horiz-adv-x="661" 
d="M174 667v40h313v-40h-313zM331 -11q-121 0 -202 80t-81 201t80.5 201t202 80t202 -80t80.5 -201t-80.5 -201t-201.5 -80zM331 37q66 0 119 30t83 83.5t30 119.5q0 101 -66 167t-166 66q-67 0 -120 -30t-83 -83.5t-30 -119.5q0 -100 66 -166.5t167 -66.5z" />
    <glyph glyph-name="Obreve" unicode="&#x14e;" horiz-adv-x="831" 
d="M416 775q-44 0 -77 17t-51.5 51t-18.5 80h40v-2q0 -35 13.5 -60.5t37 -38t56.5 -12.5q49 0 77.5 29t28.5 82v2h40q0 -70 -39.5 -109t-106.5 -39zM415.5 -11q-157.5 0 -260 103t-102.5 257q0 156 102.5 259t260 103t260 -103t102.5 -259q0 -155 -102.5 -257.5t-260 -102.5
zM416 39q89 0 160 40t111 111.5t40 158.5q0 89 -40 160t-111 111.5t-160 40.5q-135 0 -223.5 -89t-88.5 -223q0 -133 88.5 -221.5t223.5 -88.5z" />
    <glyph glyph-name="obreve" unicode="&#x14f;" horiz-adv-x="661" 
d="M331 600q-68 0 -108.5 42t-40.5 116h39v-2q0 -29 8 -52t22.5 -38t34.5 -23t45 -8q19 0 36 5t30 15t22.5 24.5t14.5 34t5 42.5v2h41q0 -74 -40.5 -116t-108.5 -42zM331 -11q-121 0 -202 80t-81 201t80.5 201t202 80t202 -80t80.5 -201t-80.5 -201t-201.5 -80zM331 37
q66 0 119 30t83 83.5t30 119.5q0 101 -66 167t-166 66q-67 0 -120 -30t-83 -83.5t-30 -119.5q0 -100 66 -166.5t167 -66.5z" />
    <glyph glyph-name="Ohungarumlaut" unicode="&#x150;" horiz-adv-x="831" 
d="M308 781l72 142h48l-81 -142h-39zM464 781l81 142h50l-92 -142h-39zM415.5 -11q-157.5 0 -260 103t-102.5 257q0 156 102.5 259t260.5 103q77 0 145 -27.5t115.5 -75.5t74.5 -115t27 -144q0 -155 -102.5 -257.5t-260 -102.5zM416 39q89 0 160 40t111 111.5t40 158.5
q0 89 -40 160t-111 111.5t-160 40.5q-135 0 -223.5 -89t-88.5 -223q0 -133 88.5 -221.5t223.5 -88.5z" />
    <glyph glyph-name="ohungarumlaut" unicode="&#x151;" horiz-adv-x="661" 
d="M223 606l72 152h51l-83 -152h-40zM384 606l79 152h49l-89 -152h-39zM331 -11q-121 0 -202 80t-81 201t80.5 201t202 80t202 -80t80.5 -201t-80.5 -201t-201.5 -80zM331 37q66 0 119 30t83 83.5t30 119.5q0 101 -66 167t-166 66q-67 0 -120 -30t-83 -83.5t-30 -119.5
q0 -100 66 -166.5t167 -66.5z" />
    <glyph glyph-name="OE" unicode="&#x152;" horiz-adv-x="972" 
d="M552 48h372v-48h-422v1q-59 -12 -117 -12q-140 0 -236 103.5t-96 256.5q0 101 43.5 184t119.5 130.5t169 47.5q61 0 117 -12v1h411v-47h-361v-275h335v-46h-335v-284zM390 39q55 0 112 9v603q-62 10 -113 10q-121 0 -202.5 -89.5t-81.5 -222.5q0 -135 81 -222.5
t204 -87.5z" />
    <glyph glyph-name="oe" unicode="&#x153;" horiz-adv-x="1147" 
d="M1101 273q0 -7 -1 -20h-490q6 -95 68.5 -155t155.5 -60q66 0 117.5 31t81.5 88h52q-37 -81 -102 -124.5t-149 -43.5t-150.5 45t-97.5 119q-32 -75 -100.5 -119t-155.5 -44q-121 0 -201.5 80t-80.5 200q0 121 80.5 201t201.5 80q58 0 109 -20.5t88.5 -57.5t58.5 -86
q31 75 97.5 119.5t150.5 44.5q115 0 191 -79.5t76 -198.5zM834 505q-90 0 -152 -58t-71 -149h442q-8 92 -69 149.5t-150 57.5zM330 37q100 0 166 66t66 167t-66 167t-166 66t-166 -66t-66 -167q0 -100 66 -166.5t166 -66.5z" />
    <glyph glyph-name="Racute" unicode="&#x154;" horiz-adv-x="636" 
d="M401 923l-94 -142h-41l82 142h53zM526 0l-175 294h-197v-294h-50v700h258q94 0 155.5 -57.5t61.5 -146.5q0 -76 -48 -130.5t-126 -67.5l178 -298h-57zM154 652v-310h205q75 0 122 43.5t47 111t-47.5 111.5t-121.5 44h-205z" />
    <glyph glyph-name="racute" unicode="&#x155;" horiz-adv-x="382" 
d="M319 758l-87 -152h-41l75 152h53zM324 542h47v-47h-50q-81 0 -129.5 -54t-48.5 -140v-301h-49v540h37l8 -107q58 109 185 109z" />
    <glyph glyph-name="uni0156" unicode="&#x156;" horiz-adv-x="636" 
d="M405 298l178 -298h-57l-175 294h-197v-294h-50v700h258q94 0 155.5 -57.5t61.5 -146.5q0 -76 -48 -130.5t-126 -67.5zM154 652v-310h205q75 0 122 43.5t47 111t-47.5 111.5t-121.5 44h-205zM298 -123v58h61v-54q0 -32 -15 -56.5t-41 -33.5l-3 26q32 16 32 60h-34z" />
    <glyph glyph-name="uni0157" unicode="&#x157;" horiz-adv-x="382" 
d="M324 542h47v-47h-50q-81 0 -129.5 -54t-48.5 -140v-301h-49v540h37l8 -107q58 109 185 109zM88 -123v58h62v-54q0 -31 -16.5 -55.5t-43.5 -33.5v30q30 13 30 55h-32z" />
    <glyph glyph-name="Rcaron" unicode="&#x158;" horiz-adv-x="636" 
d="M325 781h-57l-120 142h45l103 -112l104 112h45zM526 0l-175 294h-197v-294h-50v700h258q94 0 155.5 -57.5t61.5 -146.5q0 -76 -48 -130.5t-126 -67.5l178 -298h-57zM154 652v-310h205q75 0 122 43.5t47 111t-47.5 111.5t-121.5 44h-205z" />
    <glyph glyph-name="rcaron" unicode="&#x159;" horiz-adv-x="382" 
d="M257 606h-56l-121 152h46l103 -120l104 120h45zM139 433q58 109 185 109h47v-47h-50q-81 0 -129.5 -54t-48.5 -140v-301h-49v540h37z" />
    <glyph glyph-name="Sacute" unicode="&#x15a;" horiz-adv-x="587" 
d="M257 781l83 142h52l-94 -142h-41zM300 -8q-112 0 -181 59t-69 158h52q0 -77 54.5 -122.5t143.5 -45.5q81 0 132.5 41.5t51.5 108.5q0 19 -3.5 35t-12.5 28t-17.5 21.5t-25.5 18t-28.5 13.5t-33.5 11.5t-34.5 9.5t-37.5 8q-31 7 -47.5 11t-44.5 13t-43.5 17.5t-35.5 22.5
t-30 30t-17.5 39.5t-7.5 51.5q0 86 62.5 136.5t166.5 50.5q102 0 162.5 -54t60.5 -144h-50q0 68 -48 109t-126 41q-52 0 -92.5 -17t-63 -48t-22.5 -73q0 -20 6 -37t14.5 -29t25 -22.5t29 -16.5t37 -13.5t38.5 -11t42 -9.5q32 -7 48.5 -11.5t45 -13.5t44 -17.5t35.5 -23
t30.5 -31.5t18 -41t7.5 -53q0 -91 -66 -145.5t-170 -54.5z" />
    <glyph glyph-name="sacute" unicode="&#x15b;" horiz-adv-x="508" 
d="M215 606l75 152h53l-87 -152h-41zM254 -11q-92 0 -147.5 44t-61.5 120h48q6 -56 49 -87t113.5 -31t114 30t43.5 81q0 24 -10 42.5t-23.5 29t-38.5 19.5t-43 12.5t-50 9.5q-23 4 -35.5 6t-33.5 7t-33 10t-28.5 13t-26 18t-18.5 23t-13 30t-4 37q0 66 54 107t141 41
q88 0 140.5 -42t56.5 -114h-47q-2 26 -13 47t-30 35t-46.5 22t-61.5 8q-66 0 -106 -28t-40 -74q0 -16 4.5 -28.5t11 -21.5t19.5 -16.5t23.5 -11.5t30 -8.5t31.5 -7t35 -6.5q27 -4 41.5 -7t39.5 -9.5t39 -13t32 -18.5t27.5 -26.5t16 -36t6.5 -47.5q0 -71 -56.5 -114.5
t-150.5 -43.5z" />
    <glyph glyph-name="Scircumflex" unicode="&#x15c;" horiz-adv-x="587" 
d="M437 781h-46l-104 112l-102 -112h-46l120 142h57zM300 -8q-112 0 -181 59t-69 158h52q0 -77 54.5 -122.5t143.5 -45.5q81 0 132.5 41.5t51.5 108.5q0 19 -3.5 35t-12.5 28t-17.5 21.5t-25.5 18t-28.5 13.5t-33.5 11.5t-34.5 9.5t-37.5 8q-31 7 -47.5 11t-44.5 13
t-43.5 17.5t-35.5 22.5t-30 30t-17.5 39.5t-7.5 51.5q0 86 62.5 136.5t166.5 50.5q102 0 162.5 -54t60.5 -144h-50q0 68 -48 109t-126 41q-52 0 -92.5 -17t-63 -48t-22.5 -73q0 -20 6 -37t14.5 -29t25 -22.5t29 -16.5t37 -13.5t38.5 -11t42 -9.5q32 -7 48.5 -11.5t45 -13.5
t44 -17.5t35.5 -23t30.5 -31.5t18 -41t7.5 -53q0 -91 -66 -145.5t-170 -54.5z" />
    <glyph glyph-name="scircumflex" unicode="&#x15d;" horiz-adv-x="508" 
d="M403 606h-46l-104 120l-103 -120h-45l120 152h57zM254 -11q-92 0 -147.5 44t-61.5 120h48q6 -56 49 -87t114 -31q46 0 81.5 13.5t55.5 38.5t20 59q0 20 -6 36t-19 27t-26 19t-35 14t-37.5 9t-41.5 8q-27 4 -41 7t-37.5 9t-37 12.5t-30 17.5t-25.5 24t-15 32t-6 42
q0 66 54 107t141 41q58 0 102 -19t68 -54t27 -83h-47q-4 53 -43.5 82.5t-107.5 29.5q-66 0 -106 -28t-40 -74q0 -16 4.5 -28.5t11 -21.5t19.5 -16.5t23.5 -11.5t30 -8.5t31.5 -7t35 -6.5q27 -4 41.5 -7t39.5 -9.5t39 -13t32 -18.5t27.5 -26.5t16 -36t6.5 -47.5
q0 -71 -56.5 -114.5t-150.5 -43.5z" />
    <glyph glyph-name="Scedilla" unicode="&#x15e;" horiz-adv-x="587" 
d="M536 192q0 -87 -61 -141t-158 -59l-13 -48q43 -3 70 -28t27 -61q0 -39 -32 -64.5t-81 -25.5h-64v32h64q32 0 52.5 16.5t20.5 42.5q0 25 -21 41.5t-54 16.5h-18l-6 8l19 70q-105 5 -168 64t-63 153h52q0 -77 54.5 -122.5t143.5 -45.5q81 0 132.5 41.5t51.5 108.5
q0 19 -3.5 35t-12.5 28t-17.5 21.5t-25.5 18t-28.5 13.5t-33.5 11.5t-34.5 9.5t-37.5 8q-31 7 -47.5 11t-44.5 13t-43.5 17.5t-35.5 22.5t-30 30t-17.5 39.5t-7.5 51.5q0 86 62.5 136.5t166.5 50.5q102 0 162.5 -54t60.5 -144h-50q0 68 -48 109t-126 41q-52 0 -92.5 -17
t-63 -48t-22.5 -73q0 -20 6 -37t14.5 -29t25 -22.5t29 -16.5t37 -13.5t38.5 -11t42 -9.5l37.5 -9t35.5 -9.5t36 -11.5t32 -14.5t29.5 -18.5t23.5 -22.5t19.5 -28.5t11 -34.5t4.5 -42.5z" />
    <glyph glyph-name="scedilla" unicode="&#x15f;" horiz-adv-x="508" 
d="M461 147q0 -67 -51 -110t-136 -47l-13 -47q44 -3 71.5 -27.5t27.5 -61.5q0 -26 -13.5 -46.5t-38 -32t-56.5 -11.5h-67v31h62q22 0 39 7.5t26.5 21t9.5 31.5q0 26 -21 43t-55 17h-18l-5 6l18 68q-87 4 -138.5 47.5t-57.5 116.5h48q6 -56 49 -87t114 -31q46 0 81.5 13.5
t55.5 38.5t20 59q0 24 -10 42.5t-23.5 29t-38.5 19.5t-43 12.5t-50 9.5q-27 4 -41 7t-37.5 9t-37 12.5t-30 17.5t-25.5 24t-15 32t-6 42q0 66 54 107t141 41q58 0 102 -19t68 -54t27 -83h-47q-4 53 -43.5 82.5t-107.5 29.5q-66 0 -106 -28t-40 -74q0 -18 5 -32t17.5 -24
t23.5 -16.5t33 -12t35.5 -8l40.5 -7.5q27 -4 41.5 -7t39.5 -9.5t39 -13t32 -18.5t27.5 -26.5t16 -36t6.5 -47.5z" />
    <glyph glyph-name="Scaron" unicode="&#x160;" horiz-adv-x="587" 
d="M391 923h46l-121 -142h-56l-121 142h46l103 -112zM300 -8q-112 0 -181 59t-69 158h52q0 -77 54.5 -122.5t143.5 -45.5q81 0 132.5 41.5t51.5 108.5q0 19 -3.5 35t-12.5 28t-17.5 21.5t-25.5 18t-28.5 13.5t-33.5 11.5t-34.5 9.5t-37.5 8q-31 7 -47.5 11t-44.5 13
t-43.5 17.5t-35.5 22.5t-30 30t-17.5 39.5t-7.5 51.5q0 86 62.5 136.5t166.5 50.5q102 0 162.5 -54t60.5 -144h-50q0 45 -22 79.5t-61 52.5t-91 18t-92.5 -17t-63 -48t-22.5 -73q0 -20 6 -37t14.5 -29t25 -22.5t29 -16.5t37 -13.5t38.5 -11t42 -9.5q32 -7 48.5 -11.5
t45 -13.5t44 -17.5t35.5 -23t30.5 -31.5t18 -41t7.5 -53q0 -91 -66 -145.5t-170 -54.5z" />
    <glyph glyph-name="scaron" unicode="&#x161;" horiz-adv-x="508" 
d="M357 758h45l-121 -152h-57l-120 152h46l103 -120zM254 -11q-92 0 -147.5 44t-61.5 120h48q6 -56 49 -87t114 -31q46 0 81.5 13.5t55.5 38.5t20 59q0 24 -10 42.5t-23.5 29t-38.5 19.5t-43 12.5t-50 9.5q-27 4 -41 7t-37.5 9t-37 12.5t-30 17.5t-25.5 24t-15 32t-6 42
q0 66 54 107t141 41q58 0 102 -19t68 -54t27 -83h-47q-4 53 -43.5 82.5t-107.5 29.5q-66 0 -106 -28t-40 -74q0 -16 4.5 -28.5t11 -21.5t20 -16.5t23.5 -11.5t29.5 -8.5t31.5 -7t35 -6.5q27 -4 41.5 -7t39.5 -9.5t39 -13t32 -18.5t27.5 -26.5t16 -36t6.5 -47.5
q0 -71 -56.5 -114.5t-150.5 -43.5z" />
    <glyph glyph-name="uni0162" unicode="&#x162;" horiz-adv-x="540" 
d="M295 0h-8l-15 -53q43 -3 70.5 -28t27.5 -62q0 -39 -32 -64.5t-81 -25.5h-64v32h63q22 0 38.5 7.5t25.5 21t9 30.5t-9 30t-26.5 21t-38.5 8h-18l-7 8l21 75h-6v652h-223v48h497v-48h-224v-652z" />
    <glyph glyph-name="uni0163" unicode="&#x163;" horiz-adv-x="362" 
d="M251 -53q44 -3 71.5 -28t27.5 -62q0 -26 -13.5 -46.5t-38 -32t-56.5 -11.5h-67v31h62q22 0 39 7.5t26.5 21.5t9.5 31q0 18 -9.5 31.5t-27 21t-39.5 7.5h-18l-5 7l21 78q-62 11 -96 55.5t-34 113.5v323h-90v10l130 130h9v-95h182v-45h-182v-322q0 -61 32.5 -94t93.5 -33
h60v-46h-65h-8z" />
    <glyph glyph-name="Tcaron" unicode="&#x164;" horiz-adv-x="540" 
d="M298 781h-56l-121 142h46l103 -112l103 112h46zM519 700v-48h-224v-652h-50v652h-223v48h497z" />
    <glyph glyph-name="tcaron" unicode="&#x165;" horiz-adv-x="364" 
d="M350 731h62v-54q0 -21 -7 -39.5t-20 -31.5t-29 -19l-4 26q33 16 33 60h-35v58zM153 173q0 -61 32.5 -94t93.5 -33h59v-46h-64q-80 0 -125 46t-45 126v323h-90v10l130 130h9v-95h176v-45h-176v-322z" />
    <glyph glyph-name="Tbar" unicode="&#x166;" horiz-adv-x="540" 
d="M519 652h-224v-272h170v-44h-170v-336h-50v336h-170v44h170v272h-223v48h497v-48z" />
    <glyph glyph-name="tbar" unicode="&#x167;" horiz-adv-x="383" 
d="M298 46h59v-46h-64q-80 0 -125 46t-45 126v97h-92v45h92v181h-91v11l130 129h10v-95h181v-45h-181v-181h182v-45h-182v-96q0 -61 32.5 -94t93.5 -33z" />
    <glyph glyph-name="Utilde" unicode="&#x168;" horiz-adv-x="721" 
d="M434 790q-27 0 -47.5 12t-45.5 40q-13 15 -23 23.5t-20 13t-22 4.5q-16 0 -28.5 -9t-19.5 -26.5t-7 -41.5v-11h-33v13q0 51 23.5 81.5t64.5 30.5q26 0 45.5 -12t43.5 -39q20 -23 35 -33t33 -10q26 0 40.5 21t14.5 56v9h33v-10q0 -51 -23.5 -81.5t-63.5 -30.5zM361 -10
q-76 0 -137 34.5t-95 96t-34 138.5v441h50v-438q0 -98 60.5 -160t155.5 -62q62 0 111 28t76.5 79t27.5 115v438h51v-441q0 -117 -75.5 -193t-190.5 -76z" />
    <glyph glyph-name="utilde" unicode="&#x169;" horiz-adv-x="631" 
d="M389 617q-14 0 -25.5 3t-22.5 10t-21 16t-21 22q-21 23 -35 32.5t-31 9.5q-16 0 -28.5 -9.5t-19.5 -27t-7 -39.5v-11h-32v12q0 50 23.5 80.5t63.5 30.5q26 0 45.5 -12t42.5 -40q20 -22 34.5 -31.5t33.5 -9.5q16 0 28.5 9t19 26.5t6.5 40.5v9h33v-10q0 -50 -23.5 -80.5
t-63.5 -30.5zM315 -11q-105 0 -168 64.5t-63 173.5v313h49v-306q0 -91 49 -144t133.5 -53t133.5 53t49 144v306h49v-313q0 -109 -63 -173.5t-169 -64.5z" />
    <glyph glyph-name="Umacron" unicode="&#x16a;" horiz-adv-x="721" 
d="M205 827v43h313v-43h-313zM361 -10q-76 0 -137 34.5t-95 96t-34 138.5v441h50v-438q0 -98 60.5 -160t155.5 -62q62 0 111 28t76.5 79t27.5 115v438h51v-441q0 -117 -75.5 -193t-190.5 -76z" />
    <glyph glyph-name="umacron" unicode="&#x16b;" horiz-adv-x="631" 
d="M158 667v40h313v-40h-313zM315 -11q-105 0 -168 64.5t-63 173.5v313h49v-306q0 -91 49 -144t133.5 -53t133.5 53t49 144v306h49v-313q0 -109 -63 -173.5t-169 -64.5z" />
    <glyph glyph-name="Ubreve" unicode="&#x16c;" horiz-adv-x="721" 
d="M361 775q-67 0 -107 39t-40 109h40v-2q0 -26 7.5 -47.5t21.5 -35.5t34 -21t44 -7q32 0 56 12.5t37 38t13 60.5v2h41q0 -70 -40 -109t-107 -39zM361 -10q-76 0 -137 34.5t-95 96t-34 138.5v441h50v-438q0 -98 60.5 -160t155.5 -62q62 0 111 28t76.5 79t27.5 115v438h51
v-441q0 -117 -75.5 -193t-190.5 -76z" />
    <glyph glyph-name="ubreve" unicode="&#x16d;" horiz-adv-x="631" 
d="M315 600q-68 0 -108.5 42t-40.5 116h40v-2q0 -58 30 -89.5t80 -31.5t79 31.5t29 89.5v2h41q0 -74 -41 -116t-109 -42zM315 -11q-105 0 -168 64.5t-63 173.5v313h49v-306q0 -91 49 -144t133.5 -53t133.5 53t49 144v306h49v-313q0 -109 -63 -173.5t-169 -64.5z" />
    <glyph glyph-name="Uring" unicode="&#x16e;" horiz-adv-x="721" 
d="M361 763q-50 0 -80.5 30t-30.5 77t30.5 76t80.5 29q49 0 79.5 -29t30.5 -76q0 -24 -8 -43.5t-22.5 -33.5t-35 -22t-44.5 -8zM361 796q33 0 54.5 20.5t21.5 53.5t-21 53t-55 20q-35 0 -56 -20t-21 -53q0 -22 9.5 -39t27 -26t40.5 -9zM361 -10q-76 0 -137 34.5t-95 96
t-34 138.5v441h50v-438q0 -98 60.5 -160t155.5 -62q62 0 111 28t76.5 79t27.5 115v438h51v-441q0 -117 -75.5 -193t-190.5 -76z" />
    <glyph glyph-name="uring" unicode="&#x16f;" horiz-adv-x="631" 
d="M315.5 593q-46.5 0 -75.5 28t-29 72q0 29 13.5 51.5t37 35t53.5 12.5q47 0 76 -27.5t29 -71.5t-29 -72t-75.5 -28zM315 623q32 0 52 19.5t20 50.5t-20 50t-52 19t-51.5 -19t-19.5 -50q0 -21 9 -36.5t25 -24.5t37 -9zM315 -11q-105 0 -168 64.5t-63 173.5v313h49v-306
q0 -91 49 -144t133.5 -53t133.5 53t49 144v306h49v-313q0 -109 -63 -173.5t-169 -64.5z" />
    <glyph glyph-name="Uhungarumlaut" unicode="&#x170;" horiz-adv-x="721" 
d="M253 781l72 142h48l-81 -142h-39zM409 781l82 142h49l-92 -142h-39zM361 -10q-76 0 -137 34.5t-95 96t-34 138.5v441h50v-438q0 -98 60.5 -160t155.5 -62q62 0 111 28t76.5 79t27.5 115v438h51v-441q0 -117 -75.5 -193t-190.5 -76z" />
    <glyph glyph-name="uhungarumlaut" unicode="&#x171;" horiz-adv-x="631" 
d="M208 606l72 152h50l-83 -152h-39zM368 606l80 152h49l-90 -152h-39zM315 -11q-105 0 -168 64.5t-63 173.5v313h49v-306q0 -91 49 -144t133.5 -53t133.5 53t49 144v306h49v-313q0 -109 -63 -173.5t-169 -64.5z" />
    <glyph glyph-name="Uogonek" unicode="&#x172;" horiz-adv-x="721" 
d="M576 700h50v-440q0 -97 -51 -163t-133 -93q-42 -15 -71.5 -50.5t-29.5 -73.5q0 -21 10.5 -37t29.5 -24.5t44 -8.5q24 0 46 9v-32q-28 -12 -60 -12q-50 0 -81.5 26t-31.5 70q0 31 17 63.5t46 56.5h-5q-114 1 -187.5 77t-73.5 192v440h50v-438q0 -48 16 -89.5t44.5 -70
t68.5 -45t86 -16.5q95 0 155.5 61.5t60.5 159.5v438z" />
    <glyph glyph-name="uogonek" unicode="&#x173;" horiz-adv-x="630" 
d="M497 540h49v-313q0 -54 -16 -97t-48 -74.5t-78 -49.5q-42 -16 -69 -51t-27 -72q0 -32 22.5 -51t60.5 -19q23 0 47 8v-32q-28 -12 -59 -12q-48 0 -78.5 26.5t-30.5 69.5q0 34 16 65.5t41 51.5h-18q-100 0 -162.5 66t-62.5 172v312h49v-307q0 -91 49 -143.5t133 -52.5
t133 52.5t49 143.5v307z" />
    <glyph glyph-name="Wcircumflex" unicode="&#x174;" horiz-adv-x="1018" 
d="M507 893l-102 -112h-46l120 142h57l121 -142h-46zM936 700h53l-223 -700h-44l-213 571l-210 -571h-43l-229 700h54l198 -615l218 593h23l222 -593z" />
    <glyph glyph-name="wcircumflex" unicode="&#x175;" horiz-adv-x="848" 
d="M422 726l-104 -120h-45l120 152h57l121 -152h-46zM775 540h50l-189 -540h-39l-174 431l-173 -431h-39l-185 540h51l156 -456l180 441h19l182 -443z" />
    <glyph glyph-name="Ycircumflex" unicode="&#x176;" horiz-adv-x="645" 
d="M323 893l-102 -112h-46l120 142h57l121 -142h-46zM614 700l-266 -423v-277h-51v277l-264 423h56l234 -375l236 375h55z" />
    <glyph glyph-name="ycircumflex" unicode="&#x177;" horiz-adv-x="577" 
d="M293 726l-103 -120h-46l120 152h57l121 -152h-45zM503 540h53l-270 -579q-40 -87 -82 -119.5t-111 -32.5h-45v44h41q56 0 87.5 24t64.5 96l29 59l-248 508h53l221 -453z" />
    <glyph glyph-name="Ydieresis" unicode="&#x178;" horiz-adv-x="645" 
d="M188 809v69h64v-69h-64zM396 809v69h64v-69h-64zM614 700l-266 -423v-277h-51v277l-264 423h56l234 -375l236 375h55z" />
    <glyph glyph-name="Zacute" unicode="&#x179;" horiz-adv-x="546" 
d="M391 923l-94 -142h-41l83 142h52zM105 48h420v-48h-500v11l405 641h-390v48h470v-10z" />
    <glyph glyph-name="zacute" unicode="&#x17a;" horiz-adv-x="464" 
d="M332 758l-86 -152h-41l75 152h52zM104 46h331v-46h-409v10l326 484h-309v46h387v-11z" />
    <glyph glyph-name="Zdotaccent" unicode="&#x17b;" horiz-adv-x="546" 
d="M319 878v-69h-64v69h64zM105 48h420v-48h-500v11l405 641h-390v48h470v-10z" />
    <glyph glyph-name="zdotaccent" unicode="&#x17c;" horiz-adv-x="464" 
d="M274 721v-69h-62v69h62zM104 46h331v-46h-409v10l326 484h-309v46h387v-11z" />
    <glyph glyph-name="Zcaron" unicode="&#x17d;" horiz-adv-x="546" 
d="M315 781h-56l-121 142h46l103 -112l103 112h46zM105 48h420v-48h-500v11l405 641h-390v48h470v-10z" />
    <glyph glyph-name="zcaron" unicode="&#x17e;" horiz-adv-x="464" 
d="M271 606h-57l-120 152h46l103 -120l103 120h46zM104 46h331v-46h-409v10l326 484h-309v46h387v-11z" />
    <glyph glyph-name="longs" unicode="&#x17f;" horiz-adv-x="257" 
d="M94 0v594q0 137 140 137h78v-45h-66q-53 0 -78 -24.5t-25 -76.5v-585h-49z" />
    <glyph glyph-name="florin" unicode="&#x192;" horiz-adv-x="424" 
d="M336 629q-47 0 -79.5 -27t-38.5 -70l-12 -88h164l-6 -40h-163l-68 -475q-6 -39 -25 -67t-49.5 -43t-68.5 -15h-40l7 43h27q42 0 69 24t34 68l67 465h-106l5 40h106l14 93q3 23 12 43t23.5 36t32.5 27.5t40.5 17.5t47.5 6h71l-3 -38h-61z" />
    <glyph glyph-name="AEacute" unicode="&#x1fc;" horiz-adv-x="874" 
d="M590 923l-95 -142h-41l83 142h53zM482 49h344v-49h-395v173h-278l-105 -173h-60l427 700h400v-48h-333v-268h306v-47h-306v-288zM181 220h250v411z" />
    <glyph glyph-name="aeacute" unicode="&#x1fd;" horiz-adv-x="1138" 
d="M668 758l-87 -152h-41l75 152h53zM1092 272q0 -6 -1 -20h-490q3 -62 33 -111t79.5 -76t111.5 -27q65 0 117 31t82 88h52q-37 -81 -102 -124.5t-149 -43.5q-73 0 -132.5 35t-94.5 95l-4 -120h-37l-3 112q-36 -57 -95.5 -89t-131.5 -32q-119 0 -199 80t-80 200t79.5 200
t199.5 80q73 0 132 -32t95 -89l3 112h38l3 -120q35 60 94.5 94.5t132.5 34.5q115 0 191 -79.5t76 -198.5zM825 504q-60 0 -109 -26.5t-79 -73.5t-36 -106h443q-4 60 -34 107t-78.5 73t-106.5 26zM327 37q64 0 116.5 30.5t82 84t29.5 118.5q0 101 -64.5 167t-163.5 66
t-164 -66.5t-65 -166.5q0 -66 29.5 -119.5t82 -83.5t117.5 -30z" />
    <glyph glyph-name="Oslashacute" unicode="&#x1fe;" horiz-adv-x="834" 
d="M520 923l-94 -142h-41l82 142h53zM629 645q71 -48 112 -125.5t41 -171.5q0 -153 -103 -254.5t-258 -101.5q-88 0 -163 36l-54 -90h-55l67 111q-76 47 -120 126t-44 175q0 153 104 255.5t259 102.5q94 0 173 -41l57 95h55zM104 350q0 -82 37 -150t101 -109l321 534
q-68 34 -148 34q-133 0 -222 -88.5t-89 -220.5zM420 42q133 0 221.5 87.5t88.5 218.5q0 80 -34 146t-93 108l-319 -532q64 -28 136 -28z" />
    <glyph glyph-name="oslashacute" unicode="&#x1ff;" horiz-adv-x="657" 
d="M418 758l-87 -152h-41l75 152h53zM476 510q41 -24 70.5 -60t46 -82.5t16.5 -97.5q0 -119 -79 -198t-197 -79q-69 0 -126 27l-45 -81h-45l54 98q-58 37 -91 98t-33 136q0 119 79.5 198t199.5 79q60 0 113 -22l41 75h45zM95 271q0 -62 26 -112.5t73 -81.5l223 408
q-44 18 -91 18q-100 0 -165.5 -66t-65.5 -166zM333 38q99 0 164 66t65 166q0 65 -29 117t-80 82l-224 -408q49 -23 104 -23z" />
    <glyph glyph-name="uni0218" unicode="&#x218;" horiz-adv-x="587" 
d="M300 -8q-112 0 -181 59t-69 158h52q0 -77 54.5 -122.5t143.5 -45.5q81 0 132.5 41.5t51.5 108.5q0 19 -3.5 35t-12.5 28t-17.5 21.5t-25.5 18t-28.5 13.5t-33.5 11.5t-34.5 9.5t-37.5 8q-31 7 -47.5 11t-44.5 13t-43.5 17.5t-35.5 22.5t-30 30t-17.5 39.5t-7.5 51.5
q0 86 62.5 136.5t166.5 50.5q102 0 162.5 -54t60.5 -144h-50q0 68 -48 109t-126 41q-52 0 -92.5 -17t-63 -48t-22.5 -73q0 -20 6 -37t14.5 -29t25 -22.5t29 -16.5t37 -13.5t38.5 -11t42 -9.5q32 -7 48.5 -11.5t45 -13.5t44 -17.5t35.5 -23t30.5 -31.5t18 -41t7.5 -53
q0 -91 -66 -145.5t-170 -54.5zM280 -211l-4 26q32 16 32 59h-34v59h62v-54q0 -21 -7.5 -40t-20 -31.5t-28.5 -18.5z" />
    <glyph glyph-name="uni0219" unicode="&#x219;" horiz-adv-x="508" 
d="M254 -11q-92 0 -147.5 44t-61.5 120h48q6 -56 49 -87t113.5 -31t114 30t43.5 81q0 24 -10 42.5t-23.5 29t-38.5 19.5t-43 12.5t-50 9.5q-27 4 -41 7t-37.5 9t-37 12.5t-30 17.5t-25.5 24t-15 32t-6 42q0 66 54 107t141 41q58 0 102 -19t68 -54t27 -83h-47q-2 26 -13 47
t-30 35t-46.5 22t-61.5 8q-66 0 -106 -28t-40 -74q0 -16 4.5 -28.5t11 -21.5t19.5 -16.5t23.5 -11.5t30 -9t31.5 -7t35 -6q27 -4 41.5 -7t39.5 -9.5t39 -13t32 -18.5t27.5 -26.5t16 -36t6.5 -47.5q0 -71 -56.5 -114.5t-150.5 -43.5zM237 -211v30q30 13 30 54h-32v59h61v-54
q0 -31 -16 -56t-43 -33z" />
    <glyph glyph-name="uni021A" unicode="&#x21a;" horiz-adv-x="540" 
d="M22 700h497v-48h-224v-652h-50v652h-223v48zM239 -123v58h62v-54q0 -32 -15.5 -56.5t-40.5 -33.5l-4 26q32 16 32 60h-34z" />
    <glyph glyph-name="uni021B" unicode="&#x21b;" horiz-adv-x="383" 
d="M296 46h59v-46h-65q-79 0 -124.5 46t-45.5 126v323h-90v11l130 129h9v-95h182v-45h-182v-322q0 -61 33 -94t94 -33zM231 -123v58h61v-54q0 -31 -16 -55.5t-43 -33.5v30q30 13 30 55h-32z" />
    <glyph glyph-name="circumflex" unicode="&#x2c6;" horiz-adv-x="600" 
d="M466 606h-46l-104 120l-103 -120h-45l120 152h56z" />
    <glyph glyph-name="caron" unicode="&#x2c7;" horiz-adv-x="600" 
d="M389 758h46l-121 -152h-57l-120 152h46l103 -120z" />
    <glyph glyph-name="breve" unicode="&#x2d8;" horiz-adv-x="600" 
d="M271 600q-68 0 -108.5 42t-40.5 116h40v-2q0 -58 29.5 -89.5t79.5 -31.5t79 31.5t29 89.5v2h41q0 -74 -40.5 -116t-108.5 -42z" />
    <glyph glyph-name="dotaccent" unicode="&#x2d9;" horiz-adv-x="263" 
d="M101 652v69h61v-69h-61z" />
    <glyph glyph-name="ring" unicode="&#x2da;" horiz-adv-x="410" 
d="M205 593q-46 0 -75 28t-29 72q0 22 7.5 40.5t21 31.5t33 20t42.5 7q46 0 75 -27.5t29 -71.5t-29 -72t-75 -28zM205 623q32 0 52 19.5t20 50.5t-20 50t-52 19q-21 0 -37.5 -8.5t-25.5 -24.5t-9 -36q0 -31 20 -50.5t52 -19.5z" />
    <glyph glyph-name="ogonek" unicode="&#x2db;" horiz-adv-x="433" 
d="M227 -225q-49 0 -79.5 26.5t-30.5 69.5q0 49 40.5 94.5t103.5 67.5l3 -28q-48 -16 -78.5 -51.5t-30.5 -73.5q0 -31 22.5 -50.5t60.5 -19.5q24 0 46 9v-33q-28 -11 -57 -11z" />
    <glyph glyph-name="tilde" unicode="&#x2dc;" horiz-adv-x="600" 
d="M375 617q-14 0 -26 3t-23 10t-20.5 16t-21.5 22q-21 23 -35 32.5t-30 9.5t-28.5 -9.5t-19.5 -27t-7 -39.5v-11h-32v12q0 50 23 80.5t63 30.5q27 0 46.5 -12t42.5 -40q20 -22 34.5 -31.5t32.5 -9.5q25 0 40 20.5t15 55.5v9h32v-10q0 -50 -23.5 -80.5t-62.5 -30.5z" />
    <glyph glyph-name="hungarumlaut" unicode="&#x2dd;" horiz-adv-x="487" 
d="M97 606l73 152h50l-83 -152h-40zM258 606l79 152h49l-89 -152h-39z" />
    <glyph glyph-name="gravecomb" unicode="&#x300;" 
d="M-95 606h-41l-87 152h53z" />
    <glyph glyph-name="acutecomb" unicode="&#x301;" 
d="M-227 606l74 152h53l-87 -152h-40z" />
    <glyph glyph-name="uni0302" unicode="&#x302;" 
d="M-167 606h-46l-103 120l-103 -120h-46l120 152h57z" />
    <glyph glyph-name="tildecomb" unicode="&#x303;" 
d="M-225 617q-18 0 -34 6t-28.5 16.5t-28.5 28.5q-14 15 -23.5 23.5t-20 13.5t-21.5 5q-24 0 -39.5 -21t-15.5 -55v-11h-32v12q0 50 23 80.5t63 30.5q27 0 46.5 -12t42.5 -40q20 -22 34.5 -31.5t32.5 -9.5q25 0 40 20.5t15 55.5v9h32v-10q0 -50 -23.5 -80.5t-62.5 -30.5z
" />
    <glyph glyph-name="uni0304" unicode="&#x304;" 
d="M-410 667v40h313v-40h-313z" />
    <glyph glyph-name="uni0306" unicode="&#x306;" 
d="M-268 600q-68 0 -108.5 42t-40.5 116h40v-2q0 -58 29.5 -89.5t79.5 -31.5t79 31.5t29 89.5v2h41q0 -74 -40.5 -116t-108.5 -42z" />
    <glyph glyph-name="uni0307" unicode="&#x307;" 
d="M-162 652v69h62v-69h-62z" />
    <glyph glyph-name="uni0308" unicode="&#x308;" 
d="M-339 652v69h65v-69h-65zM-162 652v69h64v-69h-64z" />
    <glyph glyph-name="uni030A" unicode="&#x30a;" 
d="M-205 593q-46 0 -75 28t-29 72q0 29 13 51.5t37 35t54 12.5q46 0 75 -27.5t29 -71.5t-29 -72t-75 -28zM-205 623q32 0 52 19.5t20 50.5t-20 50t-52 19q-21 0 -37.5 -8.5t-25.5 -24.5t-9 -36q0 -31 20 -50.5t52 -19.5z" />
    <glyph glyph-name="uni030B" unicode="&#x30b;" 
d="M-402 606l72 152h51l-83 -152h-40zM-241 606l79 152h49l-89 -152h-39z" />
    <glyph glyph-name="uni030C" unicode="&#x30c;" 
d="M-211 758h46l-121 -152h-57l-120 152h46l103 -120z" />
    <glyph glyph-name="uni0312" unicode="&#x312;" 
d="M-321 707h34v-59h-62v54q0 33 15.5 57t41.5 33l3 -25q-33 -16 -32 -60z" />
    <glyph glyph-name="uni0326" unicode="&#x326;" 
d="M-98 -208v30q30 13 30 55h-32v58h62v-54q0 -31 -16 -55.5t-44 -33.5z" />
    <glyph glyph-name="uni0327" unicode="&#x327;" 
d="M-208 -53q44 -3 71.5 -28t27.5 -62q0 -26 -13.5 -46.5t-38 -32t-56.5 -11.5h-67v31h62q17 0 30.5 4.5t23.5 12.5t15.5 19t5.5 24q0 27 -21 43.5t-55 16.5h-18l-5 7l24 90h34z" />
    <glyph glyph-name="uni0328" unicode="&#x328;" 
d="M-206 -225q-49 0 -79.5 26.5t-30.5 69.5q0 49 40.5 94.5t103.5 67.5l3 -28q-48 -16 -78.5 -51.5t-30.5 -73.5q0 -31 22.5 -50.5t60.5 -19.5q24 0 46 9v-33q-28 -11 -57 -11z" />
    <glyph glyph-name="uni0335" unicode="&#x335;" 
d="M-491 624v42h347v-42h-347z" />
    <glyph glyph-name="uni0337" unicode="&#x337;" 
d="M-394 255v47l272 167v-47z" />
    <glyph glyph-name="tonos" unicode="&#x384;" horiz-adv-x="327" 
d="M100 606l75 152h52l-86 -152h-41z" />
    <glyph glyph-name="dieresistonos" unicode="&#x385;" horiz-adv-x="423" 
d="M133 606l55 152h48l-63 -152h-40zM41 655v61h54v-61h-54zM282 655v61h53v-61h-53z" />
    <glyph glyph-name="Alphatonos" unicode="&#x386;" horiz-adv-x="686" 
d="M608 0l-81 191h-370l-81 -191h-54l294 700h46l301 -700h-55zM95 558l82 142h54l-95 -142h-41zM340 629l-164 -391h331z" />
    <glyph glyph-name="Epsilontonos" unicode="&#x388;" horiz-adv-x="545" 
d="M-76 558l82 142h53l-94 -142h-41zM154 49h344v-49h-394v700h383v-48h-333v-265h307v-47h-307v-291z" />
    <glyph glyph-name="Etatonos" unicode="&#x389;" horiz-adv-x="728" 
d="M-77 558l82 142h53l-94 -142h-41zM574 700h51v-700h-51v339h-420v-339h-50v700h50v-312h420v312z" />
    <glyph glyph-name="Iotatonos" unicode="&#x38a;" horiz-adv-x="258" 
d="M-78 558l82 142h53l-94 -142h-41zM104 0v700h50v-700h-50z" />
    <glyph glyph-name="Omicrontonos" unicode="&#x38c;" horiz-adv-x="831" 
d="M415.5 -11q-157.5 0 -260 103t-102.5 257q0 156 102.5 259t260 103t260 -103t102.5 -259q0 -155 -102.5 -257.5t-260 -102.5zM-22 558l82 142h53l-94 -142h-41zM416 39q89 0 160 40t111 111.5t40 158.5q0 89 -40 160t-111 111.5t-160 40.5q-135 0 -223.5 -89t-88.5 -223
q0 -133 88.5 -221.5t223.5 -88.5z" />
    <glyph glyph-name="Upsilontonos" unicode="&#x38e;" horiz-adv-x="645" 
d="M559 700h55l-266 -423v-277h-51v277l-264 422l-93 -141h-41l82 142h108l234 -375z" />
    <glyph glyph-name="Omegatonos" unicode="&#x38f;" horiz-adv-x="852" 
d="M608 48h184v-48h-305v47q55 13 102 42.5t79.5 70t50.5 92t18 106.5q0 128 -90 215.5t-221 87.5t-220.5 -87.5t-89.5 -215.5q0 -112 68.5 -198t179.5 -113v-47h-305v48h185q-84 49 -132 131t-48 183q0 97 47.5 177t131 126t183.5 46t183.5 -46t131 -126t47.5 -177
q0 -101 -48 -183t-132 -131zM68 700h53l-94 -142h-41z" />
    <glyph glyph-name="iotadieresistonos" unicode="&#x390;" horiz-adv-x="337" 
d="M89 606l40 152h44l-49 -152h-35zM-5 656v60h53v-60h-53zM215 656v60h54v-60h-54zM259 -3q-81 0 -126.5 45t-45.5 125v373h49v-369q0 -60 34 -94t95 -34h60v-46h-66z" />
    <glyph glyph-name="Alpha" unicode="&#x391;" horiz-adv-x="686" 
d="M608 0l-81 191h-370l-81 -191h-54l294 700h46l301 -700h-55zM340 629l-164 -391h331z" />
    <glyph glyph-name="Beta" unicode="&#x392;" horiz-adv-x="644" 
d="M459 367q55 -18 88.5 -66.5t33.5 -109.5q0 -81 -58 -136t-149 -55h-270v700h269q82 0 135 -49.5t53 -122.5q0 -53 -28 -97t-74 -64zM377 651h-223v-260h226q55 0 92.5 38.5t37.5 91.5q0 55 -38.5 92.5t-94.5 37.5zM379 50q64 0 107.5 42t43.5 104q0 61 -43 103t-105 42
h-228v-291h225z" />
    <glyph glyph-name="Gamma" unicode="&#x393;" horiz-adv-x="488" 
d="M467 700v-48h-313v-652h-50v700h363z" />
    <glyph glyph-name="uni0394" unicode="&#x394;" horiz-adv-x="683" 
d="M361 700l302 -700h-639l292 700h45zM339 628l-239 -580h484z" />
    <glyph glyph-name="Epsilon" unicode="&#x395;" horiz-adv-x="545" 
d="M154 49h344v-49h-394v700h383v-48h-333v-265h307v-47h-307v-291z" />
    <glyph glyph-name="Zeta" unicode="&#x396;" horiz-adv-x="546" 
d="M105 48h420v-48h-500v11l405 641h-390v48h470v-10z" />
    <glyph glyph-name="Eta" unicode="&#x397;" horiz-adv-x="728" 
d="M574 700h51v-700h-51v339h-420v-339h-50v700h50v-312h420v312z" />
    <glyph glyph-name="Theta" unicode="&#x398;" horiz-adv-x="831" 
d="M416 -11q-157 0 -260 103t-103 257q0 155 103 258.5t260 103.5t259.5 -103t102.5 -259q0 -155 -102.5 -257.5t-259.5 -102.5zM416 39q134 0 222.5 88.5t88.5 221.5q0 134 -88.5 223t-222.5 89q-89 0 -160.5 -40.5t-111.5 -112t-40 -159.5q0 -87 39 -158t110.5 -111.5
t162.5 -40.5zM194 326v49h439v-49h-439z" />
    <glyph glyph-name="Iota" unicode="&#x399;" horiz-adv-x="258" 
d="M104 0v700h50v-700h-50z" />
    <glyph glyph-name="Kappa" unicode="&#x39a;" horiz-adv-x="614" 
d="M547 0l-282 340h-111v-340h-50v700h50v-313h111l257 313h65l-277 -336l302 -364h-65z" />
    <glyph glyph-name="Lambda" unicode="&#x39b;" horiz-adv-x="657" 
d="M633 0h-55l-250 625l-248 -625h-53l278 700h45z" />
    <glyph glyph-name="Mu" unicode="&#x39c;" horiz-adv-x="947" 
d="M897 0h-51l-105 608l-260 -581h-16l-259 580l-106 -607h-51l122 700h47l255 -578l256 578h48z" />
    <glyph glyph-name="Nu" unicode="&#x39d;" horiz-adv-x="746" 
d="M593 700h50v-700h-43l-447 611v-611h-49v700h45l444 -608v608z" />
    <glyph glyph-name="Xi" unicode="&#x39e;" horiz-adv-x="552" 
d="M54 651v49h444v-49h-444zM93 340v49h366v-49h-366zM46 0v50h459v-50h-459z" />
    <glyph glyph-name="Omicron" unicode="&#x39f;" horiz-adv-x="831" 
d="M415.5 -11q-157.5 0 -260 103t-102.5 257q0 156 102.5 259t260 103t260 -103t102.5 -259q0 -155 -102.5 -257.5t-260 -102.5zM416 39q89 0 160 40t111 111.5t40 158.5q0 89 -40 160t-111 111.5t-160 40.5q-135 0 -223.5 -89t-88.5 -223q0 -133 88.5 -221.5t223.5 -88.5z
" />
    <glyph glyph-name="Pi" unicode="&#x3a0;" horiz-adv-x="697" 
d="M104 700h489v-700h-51v652h-388v-652h-50v700z" />
    <glyph glyph-name="Rho" unicode="&#x3a1;" horiz-adv-x="602" 
d="M344 700q96 0 160 -61.5t64 -153.5t-64 -153.5t-160 -61.5h-190v-270h-50v700h240zM342 319q75 0 125 47.5t50 118.5t-50 118.5t-125 47.5h-188v-332h188z" />
    <glyph glyph-name="Sigma" unicode="&#x3a3;" horiz-adv-x="552" 
d="M111 48h410v-48h-496v16l251 339l-245 329v16h481v-48h-395l218 -292v-11z" />
    <glyph glyph-name="Tau" unicode="&#x3a4;" horiz-adv-x="540" 
d="M519 700v-48h-224v-652h-50v652h-223v48h497z" />
    <glyph glyph-name="Upsilon" unicode="&#x3a5;" horiz-adv-x="645" 
d="M614 700l-266 -423v-277h-51v277l-264 423h56l234 -375l236 375h55z" />
    <glyph glyph-name="Phi" unicode="&#x3a6;" horiz-adv-x="796" 
d="M424 676q142 -3 232.5 -97t90.5 -229q0 -88 -40 -161t-114.5 -117t-168.5 -46v-84h-51v84q-142 4 -233 97t-91 227q0 88 40.5 161.5t115 118t168.5 46.5v78h51v-78zM101 350q0 -116 77 -195.5t196 -81.5v557q-118 -3 -195.5 -83.5t-77.5 -196.5zM423 73q119 2 195.5 81
t76.5 196q0 57 -20 108.5t-55.5 88.5t-86.5 59t-110 24v-557z" />
    <glyph glyph-name="Chi" unicode="&#x3a7;" horiz-adv-x="586" 
d="M575 0h-58l-224 326l-224 -326h-58l251 366l-230 334h57l204 -296l204 296h57l-229 -336z" />
    <glyph glyph-name="Psi" unicode="&#x3a8;" horiz-adv-x="786" 
d="M683 699h51v-225q0 -132 -82 -214t-215 -82h-18v-178h-51v178h-18q-133 0 -215 82t-82 214v225h50v-220q0 -113 68 -181t179 -68h19v470h49v-470h19q111 0 178.5 68t67.5 181v220z" />
    <glyph glyph-name="uni03A9" unicode="&#x3a9;" horiz-adv-x="852" 
d="M608 48h184v-48h-305v47q55 13 102 42.5t79.5 70t50.5 92t18 106.5q0 128 -90 215.5t-221 87.5t-220.5 -87.5t-89.5 -215.5q0 -112 68.5 -198t179.5 -113v-47h-305v48h185q-84 49 -132 131t-48 183q0 97 47.5 177t131 126t183.5 46t183.5 -46t131 -126t47.5 -177
q0 -101 -48 -183t-132 -131z" />
    <glyph glyph-name="Iotadieresis" unicode="&#x3aa;" horiz-adv-x="258" 
d="M28 809v69h60v-69h-60zM170 809v69h59v-69h-59zM104 0v700h50v-700h-50z" />
    <glyph glyph-name="Upsilondieresis" unicode="&#x3ab;" horiz-adv-x="645" 
d="M188 809v69h64v-69h-64zM396 809v69h64v-69h-64zM614 700l-266 -423v-277h-51v277l-264 423h56l234 -375l236 375h55z" />
    <glyph glyph-name="alphatonos" unicode="&#x3ac;" horiz-adv-x="701" 
d="M434 757l-87 -152h-41l75 152h53zM567 540h40v-540h-42l-5 117q-36 -60 -97.5 -94t-137.5 -34q-119 0 -198 80.5t-79 200.5t79 200.5t198 80.5q76 0 137.5 -34.5t97.5 -94.5zM328 37q65 0 117.5 30t82 83.5t29.5 119.5q0 101 -65 167t-164 66q-65 0 -117.5 -30.5
t-82.5 -84t-30 -118.5q0 -100 65.5 -166.5t164.5 -66.5z" />
    <glyph glyph-name="epsilontonos" unicode="&#x3ad;" horiz-adv-x="481" 
d="M334 757l-86 -152h-41l74 152h53zM403 131h46q-11 -65 -64 -103.5t-129 -38.5q-88 0 -144 46t-56 117q0 47 24 82.5t65 52.5q-36 16 -56.5 46.5t-20.5 70.5q0 63 52.5 105t130.5 42q73 0 123.5 -36.5t60.5 -96.5h-46q-10 42 -47 67t-89 25q-60 0 -99 -30.5t-39 -78.5
q0 -42 30 -69.5t79 -27.5h92v-38h-93q-52 0 -85.5 -32.5t-33.5 -78.5q0 -53 42.5 -87t109.5 -34q57 0 96.5 26.5t50.5 70.5z" />
    <glyph glyph-name="etatonos" unicode="&#x3ae;" horiz-adv-x="641" 
d="M429 757l-87 -152h-41l75 152h53zM346 551q97 0 153.5 -62t56.5 -168v-512h-49v502q0 92 -45.5 143.5t-126.5 51.5q-79 0 -135.5 -58.5t-56.5 -139.5v-308h-49v540h37l10 -109q30 55 84.5 87.5t120.5 32.5z" />
    <glyph glyph-name="iotatonos" unicode="&#x3af;" horiz-adv-x="337" 
d="M84 605l75 152h53l-87 -152h-41zM259 -3q-81 0 -126.5 45t-45.5 125v373h49v-369q0 -60 34 -94t95 -34h60v-46h-66z" />
    <glyph glyph-name="upsilondieresistonos" unicode="&#x3b0;" horiz-adv-x="631" 
d="M265 606l55 152h48l-63 -152h-40zM173 655v61h54v-61h-54zM413 655v61h54v-61h-54zM315 -11q-105 0 -168 64.5t-63 173.5v313h49v-306q0 -91 49 -144t133.5 -53t133.5 53t49 144v306h49v-313q0 -109 -63 -173.5t-169 -64.5z" />
    <glyph glyph-name="alpha" unicode="&#x3b1;" horiz-adv-x="701" 
d="M567 540h40v-540h-42l-5 117q-36 -60 -97.5 -94t-137.5 -34q-119 0 -198 80.5t-79 200.5t79 200.5t198 80.5q76 0 137.5 -34.5t97.5 -94.5zM328 37q65 0 117.5 30t82 83.5t29.5 119.5q0 101 -65 167t-164 66t-164.5 -66.5t-65.5 -166.5t65.5 -166.5t164.5 -66.5z" />
    <glyph glyph-name="beta" unicode="&#x3b2;" horiz-adv-x="622" 
d="M445 384q40 -12 68.5 -37.5t44 -63t15.5 -83.5q0 -92 -67 -151.5t-172 -59.5q-116 0 -191 72v-247h-49v645q0 137 61 210t176 73q97 0 158 -53.5t61 -138.5q0 -59 -28 -103t-77 -63zM330 37q89 0 142 45.5t53 121.5q0 69 -45.5 111.5t-119.5 42.5h-121v45h119
q65 0 106 39t41 102q0 68 -47.5 110.5t-125.5 42.5q-93 0 -141 -61t-48 -177v-342q67 -80 187 -80z" />
    <glyph glyph-name="gamma" unicode="&#x3b3;" horiz-adv-x="561" 
d="M538 540l-229 -513v-217h-48v217l-238 513h52l209 -452l202 452h52z" />
    <glyph glyph-name="delta" unicode="&#x3b4;" horiz-adv-x="608" 
d="M173 661q78 -32 146 -75t123 -96.5t86.5 -118t31.5 -131.5q0 -105 -72.5 -178t-183.5 -73q-72 0 -131 32.5t-92.5 90.5t-33.5 129q0 104 72 176t175 72q66 0 117 -31q-123 127 -341 201v47h461v-45h-358zM304 35q89 0 149 59t60 147t-60 147t-149 59q-90 0 -149.5 -59
t-59.5 -147t59.5 -147t149.5 -59z" />
    <glyph glyph-name="epsilon" unicode="&#x3b5;" horiz-adv-x="481" 
d="M403 131h46q-7 -43 -33.5 -75t-68 -49.5t-91.5 -17.5q-88 0 -144 46t-56 117q0 47 24 82.5t65 52.5q-36 16 -56.5 46.5t-20.5 70.5q0 63 52.5 105t130.5 42q73 0 123.5 -36.5t60.5 -96.5h-46q-10 42 -47 67t-89 25q-60 0 -99 -30.5t-39 -78.5q0 -42 30 -69.5t79 -27.5h92
v-38h-93q-52 0 -85.5 -32.5t-33.5 -78.5q0 -53 42.5 -87t109.5 -34q57 0 96.5 26.5t50.5 70.5z" />
    <glyph glyph-name="zeta" unicode="&#x3b6;" horiz-adv-x="498" 
d="M493 701q-106 -85 -173.5 -144.5t-121.5 -119t-77.5 -110t-23.5 -100.5q0 -42 20.5 -74t53.5 -51t73 -34.5t80 -29.5t73.5 -31t54 -45t20.5 -66q0 -42 -13 -87h-48q12 40 12 78q0 26 -16 47t-42.5 34t-60.5 26.5t-69 24.5t-69 29t-60.5 39.5t-42.5 56t-16 78.5
q0 53 20.5 103.5t68 107.5t108.5 114t158 137h-327v47h418v-30z" />
    <glyph glyph-name="eta" unicode="&#x3b7;" horiz-adv-x="641" 
d="M346 551q97 0 153.5 -62t56.5 -168v-512h-49v502q0 92 -45.5 143.5t-126.5 51.5q-79 0 -135.5 -58.5t-56.5 -139.5v-308h-49v540h37l10 -109q30 55 84.5 87.5t120.5 32.5z" />
    <glyph glyph-name="theta" unicode="&#x3b8;" horiz-adv-x="694" 
d="M347 739q67 0 121.5 -28.5t91 -78.5t56 -118.5t19.5 -149.5q0 -108 -33.5 -192.5t-99.5 -133.5t-155 -49t-155 49.5t-99.5 133.5t-33.5 192q0 80 19.5 148.5t55.5 119t91 79t122 28.5zM347 691q-105 0 -169 -82t-70 -221h478q-6 139 -70 221t-169 82zM347 37
q104 0 169 82.5t70 221.5h-478q6 -139 70 -221.5t169 -82.5z" />
    <glyph glyph-name="iota" unicode="&#x3b9;" horiz-adv-x="337" 
d="M259 -3q-81 0 -126.5 45t-45.5 125v373h49v-369q0 -60 34 -94t95 -34h60v-46h-66z" />
    <glyph glyph-name="kappa" unicode="&#x3ba;" horiz-adv-x="517" 
d="M453 0l-216 259h-94v-259h-49v540h49v-235h95l197 235h60l-215 -258l234 -282h-61z" />
    <glyph glyph-name="lambda" unicode="&#x3bb;" horiz-adv-x="559" 
d="M528 0h-53l-188 456l-218 -456h-54l247 515l-23 54q-23 55 -47.5 75.5t-67.5 20.5h-28v46h33q57 0 91.5 -28.5t63.5 -99.5z" />
    <glyph glyph-name="uni03BC" unicode="&#x3bc;" horiz-adv-x="645" 
d="M501 540h49v-540h-35l-9 116q-28 -55 -83.5 -90.5t-117.5 -35.5q-56 0 -99 21t-64 61v-263h-48v731h49v-317q0 -88 44 -137t123 -49q50 0 94.5 26.5t70.5 71t26 95.5v310z" />
    <glyph glyph-name="nu" unicode="&#x3bd;" horiz-adv-x="567" 
d="M492 540h51l-237 -540h-43l-241 540h51l212 -474z" />
    <glyph glyph-name="xi" unicode="&#x3be;" horiz-adv-x="512" 
d="M298 29q27 -8 41.5 -13t37 -14t35 -18t25.5 -22t18.5 -29t5.5 -36q0 -43 -14 -88h-49q12 38 12 79q0 35 -32 55.5t-106 43.5q-43 13 -72.5 25t-59.5 30t-48 40t-29.5 53t-11.5 70q0 66 34 116.5t90 69.5q-49 18 -78 60.5t-29 97.5q0 83 60.5 136t154.5 53q86 0 147 -49.5
t71 -129.5h-48q-11 60 -58 97.5t-112 37.5q-48 0 -85.5 -18.5t-58 -51.5t-20.5 -76q0 -58 38.5 -96.5t97.5 -38.5h115v-44h-116q-64 0 -107 -46t-43 -113q0 -26 6.5 -47.5t15 -36.5t26 -29t30 -22t38 -18.5t38 -14.5t40.5 -13z" />
    <glyph glyph-name="omicron" unicode="&#x3bf;" horiz-adv-x="661" 
d="M331 -11q-121 0 -202 80t-81 201t80.5 201t202 80t202 -80t80.5 -201t-80.5 -201t-201.5 -80zM331 37q66 0 119 30t83 83.5t30 119.5q0 101 -66 167t-166 66q-67 0 -120 -30t-83 -83.5t-30 -119.5q0 -100 66 -166.5t167 -66.5z" />
    <glyph glyph-name="pi" unicode="&#x3c0;" horiz-adv-x="630" 
d="M94 540h442v-540h-49v495h-344v-495h-49v540z" />
    <glyph glyph-name="rho" unicode="&#x3c1;" horiz-adv-x="676" 
d="M353 550q118 0 196 -80t78 -200t-78 -200.5t-194 -80.5q-74 0 -136 37t-92 96v-313h-49v458q0 123 78 203t197 80zM352.5 37q97.5 0 161.5 66t64 167q0 100 -64 166.5t-161 66.5q-98 0 -162 -66.5t-64 -166.5q0 -101 64 -167t161.5 -66z" />
    <glyph glyph-name="uni03C2" unicode="&#x3c2;" horiz-adv-x="602" 
d="M474 -191q12 42 12 79q0 17 -5 31t-18 25t-24.5 18.5t-34.5 15.5t-37.5 12l-43.5 12q-50 13 -77.5 22t-71 31.5t-66.5 49t-41 73.5t-18 107q0 75 36 136t100 95t143 34q90 0 159.5 -48t96.5 -130h-49q-28 62 -83 96t-125 34q-64 0 -116.5 -28t-82 -77.5t-29.5 -111.5
q0 -28 5 -53t12 -44t21 -36t25.5 -28.5t32 -23t34 -18t39 -14.5t38.5 -12t40 -11q28 -7 41 -11t37.5 -12t36.5 -14.5t29 -18t24.5 -24t14 -30t6.5 -38.5q0 -42 -14 -88h-47z" />
    <glyph glyph-name="sigma" unicode="&#x3c3;" horiz-adv-x="691" 
d="M673 540v-45h-207q64 -31 101.5 -92.5t37.5 -137.5q0 -119 -78.5 -197.5t-198.5 -78.5q-121 0 -200.5 78.5t-79.5 197.5t80 197t201 78h344zM556 265q0 99 -64.5 163.5t-164.5 64.5t-164.5 -64.5t-64.5 -163.5q0 -65 29.5 -117.5t81.5 -81.5t118 -29q100 0 164.5 64.5
t64.5 163.5z" />
    <glyph glyph-name="tau" unicode="&#x3c4;" horiz-adv-x="479" 
d="M442 495h-193v-324q0 -60 34 -94t95 -34h60v-46h-67q-53 0 -91.5 20.5t-59 58.5t-20.5 91v328h-185v45h427v-45z" />
    <glyph glyph-name="upsilon" unicode="&#x3c5;" horiz-adv-x="631" 
d="M315 -11q-105 0 -168 64.5t-63 173.5v313h49v-306q0 -91 49 -144t133.5 -53t133.5 53t49 144v306h49v-313q0 -109 -63 -173.5t-169 -64.5z" />
    <glyph glyph-name="phi" unicode="&#x3c6;" horiz-adv-x="722" 
d="M674 267q0 -120 -80.5 -197.5t-207.5 -79.5v-181h-48v181q-125 2 -207.5 81t-82.5 196q0 93 53 165t144 102l15 -42q-77 -27 -120.5 -87t-43.5 -138q0 -98 68.5 -163t173.5 -67v503h41q131 0 213 -76t82 -197zM386 37q106 2 173 66.5t67 163.5q0 65 -30.5 116t-85.5 80
t-125 30v-400z" />
    <glyph glyph-name="chi" unicode="&#x3c7;" horiz-adv-x="495" 
d="M485 0h-56l-182 250l-181 -250h-55l207 282l-188 258h56l162 -223l163 223h55l-189 -256z" />
    <glyph glyph-name="psi" unicode="&#x3c8;" horiz-adv-x="774" 
d="M644 540h50v-280q0 -117 -73.5 -193.5t-186.5 -76.5h-22v-181h-51v181h-21q-113 0 -186.5 77t-73.5 193v280h49v-278q0 -95 60.5 -158.5t152.5 -63.5h21v499h48v-499h21q92 0 152 63t60 159v278z" />
    <glyph glyph-name="omega" unicode="&#x3c9;" horiz-adv-x="892" 
d="M772 540q60 -139 60 -276q0 -123 -51.5 -198.5t-146.5 -75.5q-68 0 -119 34.5t-69 90.5q-18 -56 -69 -90.5t-119 -34.5q-96 0 -147 75t-51 198q0 136 59 277h52q-62 -137 -62 -272q0 -109 41.5 -170t115.5 -61q67 0 112 45t45 112v185h46v-185q0 -67 45 -112t111 -45
q74 0 115.5 61.5t41.5 170.5q0 135 -61 271h51z" />
    <glyph glyph-name="iotadieresis" unicode="&#x3ca;" horiz-adv-x="337" 
d="M-9 652v69h65v-69h-65zM168 652v69h64v-69h-64zM259 -3q-81 0 -126.5 45t-45.5 125v373h49v-369q0 -60 34 -94t95 -34h60v-46h-66z" />
    <glyph glyph-name="upsilondieresis" unicode="&#x3cb;" horiz-adv-x="631" 
d="M195 652v69h64v-69h-64zM372 652v69h64v-69h-64zM315 -11q-105 0 -168 64.5t-63 173.5v313h49v-306q0 -91 49 -144t133.5 -53t133.5 53t49 144v306h49v-313q0 -109 -63 -173.5t-169 -64.5z" />
    <glyph glyph-name="omicrontonos" unicode="&#x3cc;" horiz-adv-x="661" 
d="M303 605l74 152h53l-86 -152h-41zM331 -11q-121 0 -202 80t-81 201t80.5 201t202 80t202 -80t80.5 -201t-80.5 -201t-201.5 -80zM331 37q66 0 119 30t83 83.5t30 119.5q0 101 -66 167t-166 66q-67 0 -120 -30t-83 -83.5t-30 -119.5q0 -100 66 -166.5t167 -66.5z" />
    <glyph glyph-name="upsilontonos" unicode="&#x3cd;" horiz-adv-x="631" 
d="M288 605l74 152h53l-87 -152h-40zM315 -11q-105 0 -168 64.5t-63 173.5v313h49v-306q0 -91 49 -144t133.5 -53t133.5 53t49 144v306h49v-313q0 -109 -63 -173.5t-169 -64.5z" />
    <glyph glyph-name="omegatonos" unicode="&#x3ce;" horiz-adv-x="892" 
d="M542 757l-87 -152h-40l74 152h53zM772 540q60 -139 60 -276q0 -123 -51.5 -198.5t-146.5 -75.5q-68 0 -119 34.5t-69 90.5q-18 -56 -69 -90.5t-119 -34.5q-96 0 -147 75t-51 198q0 136 59 277h52q-62 -137 -62 -272q0 -109 41.5 -170t115.5 -61q67 0 112 45t45 112v185
h46v-185q0 -67 45 -112t111 -45q74 0 115.5 61.5t41.5 170.5q0 135 -61 271h51z" />
    <glyph glyph-name="uni0401" unicode="&#x401;" horiz-adv-x="545" 
d="M156 809v69h65v-69h-65zM364 809v69h64v-69h-64zM154 49h344v-49h-394v700h383v-48h-333v-265h307v-47h-307v-291z" />
    <glyph glyph-name="uni0402" unicode="&#x402;" horiz-adv-x="735" 
d="M454 470q108 0 174 -66t66 -174t-66.5 -174t-175.5 -66h-6v50h6q57 0 101 24t67.5 67t23.5 99t-24 99.5t-67.5 67.5t-101.5 24q-43 0 -86 -17t-72 -46v-358h-50v652h-221v48h494v-48h-223v-237q72 55 161 55z" />
    <glyph glyph-name="uni0403" unicode="&#x403;" horiz-adv-x="488" 
d="M363 923l-95 -142h-40l82 142h53zM467 700v-48h-313v-652h-50v700h363z" />
    <glyph glyph-name="uni0404" unicode="&#x404;" horiz-adv-x="784" 
d="M698 231h51q-36 -112 -126 -177t-211 -65q-155 0 -257 103t-102 258t102.5 258t256.5 103q78 0 143.5 -27t114 -79t74.5 -125h-51q-25 58 -66 98.5t-96 61.5t-119 21q-83 0 -151 -36.5t-109 -101.5t-47 -147h375v-47h-376q8 -127 94 -208.5t214 -81.5q101 0 176.5 51
t109.5 141z" />
    <glyph glyph-name="uni0405" unicode="&#x405;" horiz-adv-x="587" 
d="M300 -8q-112 0 -181 59t-69 158h52q0 -77 54.5 -122.5t143.5 -45.5q81 0 132.5 41.5t51.5 108.5q0 19 -3.5 35t-12.5 28t-17.5 21.5t-25.5 18t-28.5 13.5t-33.5 11.5t-34.5 9.5t-37.5 8q-31 7 -47.5 11t-44.5 13t-43.5 17.5t-35.5 22.5t-30 30t-17.5 39.5t-7.5 51.5
q0 86 62.5 136.5t166.5 50.5q102 0 162.5 -54t60.5 -144h-50q0 68 -48 109t-126 41q-52 0 -92.5 -17t-63 -48t-22.5 -73q0 -20 6 -37t14.5 -29t25 -22.5t29 -16.5t37 -13.5t38.5 -11t42 -9.5q32 -7 48.5 -11.5t45 -13.5t44 -17.5t35.5 -23t30.5 -31.5t18 -41t7.5 -53
q0 -91 -66 -145.5t-170 -54.5z" />
    <glyph glyph-name="uni0406" unicode="&#x406;" horiz-adv-x="258" 
d="M104 0v700h50v-700h-50z" />
    <glyph glyph-name="uni0407" unicode="&#x407;" horiz-adv-x="258" 
d="M28 809v69h60v-69h-60zM170 809v69h59v-69h-59zM104 0v700h50v-700h-50z" />
    <glyph glyph-name="uni0408" unicode="&#x408;" horiz-adv-x="590" 
d="M264 -11q-99 0 -166 68t-67 170v9h50v-7q0 -82 52.5 -136t130.5 -54q77 0 129 54.5t52 135.5v471h50v-473q0 -102 -66.5 -170t-164.5 -68z" />
    <glyph glyph-name="uni0409" unicode="&#x409;" horiz-adv-x="1080" 
d="M820 431q97 0 161 -61t64 -155q0 -92 -64 -153.5t-161 -61.5h-248v652h-314l-34 -452q-16 -200 -191 -200h-19v49h20q128 0 140 150l39 501h410v-269h197zM817 48q76 0 126.5 47.5t50.5 120.5q0 72 -50.5 120t-126.5 48h-194v-336h194z" />
    <glyph glyph-name="uni040A" unicode="&#x40a;" horiz-adv-x="1015" 
d="M761 403q101 0 160.5 -56t59.5 -145q0 -90 -59.5 -146t-160.5 -56h-241v352h-366v-352h-50v700h50v-300h366v300h51v-297h190zM759 48q38 0 70 11t54 31t34 48.5t12 63.5q0 70 -46 111t-124 41h-188v-306h188z" />
    <glyph glyph-name="uni040B" unicode="&#x40b;" horiz-adv-x="754" 
d="M468 455q107 0 170 -61t63 -174v-220h-51v215q0 63 -22.5 106t-64.5 64.5t-101 21.5q-72 0 -166 -34v-373h-51v652h-223v48h497v-48h-223v-232q92 35 172 35z" />
    <glyph glyph-name="uni040E" unicode="&#x40e;" horiz-adv-x="590" 
d="M173 826v40h274v-40h-274zM524 700h54l-227 -491q-58 -128 -105.5 -169.5t-131.5 -41.5h-35v48h39q61 0 94 28t78 120l-273 506h58l242 -449z" />
    <glyph glyph-name="uni040F" unicode="&#x40f;" horiz-adv-x="727" 
d="M623 700v-700h-236v-148h-49v148h-234v700h50v-652h418v652h51z" />
    <glyph glyph-name="uni0410" unicode="&#x410;" horiz-adv-x="686" 
d="M608 0l-81 191h-370l-81 -191h-54l294 700h46l301 -700h-55zM340 629l-164 -391h331z" />
    <glyph glyph-name="uni0411" unicode="&#x411;" horiz-adv-x="610" 
d="M348 418q48 0 89 -16t70 -43t45.5 -66t16.5 -83q0 -91 -63 -150.5t-160 -59.5h-242v700h417v-48h-367v-234h194zM342 49q77 0 126.5 45.5t49.5 115t-49 114t-124 44.5h-191v-319h188z" />
    <glyph glyph-name="uni0412" unicode="&#x412;" horiz-adv-x="644" 
d="M459 367q55 -18 88.5 -66.5t33.5 -109.5q0 -81 -58 -136t-149 -55h-270v700h269q82 0 135 -49.5t53 -122.5q0 -53 -28 -97t-74 -64zM377 651h-223v-260h226q55 0 92.5 38.5t37.5 91.5q0 55 -38.5 92.5t-94.5 37.5zM379 50q64 0 107.5 42t43.5 104q0 61 -43 103t-105 42
h-228v-291h225z" />
    <glyph glyph-name="uni0413" unicode="&#x413;" horiz-adv-x="488" 
d="M467 700v-48h-313v-652h-50v700h363z" />
    <glyph glyph-name="uni0414" unicode="&#x414;" horiz-adv-x="743" 
d="M626 48h77v-197h-47v149h-593v-149h-48v197h53q19 10 32.5 24.5t26 46.5t21 73t18.5 116.5t19 164t21 227.5h420v-652zM252 652q-27 -331 -50.5 -449t-72.5 -155h447v604h-324z" />
    <glyph glyph-name="uni0415" unicode="&#x415;" horiz-adv-x="545" 
d="M154 49h344v-49h-394v700h383v-48h-333v-265h307v-47h-307v-291z" />
    <glyph glyph-name="uni0416" unicode="&#x416;" horiz-adv-x="918" 
d="M849 0l-268 340h-97v-340h-51v340h-97l-268 -340h-64l288 365l-261 335h62l244 -313h96v313h51v-313h97l244 313h61l-260 -335l287 -365h-64z" />
    <glyph glyph-name="uni0417" unicode="&#x417;" horiz-adv-x="569" 
d="M392 373q33 -13 59 -39t40 -62.5t14 -76.5q0 -89 -65.5 -147t-164.5 -58q-95 0 -158.5 54.5t-71.5 141.5h50q8 -67 57.5 -107.5t122.5 -40.5q78 0 129 44.5t51 114.5q0 32 -11 60.5t-30.5 48.5t-46.5 31.5t-58 11.5h-92v45h92q57 0 94.5 37t37.5 94q0 62 -46 100.5
t-120 38.5q-64 0 -110.5 -36.5t-56.5 -95.5h-49q10 79 70.5 128.5t145.5 49.5q62 0 111 -23t76.5 -65t27.5 -96q0 -52 -27 -93.5t-71 -59.5z" />
    <glyph glyph-name="uni0418" unicode="&#x418;" horiz-adv-x="736" 
d="M596 700h36v-700h-50v602l-444 -602h-34v700h50v-600z" />
    <glyph glyph-name="uni0419" unicode="&#x419;" horiz-adv-x="736" 
d="M226 826v40h274v-40h-274zM596 700h36v-700h-50v602l-444 -602h-34v700h50v-600z" />
    <glyph glyph-name="uni041A" unicode="&#x41a;" horiz-adv-x="614" 
d="M547 0l-282 340h-111v-340h-50v700h50v-313h111l257 313h65l-277 -336l302 -364h-65z" />
    <glyph glyph-name="uni041B" unicode="&#x41b;" horiz-adv-x="727" 
d="M212 700h411v-700h-50v652h-314l-34 -452q-16 -200 -191 -200h-20v49h20q128 0 140 150z" />
    <glyph glyph-name="uni041C" unicode="&#x41c;" horiz-adv-x="947" 
d="M897 0h-51l-105 608l-260 -581h-16l-259 580l-106 -607h-51l122 700h47l255 -578l256 578h48z" />
    <glyph glyph-name="uni041D" unicode="&#x41d;" horiz-adv-x="728" 
d="M574 700h51v-700h-51v339h-420v-339h-50v700h50v-312h420v312z" />
    <glyph glyph-name="uni041E" unicode="&#x41e;" horiz-adv-x="831" 
d="M415.5 -11q-157.5 0 -260 103t-102.5 257q0 156 102.5 259t260 103t260 -103t102.5 -259q0 -155 -102.5 -257.5t-260 -102.5zM416 39q89 0 160 40t111 111.5t40 158.5q0 89 -40 160t-111 111.5t-160 40.5q-135 0 -223.5 -89t-88.5 -223q0 -133 88.5 -221.5t223.5 -88.5z
" />
    <glyph glyph-name="uni041F" unicode="&#x41f;" horiz-adv-x="697" 
d="M104 700h489v-700h-51v652h-388v-652h-50v700z" />
    <glyph glyph-name="uni0420" unicode="&#x420;" horiz-adv-x="602" 
d="M344 700q96 0 160 -61.5t64 -153.5t-64 -153.5t-160 -61.5h-190v-270h-50v700h240zM342 319q75 0 125 47.5t50 118.5t-50 118.5t-125 47.5h-188v-332h188z" />
    <glyph glyph-name="uni0421" unicode="&#x421;" horiz-adv-x="778" 
d="M410 -10q-156 0 -256.5 101t-100.5 258q0 104 45.5 186.5t127.5 128.5t184 46q117 0 204.5 -61.5t121.5 -167.5h-52q-33 85 -105 132.5t-169 47.5q-88 0 -157.5 -39.5t-109 -111t-39.5 -161t39 -160.5t109 -110.5t158 -39.5q100 0 173.5 50.5t105.5 141.5h51
q-22 -74 -69 -128.5t-114 -83.5t-147 -29z" />
    <glyph glyph-name="uni0422" unicode="&#x422;" horiz-adv-x="540" 
d="M519 700v-48h-224v-652h-50v652h-223v48h497z" />
    <glyph glyph-name="uni0423" unicode="&#x423;" horiz-adv-x="590" 
d="M524 700h54l-227 -491q-58 -128 -105.5 -169.5t-131.5 -41.5h-35v48h39q61 0 94 28t78 120l-273 506h58l242 -449z" />
    <glyph glyph-name="uni0424" unicode="&#x424;" horiz-adv-x="857" 
d="M803 350q0 -98 -43 -179t-123.5 -130t-183.5 -51v-107h-49v107q-102 2 -183 51t-124.5 130t-43.5 178t43.5 178.5t124.5 131t183 51.5v97h49v-97q103 -2 183.5 -51t123.5 -130t43 -179zM453 38q131 4 215 93t84 218.5t-84 219t-215 92.5v-623zM104 349.5
q0 -128.5 84.5 -218t215.5 -93.5v623q-130 -4 -215 -93.5t-85 -218z" />
    <glyph glyph-name="uni0425" unicode="&#x425;" horiz-adv-x="586" 
d="M575 0h-58l-224 326l-224 -326h-58l251 366l-230 334h57l204 -296l204 296h57l-229 -336z" />
    <glyph glyph-name="uni0426" unicode="&#x426;" horiz-adv-x="706" 
d="M589 48h75v-197h-47v149h-513v700h50v-652h384v652h51v-652z" />
    <glyph glyph-name="uni0427" unicode="&#x427;" horiz-adv-x="628" 
d="M473 700h51v-700h-51v295q-97 -37 -181 -37q-110 0 -175.5 62.5t-65.5 175.5v204h51v-201q0 -92 50.5 -142t143.5 -50q76 0 177 39v354z" />
    <glyph glyph-name="uni0428" unicode="&#x428;" horiz-adv-x="969" 
d="M815 700h50v-700h-761v700h50v-652h305v652h50v-652h306v652z" />
    <glyph glyph-name="uni0429" unicode="&#x429;" horiz-adv-x="983" 
d="M865 48h77v-197h-47v149h-791v700h50v-652h305v652h50v-652h306v652h50v-652z" />
    <glyph glyph-name="uni042A" unicode="&#x42a;" horiz-adv-x="696" 
d="M436 431q64 0 115.5 -27.5t80.5 -77t29 -111.5q0 -61 -29 -110t-80.5 -77t-115.5 -28h-247v652h-170v48h220v-269h197zM433 48q76 0 126.5 47.5t50.5 120.5q0 72 -50.5 120t-126.5 48h-194v-336h194z" />
    <glyph glyph-name="uni042B" unicode="&#x42b;" horiz-adv-x="854" 
d="M351 431q97 0 161 -61t64 -155q0 -92 -64 -153.5t-161 -61.5h-247v700h50v-269h197zM700 700h50v-700h-50v700zM348 48q76 0 126.5 47.5t50.5 120.5q0 72 -50.5 120t-126.5 48h-194v-336h194z" />
    <glyph glyph-name="uni042C" unicode="&#x42c;" horiz-adv-x="611" 
d="M351 431q97 0 161 -61t64 -155q0 -92 -64 -153.5t-161 -61.5h-247v700h50v-269h197zM348 48q76 0 126.5 47.5t50.5 120.5q0 72 -50.5 120t-126.5 48h-194v-336h194z" />
    <glyph glyph-name="uni042D" unicode="&#x42d;" horiz-adv-x="784" 
d="M373 711q75 0 142 -27.5t114.5 -75t74.5 -115t27 -143.5q0 -155 -102 -258t-256 -103q-122 0 -212 65t-125 177h50q34 -91 110 -141.5t177 -50.5q127 0 213 81.5t94 208.5h-376v47h375q-6 82 -47 147t-109 101.5t-150 36.5q-98 0 -171 -47t-110 -134h-52
q40 110 127.5 170.5t205.5 60.5z" />
    <glyph glyph-name="uni042E" unicode="&#x42e;" horiz-adv-x="1035" 
d="M626 711q101 0 182.5 -46.5t127.5 -129t46 -185.5q0 -156 -101 -258.5t-255 -102.5q-97 0 -176 43t-126 120t-52 174h-118v-326h-50v700h50v-326h118q8 148 107.5 242.5t246.5 94.5zM624 39q133 0 220 88.5t87 223t-87 223t-220 88.5q-131 0 -218 -88.5t-87 -223.5
t87 -223t218 -88z" />
    <glyph glyph-name="uni042F" unicode="&#x42f;" horiz-adv-x="639" 
d="M276 700h259v-700h-51v293h-191l-181 -293h-59l184 298q-53 8 -94 35t-63.5 69.5t-22.5 93.5q0 44 16.5 81.5t45.5 64.5t69.5 42.5t87.5 15.5zM278 341h206v311h-206q-74 0 -121.5 -44t-47.5 -112q0 -67 47.5 -111t121.5 -44z" />
    <glyph glyph-name="uni0430" unicode="&#x430;" horiz-adv-x="701" 
d="M567 540h40v-540h-42l-5 117q-36 -60 -97.5 -94t-137.5 -34q-119 0 -198 80.5t-79 200.5t79 200.5t198 80.5q76 0 137.5 -34.5t97.5 -94.5zM328 37q65 0 117.5 30t82 83.5t29.5 119.5q0 101 -65 167t-164 66t-164.5 -66.5t-65.5 -166.5t65.5 -166.5t164.5 -66.5z" />
    <glyph glyph-name="uni0431" unicode="&#x431;" horiz-adv-x="656" 
d="M344 511q75 0 135 -33.5t94 -93t34 -132.5q0 -114 -76.5 -188.5t-192.5 -74.5q-120 0 -195.5 77.5t-75.5 200.5q0 218 77.5 325.5t268.5 152.5l147 35v-49l-145 -34q-136 -31 -205.5 -102t-86.5 -198q36 55 92.5 84.5t128.5 29.5zM338 37q94 0 156.5 61.5t62.5 153.5
t-63 153.5t-156 61.5q-95 0 -157.5 -61.5t-62.5 -153.5t63 -153.5t157 -61.5z" />
    <glyph glyph-name="uni0432" unicode="&#x432;" horiz-adv-x="571" 
d="M412 283q46 -14 73.5 -50t27.5 -85q0 -64 -46 -106t-116 -42h-257v540h255q43 0 76.5 -17t51.5 -47.5t18 -69.5q0 -43 -22.5 -76t-60.5 -47zM447 399q0 43 -28.5 69t-75.5 26h-201v-190h201q47 0 75.5 26.5t28.5 68.5zM346 47q33 0 60 13.5t42 37.5t15 54.5t-15 55
t-42 38t-61 13.5h-203v-212h204z" />
    <glyph glyph-name="uni0433" unicode="&#x433;" horiz-adv-x="436" 
d="M419 540v-44h-277v-496h-48v540h325z" />
    <glyph glyph-name="uni0434" unicode="&#x434;" horiz-adv-x="635" 
d="M522 47h76v-196h-45v149h-493v-149h-45v196h59q26 23 39.5 66t23.5 132.5t26 295.5h359v-494zM207 497q-16 -243 -31.5 -329t-46.5 -121h345v450h-267z" />
    <glyph glyph-name="uni0435" unicode="&#x435;" horiz-adv-x="634" 
d="M588 272q0 -7 -1 -19h-490q4 -63 33.5 -112t79.5 -76.5t111 -27.5q66 0 117.5 31.5t81.5 88.5h52q-37 -81 -102 -124.5t-149 -43.5q-117 0 -195 80.5t-78 201.5q0 119 78.5 199.5t194.5 80.5q117 0 192 -80t75 -199zM321 504q-90 0 -152 -57.5t-71 -147.5h442
q-4 45 -22.5 83.5t-47.5 65.5t-67.5 41.5t-81.5 14.5z" />
    <glyph glyph-name="uni0436" unicode="&#x436;" horiz-adv-x="769" 
d="M701 0l-207 259h-86v-259h-48v259h-86l-207 -259h-61l227 284l-207 256h58l191 -237h85v237h48v-237h86l190 237h58l-207 -256l227 -284h-61z" />
    <glyph glyph-name="uni0437" unicode="&#x437;" horiz-adv-x="481" 
d="M338 285q40 -17 64 -52.5t24 -82.5q0 -70 -56 -115.5t-144 -45.5q-76 0 -129.5 39t-64.5 103h46q11 -43 51 -69t97 -26q67 0 109.5 33t42.5 84q0 46 -34 78t-85 32h-93v41h92q49 0 79 27t30 69q0 47 -39 77t-99 30q-52 0 -89 -24.5t-47 -65.5h-46q10 60 60.5 97t122.5 37
q79 0 131.5 -42t52.5 -106q0 -40 -20.5 -71t-55.5 -47z" />
    <glyph glyph-name="uni0438" unicode="&#x438;" horiz-adv-x="617" 
d="M494 540h28v-540h-46v450l-353 -450h-29v540h47v-448z" />
    <glyph glyph-name="uni0439" unicode="&#x439;" horiz-adv-x="617" 
d="M436 705v-38h-254v38h254zM494 540h28v-540h-46v450l-353 -450h-29v540h47v-448z" />
    <glyph glyph-name="uni043A" unicode="&#x43a;" horiz-adv-x="517" 
d="M453 0l-216 259h-94v-259h-49v540h49v-235h95l197 235h60l-215 -258l234 -282h-61z" />
    <glyph glyph-name="uni043B" unicode="&#x43b;" horiz-adv-x="608" 
d="M180 540h333v-540h-48v497h-243l-35 -320q-10 -98 -48 -138t-117 -40h-9v46h11q55 0 81.5 29.5t34.5 100.5z" />
    <glyph glyph-name="uni043C" unicode="&#x43c;" horiz-adv-x="790" 
d="M747 0h-48l-95 456l-202 -437h-14l-201 437l-96 -456h-48l112 540h40l200 -434l200 434h40z" />
    <glyph glyph-name="uni043D" unicode="&#x43d;" horiz-adv-x="626" 
d="M484 540h48v-540h-48v256h-342v-256h-48v540h48v-237h342v237z" />
    <glyph glyph-name="uni043E" unicode="&#x43e;" horiz-adv-x="661" 
d="M331 -11q-121 0 -202 80t-81 201t80.5 201t202 80t202 -80t80.5 -201t-80.5 -201t-201.5 -80zM331 37q66 0 119 30t83 83.5t30 119.5q0 101 -66 167t-166 66q-67 0 -120 -30t-83 -83.5t-30 -119.5q0 -100 66 -166.5t167 -66.5z" />
    <glyph glyph-name="uni043F" unicode="&#x43f;" horiz-adv-x="630" 
d="M94 540h442v-540h-49v495h-344v-495h-49v540z" />
    <glyph glyph-name="uni0440" unicode="&#x440;" horiz-adv-x="698" 
d="M375 551q119 0 197 -80t78 -201t-78 -201t-197 -80q-74 0 -134.5 33t-97.5 91v-304h-49v731h36l10 -118q37 60 98.5 94.5t136.5 34.5zM371 37q100 0 165 66t65 167t-65 167t-165 66q-98 0 -164 -66.5t-66 -166.5t66 -166.5t164 -66.5z" />
    <glyph glyph-name="uni0441" unicode="&#x441;" horiz-adv-x="619" 
d="M326 -11q-118 0 -198 80.5t-80 200.5q0 121 79.5 201t198.5 80q91 0 159.5 -48.5t95.5 -129.5h-49q-27 61 -81.5 95.5t-124.5 34.5q-98 0 -163 -66.5t-65 -166.5q0 -99 65.5 -166t162.5 -67q69 0 123.5 34.5t83.5 97.5h50q-29 -83 -98 -131.5t-159 -48.5z" />
    <glyph glyph-name="uni0442" unicode="&#x442;" horiz-adv-x="513" 
d="M496 540v-45h-216v-495h-48v495h-215v45h479z" />
    <glyph glyph-name="uni0443" unicode="&#x443;" horiz-adv-x="577" 
d="M503 540h53l-270 -579q-40 -87 -82 -119.5t-111 -32.5h-45v44h41q56 0 87.5 24t64.5 96l29 59l-248 508h53l221 -453z" />
    <glyph glyph-name="uni0444" unicode="&#x444;" horiz-adv-x="721" 
d="M673 269q0 -81 -37 -144.5t-102.5 -98.5t-148.5 -37v-159h-49v159q-126 2 -207 79.5t-81 200.5t81.5 201.5t206.5 80.5v150h49v-150q126 -2 207 -80.5t81 -201.5zM96 270q0 -101 67 -165.5t173 -66.5v464q-106 -2 -173 -67t-67 -165zM385 38q70 1 124.5 31t85 82
t30.5 119q0 100 -67 165t-173 67v-464z" />
    <glyph glyph-name="uni0445" unicode="&#x445;" horiz-adv-x="495" 
d="M485 0h-56l-182 250l-181 -250h-55l207 282l-188 258h56l162 -223l163 223h55l-189 -256z" />
    <glyph glyph-name="uni0446" unicode="&#x446;" horiz-adv-x="629" 
d="M516 46h77v-195h-45v149h-454v540h48v-494h326v494h48v-494z" />
    <glyph glyph-name="uni0447" unicode="&#x447;" horiz-adv-x="537" 
d="M396 540h47v-540h-47v227q-73 -30 -146 -30q-93 0 -149.5 52t-56.5 148v143h48v-139q0 -75 42 -116t119 -41q71 0 143 33v263z" />
    <glyph glyph-name="uni0448" unicode="&#x448;" horiz-adv-x="843" 
d="M700 540h49v-540h-655v540h48v-494h256v494h47v-494h255v494z" />
    <glyph glyph-name="uni0449" unicode="&#x449;" horiz-adv-x="861" 
d="M749 46h77v-195h-45v149h-687v540h48v-494h256v494h47v-494h255v494h49v-494z" />
    <glyph glyph-name="uni044A" unicode="&#x44a;" horiz-adv-x="616" 
d="M399 353q52 0 94 -22t65.5 -62.5t23.5 -92.5q0 -78 -51.5 -127t-131.5 -49h-210v497h-172v43h221v-187h161zM393 44q62 0 101 37t39 95t-39 95.5t-101 37.5h-155v-265h155z" />
    <glyph glyph-name="uni044B" unicode="&#x44b;" horiz-adv-x="737" 
d="M304 353q79 0 131 -49.5t52 -127.5t-52 -127t-131 -49h-210v540h48v-187h162zM593 540h49v-540h-49v540zM298 44q61 0 100 37t39 95t-39 95.5t-100 37.5h-156v-265h156z" />
    <glyph glyph-name="uni044C" unicode="&#x44c;" horiz-adv-x="521" 
d="M304 353q79 0 131 -49.5t52 -127.5t-52 -127t-131 -49h-210v540h48v-187h162zM298 44q61 0 100 37t39 95t-39 95.5t-100 37.5h-156v-265h156z" />
    <glyph glyph-name="uni044D" unicode="&#x44d;" horiz-adv-x="626" 
d="M300 551q78 0 141.5 -36.5t100 -100.5t36.5 -142q0 -120 -80 -201.5t-198 -81.5q-63 0 -117 25.5t-91.5 70.5t-54.5 104h50q22 -70 80.5 -112.5t132.5 -42.5q93 0 158 62t72 156h-272v41h272q-5 61 -35.5 110t-81.5 76.5t-113 27.5q-49 0 -92 -18.5t-74 -52.5t-46 -78
h-49q25 87 96 140t165 53z" />
    <glyph glyph-name="uni044E" unicode="&#x44e;" horiz-adv-x="849" 
d="M527 551q118 0 196 -80.5t78 -201t-78 -200.5t-196 -80q-112 0 -189.5 73t-84.5 185h-110v-249h-49v542h49v-247h110q8 112 85 185t189 73zM527 37q97 0 160.5 66.5t63.5 166.5t-64 166.5t-160 66.5q-97 0 -161 -66.5t-64 -166.5t64 -166.5t161 -66.5z" />
    <glyph glyph-name="uni044F" unicode="&#x44f;" horiz-adv-x="551" 
d="M225 540h232v-539h-48v219h-169l-144 -220h-54l146 226q-59 10 -95.5 52t-36.5 102q0 70 47.5 115t121.5 45zM226 268h183v224h-180q-55 0 -89 -31t-34 -81q0 -49 33.5 -80.5t86.5 -31.5z" />
    <glyph glyph-name="uni0451" unicode="&#x451;" horiz-adv-x="634" 
d="M262 721v-69h-65v69h65zM438 721v-69h-64v69h64zM588 272q0 -7 -1 -19h-490q4 -63 33.5 -112t79.5 -76.5t111 -27.5q66 0 117.5 31.5t81.5 88.5h52q-37 -81 -102 -124.5t-149 -43.5q-117 0 -195 80.5t-78 201.5q0 119 78.5 199.5t194.5 80.5q117 0 192 -80t75 -199z
M321 504q-90 0 -152 -57.5t-71 -147.5h442q-4 45 -22.5 83.5t-47.5 65.5t-67.5 41.5t-81.5 14.5z" />
    <glyph glyph-name="uni0452" unicode="&#x452;" horiz-adv-x="641" 
d="M346 550q97 0 153.5 -62t56.5 -168v-320q0 -86 -51.5 -138t-138.5 -52h-21v46h15q68 0 107.5 39.5t39.5 107.5v307q0 92 -45.5 144t-126.5 52q-52 0 -96 -27t-70 -72.5t-26 -98.5v-308h-49v604h-99v42h99v85h49v-85h199v-42h-199v-166q31 51 84.5 81.5t118.5 30.5z" />
    <glyph glyph-name="uni0453" unicode="&#x453;" horiz-adv-x="436" 
d="M350 758l-87 -152h-41l75 152h53zM419 540v-44h-277v-496h-48v540h325z" />
    <glyph glyph-name="uni0454" unicode="&#x454;" horiz-adv-x="626" 
d="M539 189h49q-24 -89 -96 -144.5t-166 -55.5q-118 0 -198 81.5t-80 201.5q0 119 79.5 199t198.5 80q62 0 115.5 -24t91 -68t53.5 -101h-48q-23 67 -81 108t-131 41q-94 0 -158.5 -60.5t-71.5 -153.5h272v-41h-272q7 -94 71.5 -156t158.5 -62q74 0 132 42.5t81 112.5z" />
    <glyph glyph-name="uni0455" unicode="&#x455;" horiz-adv-x="508" 
d="M254 -11q-92 0 -147.5 44t-61.5 120h48q6 -56 49 -87t113.5 -31t114 30t43.5 81q0 24 -10 42.5t-23.5 29t-38.5 19.5t-43 12.5t-50 9.5q-27 4 -41 7t-37.5 9t-37 12.5t-30 17.5t-25.5 24t-15 32t-6 42q0 66 54 107t141 41q58 0 102 -19t68 -54t27 -83h-47q-2 26 -13 47
t-30 35t-46.5 22t-61.5 8q-66 0 -106 -28t-40 -74q0 -16 4.5 -28.5t11 -21.5t19.5 -16.5t23.5 -11.5t30 -9t31.5 -7t35 -6q27 -4 41.5 -7t39.5 -9.5t39 -13t32 -18.5t27.5 -26.5t16 -36t6.5 -47.5q0 -71 -56.5 -114.5t-150.5 -43.5z" />
    <glyph glyph-name="uni0456" unicode="&#x456;" horiz-adv-x="237" 
d="M88 652v69h61v-69h-61zM94 0v540h49v-540h-49z" />
    <glyph glyph-name="uni0457" unicode="&#x457;" horiz-adv-x="237" 
d="M28 651v69h58v-69h-58zM151 650v70h58v-70h-58zM94 0v540h49v-540h-49z" />
    <glyph glyph-name="uni0458" unicode="&#x458;" horiz-adv-x="249" 
d="M100 652v69h62v-69h-62zM-41 -191v45h23q39 0 67 14.5t42.5 42.5t14.5 67v562h49v-565q0 -76 -45.5 -121t-121.5 -45h-29z" />
    <glyph glyph-name="uni0459" unicode="&#x459;" horiz-adv-x="869" 
d="M653 351q79 0 131 -49t52 -126.5t-52 -126.5t-131 -49h-210v497h-220l-35 -320q-10 -97 -48 -137.5t-117 -40.5h-10v45h12q55 0 81.5 30t34.5 100l40 366h309v-189h163zM649 42q61 0 100 37.5t39 95.5q0 59 -39 96.5t-100 37.5h-159v-267h159z" />
    <glyph glyph-name="uni045A" unicode="&#x45a;" horiz-adv-x="847" 
d="M641 330q79 0 126 -45t47 -120q0 -74 -47 -119.5t-126 -45.5h-203v271h-296v-271h-48v540h48v-223h296v223h48v-210h155zM635 45q59 0 94 32.5t35 87.5q0 28 -9 50t-25.5 37.5t-41 24t-53.5 8.5h-149v-240h149z" />
    <glyph glyph-name="uni045B" unicode="&#x45b;" horiz-adv-x="641" 
d="M346 551q64 0 111.5 -28t73 -80t25.5 -122v-321h-49v311q0 92 -45.5 143.5t-126.5 51.5q-79 0 -135.5 -58.5t-56.5 -139.5v-308h-49v604h-98v42h98v85h49v-85h200v-42h-200v-168q31 53 84.5 84t118.5 31z" />
    <glyph glyph-name="uni045C" unicode="&#x45c;" horiz-adv-x="517" 
d="M381 758l-87 -152h-41l75 152h53zM453 0l-216 259h-94v-259h-49v540h49v-235h95l197 235h60l-215 -258l234 -282h-61z" />
    <glyph glyph-name="uni045D" unicode="&#x45d;" horiz-adv-x="617" 
d="M337 606h-41l-87 152h53zM494 540h28v-540h-46v450l-353 -450h-29v540h47v-448z" />
    <glyph glyph-name="uni045E" unicode="&#x45e;" horiz-adv-x="577" 
d="M166 667v38h254v-38h-254zM503 540h53l-270 -579q-40 -87 -82 -119.5t-111 -32.5h-45v44h41q56 0 87.5 24t64.5 96l29 59l-248 508h53l221 -453z" />
    <glyph glyph-name="uni045F" unicode="&#x45f;" horiz-adv-x="638" 
d="M543 540v-540h-200v-148h-47v148h-202v540h48v-494h353v494h48z" />
    <glyph glyph-name="uni0490" unicode="&#x490;" horiz-adv-x="488" 
d="M419 805h48v-153h-313v-652h-50v700h315v105z" />
    <glyph glyph-name="uni0491" unicode="&#x491;" horiz-adv-x="436" 
d="M372 663h47v-167h-277v-496h-48v540h278v123z" />
    <glyph glyph-name="Wgrave" unicode="&#x1e80;" horiz-adv-x="1018" 
d="M493 781l-94 142h52l83 -142h-41zM936 700h53l-223 -700h-44l-213 571l-210 -571h-43l-229 700h54l198 -615l218 593h23l222 -593z" />
    <glyph glyph-name="wgrave" unicode="&#x1e81;" horiz-adv-x="848" 
d="M449 606h-40l-87 152h53zM775 540h50l-189 -540h-39l-174 431l-173 -431h-39l-185 540h51l156 -456l180 441h19l182 -443z" />
    <glyph glyph-name="Wacute" unicode="&#x1e82;" horiz-adv-x="1018" 
d="M612 923l-94 -142h-41l82 142h53zM936 700h53l-223 -700h-44l-213 571l-210 -571h-43l-229 700h54l198 -615l218 593h23l222 -593z" />
    <glyph glyph-name="wacute" unicode="&#x1e83;" horiz-adv-x="848" 
d="M511 758l-87 -152h-41l75 152h53zM775 540h50l-189 -540h-39l-174 431l-173 -431h-39l-185 540h51l156 -456l180 441h19l182 -443z" />
    <glyph glyph-name="Wdieresis" unicode="&#x1e84;" horiz-adv-x="1018" 
d="M372 809v69h64v-69h-64zM580 809v69h64v-69h-64zM936 700h53l-223 -700h-44l-213 571l-210 -571h-43l-229 700h54l198 -615l218 593h23l222 -593z" />
    <glyph glyph-name="wdieresis" unicode="&#x1e85;" horiz-adv-x="848" 
d="M301 652v69h64v-69h-64zM478 652v69h64v-69h-64zM775 540h50l-189 -540h-39l-174 431l-173 -431h-39l-185 540h51l156 -456l180 441h19l182 -443z" />
    <glyph glyph-name="uni1E9E" unicode="&#x1e9e;" horiz-adv-x="663" 
d="M400 442q65 -5 113.5 -32.5t74.5 -75t26 -108.5q0 -100 -68 -163t-182 -63h-90v49h90q89 0 144 49t55 128q0 78 -54.5 126t-143.5 48h-40v13l152 238h-142q-92 0 -140.5 -48t-48.5 -139v-464h-50v468q0 110 61 171t171 61h229v-12z" />
    <glyph glyph-name="Ygrave" unicode="&#x1ef2;" horiz-adv-x="645" 
d="M309 781l-95 142h53l83 -142h-41zM614 700l-266 -423v-277h-51v277l-264 423h56l234 -375l236 375h55z" />
    <glyph glyph-name="ygrave" unicode="&#x1ef3;" horiz-adv-x="577" 
d="M321 606h-41l-87 152h53zM503 540h53l-270 -579q-40 -87 -82 -119.5t-111 -32.5h-45v44h41q56 0 87.5 24t64.5 96l29 59l-248 508h53l221 -453z" />
    <glyph glyph-name="endash" unicode="&#x2013;" horiz-adv-x="642" 
d="M73 255v47h496v-47h-496z" />
    <glyph glyph-name="emdash" unicode="&#x2014;" horiz-adv-x="895" 
d="M73 255v47h749v-47h-749z" />
    <glyph glyph-name="quoteleft" unicode="&#x2018;" horiz-adv-x="202" 
d="M133 751v-33q-21 -12 -29.5 -30.5t-8.5 -52.5h41v-76h-72v71q0 33 8 57t22.5 39t38.5 25z" />
    <glyph glyph-name="quoteright" unicode="&#x2019;" horiz-adv-x="196" 
d="M70 523v33q21 12 30 30.5t9 52.5h-42v76h72v-71q0 -49 -16.5 -77t-52.5 -44z" />
    <glyph glyph-name="quotesinglbase" unicode="&#x201a;" horiz-adv-x="210" 
d="M71 -116v33q22 11 30.5 30t8.5 53h-42v76h72v-71q0 -50 -16.5 -78t-52.5 -43z" />
    <glyph glyph-name="quotedblleft" unicode="&#x201c;" horiz-adv-x="339" 
d="M129 749l4 -28q-40 -22 -40 -83h43v-76h-72v71q0 89 65 116zM267 749l4 -28q-40 -22 -40 -83h43v-76h-72v71q0 89 65 116z" />
    <glyph glyph-name="quotedblright" unicode="&#x201d;" horiz-adv-x="333" 
d="M74 527l-4 28q40 22 40 84h-43v75h72v-71q0 -88 -65 -116zM212 527l-4 28q40 22 40 84h-43v75h72v-71q0 -88 -65 -116z" />
    <glyph glyph-name="quotedblbase" unicode="&#x201e;" horiz-adv-x="348" 
d="M76 -112l-5 28q40 22 40 84h-43v76h72v-72q0 -88 -64 -116zM213 -112l-4 28q40 22 40 84h-43v76h72v-72q0 -88 -65 -116z" />
    <glyph glyph-name="dagger" unicode="&#x2020;" horiz-adv-x="508" 
d="M479 490v-45h-201v-485h-48v485h-201v45h201v210h48v-210h201z" />
    <glyph glyph-name="daggerdbl" unicode="&#x2021;" horiz-adv-x="547" 
d="M498 445h-200v-229h200v-46h-200v-210h-49v210h-201v46h201v229h-201v45h201v210h49v-210h200v-45z" />
    <glyph glyph-name="bullet" unicode="&#x2022;" horiz-adv-x="310" 
d="M155 228q-27 0 -45.5 19t-18.5 46q0 14 5 26t13.5 20.5t20.5 13.5t25 5q28 0 46.5 -18.5t18.5 -46.5q0 -27 -18.5 -46t-46.5 -19z" />
    <glyph glyph-name="ellipsis" unicode="&#x2026;" horiz-adv-x="471" 
d="M68 0v77h64v-77h-64zM203 0v77h65v-77h-65zM339 0v77h64v-77h-64z" />
    <glyph glyph-name="perthousand" unicode="&#x2030;" horiz-adv-x="1165" 
d="M185 410q-67 0 -109.5 42.5t-42.5 109.5q0 66 42.5 108.5t109.5 42.5q34 0 62 -11t48 -31t31.5 -48t11.5 -61q0 -67 -43 -109.5t-110 -42.5zM145 -4l425 705h53l-425 -705h-53zM185 450q32 0 57.5 14.5t39.5 40t14 57.5q0 24 -8 44.5t-22.5 35t-35.5 22.5t-45 8
q-48 0 -79 -31t-31 -79q0 -49 31 -80.5t79 -31.5zM597.5 -6q-66.5 0 -109 42t-42.5 108q0 43 19 77.5t53.5 53.5t78.5 19q67 0 109.5 -42t42.5 -108t-42.5 -108t-109 -42zM982.5 -6q-66.5 0 -108.5 42t-42 108t42 108t108.5 42t109 -42t42.5 -108t-42.5 -108t-109 -42z
M597 35q48 0 79 30.5t31 78.5t-31 78.5t-79 30.5t-78.5 -30.5t-30.5 -78.5t30.5 -78.5t78.5 -30.5zM983 35q48 0 78.5 30.5t30.5 78.5t-30.5 78.5t-78.5 30.5t-78.5 -30.5t-30.5 -78.5t30.5 -78.5t78.5 -30.5z" />
    <glyph glyph-name="guilsinglleft" unicode="&#x2039;" horiz-adv-x="336" 
d="M220 61l-174 201v10l174 201h58l-177 -206l177 -206h-58z" />
    <glyph glyph-name="guilsinglright" unicode="&#x203a;" horiz-adv-x="336" 
d="M117 61h-59l178 206l-178 206h59l174 -201v-10z" />
    <glyph glyph-name="fraction" unicode="&#x2044;" horiz-adv-x="149" 
d="M-147 -30l404 760h41l-404 -760h-41z" />
    <glyph glyph-name="Euro" unicode="&#x20ac;" horiz-adv-x="649" 
d="M470 639q-100 0 -177.5 -55t-107.5 -146h374l-11 -42h-374q-5 -30 -5 -60q0 -33 6 -63h341l-10 -42h-320q30 -90 107.5 -144t176.5 -54q58 0 108 18v-45q-53 -17 -114 -17q-117 0 -207 66.5t-122 175.5h-100l10 42h81q-5 31 -5 63q0 30 4 60h-87l10 42h86
q13 44 35.5 82.5t54 68t69.5 50.5t82 32t91 11q79 0 148 -29l-10 -42q-61 28 -134 28z" />
    <glyph glyph-name="uni20BD" unicode="&#x20bd;" horiz-adv-x="594" 
d="M356 274h-179v-95h255v-37h-255v-142h-48v142h-79v37h79v96h-79v41h79v349h227q88 0 145.5 -55.5t57.5 -140t-57.5 -140t-145.5 -55.5zM512 469.5q0 65.5 -46 109t-114 43.5h-175v-305h175q68 0 114 43.5t46 109z" />
    <glyph glyph-name="uni2113" unicode="&#x2113;" horiz-adv-x="447" 
d="M363 147h39v-2q0 -72 -38.5 -114t-105.5 -42q-69 0 -109 44t-40 120v57q-36 -17 -74 -30v41q38 14 74 32v287q0 81 38.5 125.5t107.5 44.5q45 0 77.5 -18t50.5 -52.5t18 -80.5q0 -91 -68 -179t-184 -150v-78q0 -38 13 -66t37.5 -43t58.5 -15q49 0 77 31t28 86v2zM149 542
v-268q49 28 88.5 61.5t67 70t42 76t14.5 78.5q0 52 -28 82t-78 29q-52 1 -79 -32.5t-27 -96.5z" />
    <glyph glyph-name="uni2116" unicode="&#x2116;" horiz-adv-x="1093" 
d="M570 88v577h47v-665h-41l-424 581v-581h-48v665h44zM880.5 289q-64.5 0 -108 42t-43.5 105q0 41 20 75t54.5 53t76.5 19q64 0 107 -42t43 -105q0 -64 -42.5 -105.5t-107 -41.5zM880 545q-48 0 -80 -31t-32 -78t32 -78t80 -31q49 0 80.5 30.5t31.5 78.5q0 47 -32 78
t-80 31zM718 172h324v-43h-324v43z" />
    <glyph glyph-name="uni2117" unicode="&#x2117;" horiz-adv-x="847" 
d="M422 708q163 0 267.5 -101t104.5 -258t-104.5 -258t-267.5 -101q-162 0 -266 100.5t-104 258.5t104 258.5t266 100.5zM422.5 22q147.5 0 242.5 91.5t95 235.5q0 95 -43.5 169.5t-120.5 116t-174 41.5q-147 0 -241.5 -91.5t-94.5 -235.5t94.5 -235.5t242 -91.5zM470 566
q42 0 76.5 -19t54 -51.5t19.5 -72.5q0 -62 -42.5 -102.5t-107.5 -40.5h-132v-180h-35v466h167zM469 310q34 0 60.5 15t41.5 40.5t15 57.5q0 48 -33 80t-84 32h-132v-225h132z" />
    <glyph glyph-name="trademark" unicode="&#x2122;" horiz-adv-x="857" 
d="M340 666h-135v-335h-36v335h-139v34h310v-34zM790 331h-35l-54 311l-141 -311h-11l-140 310l-54 -310h-35l63 369h33l139 -308l138 308h34z" />
    <glyph glyph-name="estimated" unicode="&#x212e;" horiz-adv-x="760" 
d="M721 301h-521v-183q78 -72 187 -72q61 0 118.5 23.5t96.5 62.5l72 -1q-46 -66 -125 -103.5t-162 -37.5q-92 0 -168.5 44.5t-121 121t-44.5 168.5q0 90 45 167t122 122t167 45q88 0 165.5 -45t124 -120t46.5 -159q0 -14 -2 -33zM387 602q-107 0 -187 -74v-172h375v172
q-82 74 -188 74z" />
    <glyph glyph-name="uni2150" unicode="&#x2150;" horiz-adv-x="633" 
d="M450 730h41l-405 -760h-41zM92 330v334h-70v36h110v-370h-40zM366 370h247v-6l-147 -364h-42l136 334h-194v36z" />
    <glyph glyph-name="uni2151" unicode="&#x2151;" horiz-adv-x="663" 
d="M450 730h41l-405 -760h-41zM92 330v334h-70v36h110v-370h-40zM499 378q27 0 51 -9.5t41.5 -25.5t27 -38.5t9.5 -49.5q0 -53 -40 -123l-76 -137h-45l74 133q8 16 15 31q-28 -20 -64 -20q-53 0 -88 33t-35 83q0 35 16.5 63.5t46 44t67.5 15.5zM499 170q39 0 64 24t25 61.5
t-25 61t-64 23.5t-64.5 -23.5t-25.5 -61.5q0 -18 7 -34t19 -27t28.5 -17.5t35.5 -6.5z" />
    <glyph glyph-name="uni2152" unicode="&#x2152;" horiz-adv-x="897" 
d="M45 -30l405 760h41l-405 -760h-41zM92 330v334h-70v36h110v-370h-40zM716 378q66 0 103.5 -51.5t37.5 -141.5q0 -89 -38 -141t-103 -52q-44 0 -76 23.5t-49 67.5t-17 102q0 90 38 141.5t104 51.5zM364 334v36h110v-370h-40v334h-70zM716 32q23 0 42 10.5t32 30t20 48.5
t7 64q0 72 -27 112.5t-74 40.5q-32 0 -54.5 -18t-34.5 -52.5t-12 -82.5q0 -71 26.5 -112t74.5 -41z" />
    <glyph glyph-name="uni2153" unicode="&#x2153;" horiz-adv-x="656" 
d="M450 730h41l-405 -760h-41zM92 330v334h-70v36h110v-370h-40zM504 231q51 -2 84 -35.5t33 -82.5q0 -53 -35.5 -87t-87.5 -34q-51 0 -85 32t-37 82h39q3 -34 26 -55t57 -21q36 0 59.5 24t23.5 60t-25.5 60t-63.5 24h-45v9l99 127h-157v36h218v-10z" />
    <glyph glyph-name="uni2154" unicode="&#x2154;" horiz-adv-x="774" 
d="M567 730h41l-404 -760h-41zM276 369v-39h-244v12q87 91 126.5 137.5t52 71.5t12.5 51q0 20 -9 36t-25 24.5t-37 8.5t-38 -9t-26.5 -25t-9.5 -36v-9h-39v9q0 48 31.5 77.5t80.5 29.5q50 0 81.5 -29.5t31.5 -76.5q0 -42 -30 -87t-125 -146h167zM622 231q33 -2 60 -17.5
t42 -42t15 -58.5q0 -53 -35.5 -87t-88.5 -34q-51 0 -85 32t-37 82h39q4 -34 26.5 -55t56.5 -21q37 0 60.5 24t23.5 60t-25.5 60t-64.5 24h-44v9l99 127h-158v36h219v-10z" />
    <glyph glyph-name="uni2155" unicode="&#x2155;" horiz-adv-x="649" 
d="M450 730h41l-405 -760h-41zM92 330v334h-70v36h110v-370h-40zM491 228q55 0 90 -33.5t35 -83.5q0 -34 -15.5 -61t-43 -42.5t-61.5 -15.5q-51 0 -85 31.5t-36 80.5h40q2 -22 12.5 -38.5t28.5 -26t40 -9.5q35 0 57.5 23t22.5 58q0 17 -6.5 32.5t-17.5 26t-27 17t-34 6.5
h-96l-6 7l19 170h184v-36h-151l-12 -106h62z" />
    <glyph glyph-name="uni2156" unicode="&#x2156;" horiz-adv-x="767" 
d="M567 730h41l-404 -760h-41zM276 369v-39h-244v12q87 91 126.5 137.5t52 71.5t12.5 51q0 20 -9 36t-25 24.5t-37 8.5t-38 -9t-26.5 -25t-9.5 -36v-9h-39v9q0 48 31.5 77.5t80.5 29.5q50 0 81.5 -29.5t31.5 -76.5q0 -42 -30 -87t-125 -146h167zM609 228q54 0 89.5 -33.5
t35.5 -83.5q0 -34 -16 -61t-43.5 -42.5t-60.5 -15.5q-51 0 -85.5 31.5t-35.5 80.5h40q1 -16 7.5 -30t17 -23.5t25 -15t31.5 -5.5q34 0 57 23t23 58t-24.5 58.5t-61.5 23.5h-96l-6 7l20 170h183v-36h-150l-12 -106h62z" />
    <glyph glyph-name="uni2157" unicode="&#x2157;" horiz-adv-x="771" 
d="M572 730h41l-404 -760h-42zM279 443q0 -53 -35 -87t-88 -34q-34 0 -61 14.5t-43 40.5t-18 58h39q3 -33 26 -54t57 -21q36 0 60 23.5t24 60.5q0 36 -25.5 59.5t-64.5 23.5h-44v10l99 126h-158v37h218v-10l-102 -129q51 -3 83.5 -36.5t32.5 -81.5zM613 228q55 0 90.5 -33.5
t35.5 -83.5q0 -51 -35 -85t-86 -34q-33 0 -60.5 14.5t-43 40t-16.5 57.5h39q3 -33 25 -53.5t56 -20.5q35 0 57.5 23t22.5 58t-24 58.5t-61 23.5h-96l-6 7l19 170h184v-36h-150l-13 -106h62z" />
    <glyph glyph-name="uni2158" unicode="&#x2158;" horiz-adv-x="779" 
d="M579 730h41l-404 -760h-41zM215 330v78h-191v12l133 280h40l-122 -256h141l6 120h32v-120h41v-36h-41v-78h-39zM621 228q54 0 89.5 -33.5t35.5 -83.5q0 -34 -16 -61t-43.5 -42.5t-60.5 -15.5q-51 0 -85 31.5t-36 80.5h40q2 -33 24.5 -53.5t56.5 -20.5t57 23t23 58
t-24.5 58.5t-61.5 23.5h-96l-6 7l20 170h184v-36h-151l-12 -106h62z" />
    <glyph glyph-name="uni2159" unicode="&#x2159;" horiz-adv-x="638" 
d="M450 730h41l-405 -760h-41zM92 330v334h-70v36h110v-370h-40zM488 232q52 0 87 -33t35 -84q0 -35 -16.5 -63t-46 -44t-66.5 -16q-56 0 -93 35t-37 88q0 52 40 124l77 136h45l-75 -133q-8 -16 -15 -31q28 21 65 21zM480 30q39 0 64.5 24t25.5 61q0 25 -11.5 44t-32 30
t-46.5 11q-38 0 -63.5 -24t-25.5 -61t25.5 -61t63.5 -24z" />
    <glyph glyph-name="uni215A" unicode="&#x215a;" horiz-adv-x="753" 
d="M565 730h41l-405 -760h-41zM275 441q0 -52 -34.5 -85.5t-86 -33.5t-85.5 31.5t-35 80.5h40q2 -33 24 -53.5t56 -20.5q35 0 58 22.5t23 58.5q0 35 -24.5 58t-61.5 23h-96l-6 8l20 170h183v-37h-150l-12 -105h61q55 0 90.5 -33.5t35.5 -83.5zM603 232q34 0 62 -15t44 -42
t16 -60q0 -53 -36.5 -88t-92.5 -35q-37 0 -66.5 16t-46.5 44t-17 63q0 52 40 124l77 136h45l-75 -133q-8 -16 -15 -31q28 21 65 21zM595 30q39 0 64.5 24t25.5 61q0 25 -11.5 44t-32 30t-46.5 11q-25 0 -45.5 -11t-32 -30t-11.5 -44q0 -37 25.5 -61t63.5 -24z" />
    <glyph glyph-name="oneeighth" unicode="&#x215b;" horiz-adv-x="678" 
d="M450 730h41l-405 -760h-41zM92 330v334h-70v36h110v-370h-40zM576 200q63 -28 63 -96q0 -49 -36 -80.5t-93.5 -31.5t-93.5 31.5t-36 80.5q0 69 64 96q-49 26 -49 81q0 43 32 70t83 27t83 -27t32 -70q0 -55 -49 -81zM510 344q-34 0 -55 -17.5t-21 -45.5q0 -29 21 -47
t55 -18t54.5 18t20.5 47q0 28 -20.5 45.5t-54.5 17.5zM510 29q40 0 65 20.5t25 54.5q0 35 -24.5 56t-65 21t-65.5 -21t-25 -56q0 -34 25 -54.5t65 -20.5z" />
    <glyph glyph-name="threeeighths" unicode="&#x215c;" horiz-adv-x="800" 
d="M572 730h41l-404 -760h-42zM279 443q0 -53 -35 -87t-88 -34q-34 0 -61 14.5t-43 40.5t-18 58h39q3 -33 26 -54t57 -21q36 0 60 23.5t24 60.5q0 36 -25.5 59.5t-64.5 23.5h-44v10l99 126h-158v37h218v-10l-102 -129q51 -3 83.5 -36.5t32.5 -81.5zM698 200q64 -28 64 -96
q0 -49 -36.5 -80.5t-94 -31.5t-93.5 31.5t-36 80.5q0 69 65 96q-50 26 -50 81q0 43 32 70t83 27t83 -27t32 -70q0 -55 -49 -81zM632 344q-34 0 -54.5 -17.5t-20.5 -45.5q0 -29 21 -47t54 -18q34 0 55 18t21 47q0 28 -21 45.5t-55 17.5zM632 29q41 0 65.5 20.5t24.5 54.5
q0 35 -24.5 56t-65 21t-65.5 -21t-25 -56q0 -22 11.5 -39t32 -26.5t46.5 -9.5z" />
    <glyph glyph-name="fiveeighths" unicode="&#x215d;" horiz-adv-x="793" 
d="M565 730h41l-405 -760h-41zM275 441q0 -52 -34.5 -85.5t-86 -33.5t-85.5 31.5t-35 80.5h40q2 -33 24 -53.5t56 -20.5q35 0 58 22.5t23 58.5q0 35 -24.5 58t-61.5 23h-96l-6 8l20 170h183v-37h-150l-12 -105h61q55 0 90.5 -33.5t35.5 -83.5zM691 200q63 -28 63 -96
q0 -49 -36 -80.5t-93.5 -31.5t-93.5 31.5t-36 80.5q0 69 64 96q-49 26 -49 81q0 28 14.5 50.5t40.5 34.5t60 12q51 0 83 -27t32 -70q0 -55 -49 -81zM625 344q-34 0 -55 -17.5t-21 -45.5q0 -29 21 -47t55 -18q33 0 54 18t21 47q0 28 -20.5 45.5t-54.5 17.5zM625 29
q40 0 65 20.5t25 54.5q0 35 -24.5 56t-65 21t-65.5 -21t-25 -56q0 -22 11 -39t32 -26.5t47 -9.5z" />
    <glyph glyph-name="seveneighths" unicode="&#x215e;" horiz-adv-x="735" 
d="M507 730h41l-405 -760h-41zM123 330h-41l136 333h-195v37h247v-7zM633 200q64 -28 64 -96q0 -49 -36.5 -80.5t-94 -31.5t-93.5 31.5t-36 80.5q0 69 65 96q-50 26 -50 81q0 28 14.5 50.5t40.5 34.5t60 12q51 0 83 -27t32 -70q0 -55 -49 -81zM567 344q-34 0 -55 -17.5
t-21 -45.5q0 -29 21.5 -47t54.5 -18q34 0 54.5 18t20.5 47q0 28 -20.5 45.5t-54.5 17.5zM567 29q40 0 65 20.5t25 54.5q0 35 -24.5 56t-65.5 21q-26 0 -46.5 -9.5t-32 -27t-11.5 -40.5q0 -22 11.5 -39t32 -26.5t46.5 -9.5z" />
    <glyph glyph-name="uni215F" unicode="&#x215f;" horiz-adv-x="342" 
d="M450 730h41l-405 -760h-41zM92 330v334h-70v36h110v-370h-40z" />
    <glyph glyph-name="uni2189" unicode="&#x2189;" horiz-adv-x="827" 
d="M620 730h41l-404 -760h-41zM323 515q0 -88 -38 -140.5t-103.5 -52.5t-103.5 52.5t-38 140.5q0 90 38 141.5t103.5 51.5t103.5 -51.5t38 -141.5zM181 362q47 0 74.5 41t27.5 112q0 48 -12.5 82.5t-35 52.5t-54.5 18q-47 0 -73.5 -40.5t-26.5 -112.5q0 -71 26.5 -112
t73.5 -41zM675 231q34 -2 60.5 -17.5t41.5 -42t15 -58.5q0 -35 -16.5 -62.5t-44.5 -43t-63 -15.5q-33 0 -60.5 14.5t-43.5 40.5t-18 59h40q2 -22 13 -39.5t29 -27t40 -9.5q37 0 60.5 24t23.5 60t-25.5 60t-64.5 24h-44v9l99 127h-158v36h219v-10z" />
    <glyph glyph-name="arrowleft" unicode="&#x2190;" horiz-adv-x="653" 
d="M619 354v-44h-512l225 -217l-31 -28l-271 262v10l271 262l31 -28l-225 -217h512z" />
    <glyph glyph-name="arrowup" unicode="&#x2191;" horiz-adv-x="588" 
d="M561 386l-28 -31l-217 225v-512h-44v512l-217 -225l-28 31l262 271h10z" />
    <glyph glyph-name="arrowright" unicode="&#x2192;" horiz-adv-x="653" 
d="M352 599l271 -262v-10l-271 -262l-31 28l225 217h-512v44h512l-225 217z" />
    <glyph glyph-name="arrowdown" unicode="&#x2193;" horiz-adv-x="588" 
d="M533 357l28 -31l-262 -271h-10l-262 271l28 31l217 -225v512h44v-512z" />
    <glyph glyph-name="uni2196" unicode="&#x2196;" horiz-adv-x="592" 
d="M559 140l-31 -32l-398 402v-337h-41v402l8 8h402v-42h-338z" />
    <glyph glyph-name="uni2197" unicode="&#x2197;" horiz-adv-x="592" 
d="M495 583l8 -8v-402h-41v337l-398 -402l-31 32l398 401h-338v42h402z" />
    <glyph glyph-name="uni2198" unicode="&#x2198;" horiz-adv-x="601" 
d="M459 484h42v-402l-8 -8h-402v42h337l-398 401l31 32l398 -402v337z" />
    <glyph glyph-name="uni2199" unicode="&#x2199;" horiz-adv-x="601" 
d="M571 517l-398 -401h337v-42h-402l-8 8v402h42v-337l398 402z" />
    <glyph glyph-name="partialdiff" unicode="&#x2202;" horiz-adv-x="603" 
d="M242 713q150 0 227 -86t77 -257q0 -65 -13 -145q-12 -70 -49.5 -123.5t-96.5 -83t-131 -29.5q-101 0 -160.5 59t-59.5 153q0 112 76 188.5t195 76.5q67 0 116 -26.5t76 -75.5v15q-2 291 -261 291q-46 0 -111 -11l-1 43q65 11 116 11zM261 33q64 0 115.5 29.5t81 81.5
t29.5 116q0 74 -49 119.5t-130 45.5q-97 0 -160.5 -62.5t-63.5 -158.5q0 -77 48.5 -124t128.5 -47z" />
    <glyph glyph-name="emptyset" unicode="&#x2205;" horiz-adv-x="668" 
d="M502 496q54 -38 84.5 -97t30.5 -130q0 -120 -80 -199.5t-200 -79.5q-72 0 -134 32l-36 -57h-48l49 77q-36 26 -62 60.5t-40.5 78t-14.5 91.5q0 119 80 198.5t200 79.5q75 0 136 -33l36 58h49zM100 272q0 -60 25 -110t69 -81l249 397q-50 27 -112 27q-100 0 -165.5 -66
t-65.5 -167zM337 35q100 0 165.5 66.5t65.5 167.5q0 59 -24 108t-68 81l-248 -397q50 -26 109 -26z" />
    <glyph glyph-name="product" unicode="&#x220f;" horiz-adv-x="724" 
d="M695 700v-48h-116v-812h-51v812h-331v-812h-52v812h-116v48h666z" />
    <glyph glyph-name="summation" unicode="&#x2211;" horiz-adv-x="576" 
d="M119 -113h423v-48h-511v12l290 425l-290 412v12h507v-47h-418l263 -372v-10z" />
    <glyph glyph-name="minus" unicode="&#x2212;" horiz-adv-x="630" 
d="M75 322v46h480v-46h-480z" />
    <glyph glyph-name="radical" unicode="&#x221a;" horiz-adv-x="655" 
d="M310 0l-172 406h-127v43h158l153 -365l290 666h50l-329 -750h-23z" />
    <glyph glyph-name="infinity" unicode="&#x221e;" horiz-adv-x="988" 
d="M739 526q86 0 140.5 -53t54.5 -138t-54.5 -138t-140.5 -53q-41 0 -76.5 12t-66 36.5t-52.5 48t-50 58.5q-29 -35 -50.5 -58t-52.5 -47.5t-66.5 -37t-75.5 -12.5q-56 0 -100.5 24.5t-69.5 68t-25 98.5q0 84 54.5 137.5t140.5 53.5q41 0 76 -12.5t66.5 -37.5t53 -48
t49.5 -59q23 29 40 48t42 41.5t48 35.5t53 22.5t62 9.5zM252 187q33 0 63 11t58 35t47 45t47 56q-29 36 -47.5 57t-46.5 45.5t-58 35.5t-63 11q-70 0 -111.5 -40.5t-41.5 -107.5t41.5 -107.5t111.5 -40.5zM737 187q69 0 110.5 40.5t41.5 107.5t-41.5 107.5t-110.5 40.5
q-34 0 -63.5 -11t-57 -35t-47 -45.5t-47.5 -57.5q28 -35 47 -56.5t46.5 -45t57.5 -34.5t64 -11z" />
    <glyph glyph-name="integral" unicode="&#x222b;" horiz-adv-x="366" 
d="M-18 -297v46h17q51 0 88 19.5t56 56t19 88.5v798q0 89 51 140t140 51h29v-44h-17q-73 0 -113.5 -41t-40.5 -114v-799q0 -93 -53.5 -147t-145.5 -54h-30z" />
    <glyph glyph-name="approxequal" unicode="&#x2248;" horiz-adv-x="574" 
d="M389 372q-30 0 -55.5 14.5t-59.5 49.5q-29 32 -47 44t-39 12q-34 0 -54.5 -28t-20.5 -73v-15h-37v16q0 65 30.5 104t81.5 39q22 0 40 -6t37 -21t42 -41q26 -30 43.5 -41t37.5 -11q34 0 54 27t20 72v14h37v-15q0 -32 -8 -58t-22 -44.5t-34.5 -28.5t-45.5 -10zM393 157
q-31 0 -56.5 14t-59.5 50q-29 32 -47 43.5t-38 11.5q-34 0 -55 -27.5t-21 -73.5v-14h-37v16q0 64 31 103.5t81 39.5q33 0 59.5 -15t59.5 -53q27 -30 44.5 -41t37.5 -11q33 0 53 26.5t20 71.5v14h37v-14q0 -65 -29.5 -103t-79.5 -38z" />
    <glyph glyph-name="notequal" unicode="&#x2260;" horiz-adv-x="630" 
d="M555 435h-200l-44 -174h244v-46h-255l-42 -165h-43l42 165h-182v46h193l44 174h-237v46h248l42 165h43l-41 -165h188v-46z" />
    <glyph glyph-name="lessequal" unicode="&#x2264;" horiz-adv-x="554" 
d="M487 193v-49l-446 243v20l446 248v-48l-368 -210zM63 46h428v-46h-428v46z" />
    <glyph glyph-name="greaterequal" unicode="&#x2265;" horiz-adv-x="554" 
d="M67 655l446 -248v-20l-446 -243v49l368 204l-368 210v48zM63 0v46h428v-46h-428z" />
    <glyph glyph-name="lozenge" unicode="&#x25ca;" horiz-adv-x="559" 
d="M274 0l-240 346v10l240 344h11l241 -344v-10l-241 -346h-11zM280 58l203 293l-203 291l-204 -291z" />
    <glyph glyph-name="K.ss01" horiz-adv-x="600" 
d="M104 0v700h50v-700h-50zM249 364l354 -364h-69l-350 359v9l326 332h66z" />
    <glyph glyph-name="germandbls.calt" horiz-adv-x="663" 
d="M400 442q65 -5 113.5 -32.5t74.5 -75t26 -108.5q0 -100 -68 -163t-182 -63h-90v49h90q89 0 144 49t55 128q0 78 -54.5 126t-143.5 48h-40v13l152 238h-142q-92 0 -140.5 -48t-48.5 -139v-464h-50v468q0 110 61 171t171 61h229v-12z" />
    <glyph glyph-name="i.loclTRK" horiz-adv-x="237" 
d="M88 652v69h61v-69h-61zM94 0v540h49v-540h-49z" />
    <glyph glyph-name="k.ss01" horiz-adv-x="500" 
d="M94 0v731h49v-731h-49zM240 282l263 -282h-64l-256 277v9l239 254h62z" />
    <glyph glyph-name="uni0414.loclBGR" horiz-adv-x="762" 
d="M667 48h61v-194h-48v146h-598v-146h-47v194h61l258 652h45zM377 625l-228 -577h465z" />
    <glyph glyph-name="uni041B.loclBGR" horiz-adv-x="657" 
d="M633 0h-55l-250 625l-248 -625h-53l278 700h45z" />
    <glyph glyph-name="uni0414.ss01" horiz-adv-x="762" 
d="M667 48h61v-194h-48v146h-598v-146h-47v194h61l258 652h45zM377 625l-228 -577h465z" />
    <glyph glyph-name="uni0416.ss01" horiz-adv-x="879" 
d="M26 700h66l292 -332v-8l-315 -360h-68l320 365zM414 0v700h51v-700h-51zM558 365l320 -365h-68l-315 360v8l292 332h66z" />
    <glyph glyph-name="uni041A.ss01" horiz-adv-x="600" 
d="M104 0v700h50v-700h-50zM249 364l354 -364h-69l-350 359v9l326 332h66z" />
    <glyph glyph-name="uni041B.ss01" horiz-adv-x="657" 
d="M633 0h-55l-250 625l-248 -625h-53l278 700h45z" />
    <glyph glyph-name="uni0424.ss01" horiz-adv-x="796" 
d="M424 676q142 -3 232.5 -97t90.5 -229q0 -88 -40 -161t-114.5 -117t-168.5 -46v-84h-51v84q-142 4 -233 97t-91 227q0 88 40.5 161.5t115 118t168.5 46.5v78h51v-78zM101 350q0 -116 77 -195.5t196 -81.5v557q-118 -3 -195.5 -83.5t-77.5 -196.5zM423 73q119 2 195.5 81
t76.5 196q0 57 -20 108.5t-55.5 88.5t-86.5 59t-110 24v-557z" />
    <glyph glyph-name="uni0432.loclBGR" horiz-adv-x="620" 
d="M442 385q59 -21 94 -71.5t35 -113.5q0 -94 -68.5 -152t-175.5 -58q-118 0 -182 75.5t-64 214.5v182q0 137 63 210.5t179 73.5q99 0 162 -54t63 -140q0 -55 -29 -100.5t-77 -66.5zM323 698q-94 0 -144 -59.5t-50 -176.5v-56h220q33 0 61.5 11t48.5 30t31.5 45.5t11.5 56.5
q0 67 -49 108t-130 41zM327 37q88 0 141.5 45.5t53.5 120.5q0 69 -47.5 113t-123.5 44h-222v-80q0 -119 51 -181t147 -62z" />
    <glyph glyph-name="uni0433.loclBGR" horiz-adv-x="513" 
d="M256 -6q-95 0 -152.5 42t-57.5 110q0 25 6.5 45t16 34t27 26t32 19t39 13.5t39.5 9.5t41 8q28 5 42 8t36.5 9t34 13t24.5 17.5t18 24.5t5 32q0 30 -18 52.5t-52 35t-78 12.5q-72 0 -111.5 -31.5t-39.5 -88.5h-45q0 77 53 120t142 43q88 0 142 -39.5t54 -103.5
q0 -23 -6.5 -42t-15 -32t-25.5 -24t-30 -17.5t-37 -13t-38 -9.5t-41 -8q-23 -4 -36 -6.5t-33.5 -7.5t-32 -10.5t-25.5 -14t-21.5 -18.5t-13 -24t-5.5 -32q0 -48 44.5 -76.5t117.5 -28.5q77 0 120 34t43 95h47q0 -84 -56.5 -130t-153.5 -46z" />
    <glyph glyph-name="uni0434.loclBGR" horiz-adv-x="676" 
d="M547 540h34v-462q0 -131 -69 -205.5t-189 -74.5q-93 0 -156.5 45t-88.5 126h49q22 -60 74 -93t122 -33q97 0 153.5 61t56.5 169v61q-23 -35 -56 -61t-75.5 -40t-89.5 -14q-112 0 -188 76t-76 190q0 112 76.5 189t187.5 77q73 0 132.5 -34t94.5 -92zM317 66q94 0 155 62
t61 156.5t-61.5 157t-154.5 62.5q-94 0 -156.5 -63t-62.5 -156.5t62.5 -156t156.5 -62.5z" />
    <glyph glyph-name="uni0436.loclBGR" horiz-adv-x="748" 
d="M682 0l-198 259h-86v-259h-47v259h-86l-198 -259h-61l217 283l-197 257h58l181 -237h86v432h47v-432h85l181 237h58l-196 -257l216 -283h-60z" />
    <glyph glyph-name="uni0437.loclBGR" horiz-adv-x="562" 
d="M402 193q51 -21 83 -70.5t32 -110.5q0 -63 -30.5 -112t-84.5 -76t-124 -27q-98 0 -165.5 53.5t-78.5 139.5h49q11 -65 65 -105t130 -40q55 0 98 21t67 60t24 89q0 25 -7 48t-20.5 41.5t-31.5 32.5t-40.5 22t-47.5 8h-115l-1 47h115q53 0 88.5 41.5t35.5 98.5
q0 44 -21.5 78t-60.5 52.5t-89 18.5q-69 0 -117.5 -38t-57.5 -100h-48q9 83 71 134t152 51q97 0 159 -54t62 -139q0 -53 -25 -97t-66 -67z" />
    <glyph glyph-name="uni0438.loclBGR" horiz-adv-x="641" 
d="M498 540h49v-540h-38l-9 108q-30 -54 -84.5 -86.5t-120.5 -32.5q-96 0 -153 63.5t-57 166.5v321h49v-311q0 -92 45.5 -143.5t126.5 -51.5q79 0 135.5 58.5t56.5 139.5v308z" />
    <glyph glyph-name="uni0439.loclBGR" horiz-adv-x="641" 
d="M449 705v-38h-254v38h254zM498 540h49v-540h-38l-9 108q-30 -54 -84.5 -86.5t-120.5 -32.5q-96 0 -153 63.5t-57 166.5v321h49v-311q0 -92 45.5 -143.5t126.5 -51.5q79 0 135.5 58.5t56.5 139.5v308z" />
    <glyph glyph-name="uni043A.loclBGR" horiz-adv-x="524" 
d="M457 0l-215 259h-94v-259h-49v731h49v-426h95l196 235h60l-215 -258l235 -282h-62z" />
    <glyph glyph-name="uni043B.loclBGR" horiz-adv-x="525" 
d="M499 0h-51l-185 471l-188 -471h-50l217 540h42z" />
    <glyph glyph-name="uni043F.loclBGR" horiz-adv-x="641" 
d="M346 551q96 0 153 -63.5t57 -166.5v-321h-49v311q0 92 -45.5 143.5t-126.5 51.5q-79 0 -135.5 -58.5t-56.5 -139.5v-308h-49v540h37l9 -109q30 55 85 87.5t121 32.5z" />
    <glyph glyph-name="uni0442.loclBGR" horiz-adv-x="954" 
d="M685 551q54 0 96 -26.5t65 -73.5t23 -109v-342h-49v329q0 81 -39 129t-105 48q-74 0 -122 -55t-48 -141v-310h-48v329q0 82 -39 129.5t-106 47.5q-48 0 -87 -25t-61 -69.5t-22 -101.5v-310h-49v540h37l9 -96q18 34 46 57.5t63 36.5t74 13q61 0 106 -33.5t64 -91.5
q26 58 77 91.5t115 33.5z" />
    <glyph glyph-name="uni0446.loclBGR" horiz-adv-x="666" 
d="M547 151q0 -60 25 -88t79 -28v-184h-46v152q-46 5 -69.5 32t-29.5 80q-30 -56 -86.5 -91t-124.5 -35q-96 0 -153 63t-57 167v321h49v-310q0 -92 45.5 -144t126.5 -52q79 0 135.5 58.5t56.5 139.5v308h49v-389z" />
    <glyph glyph-name="uni0448.loclBGR" horiz-adv-x="953" 
d="M810 540h49v-540h-38l-8 94q-28 -49 -76 -77t-107 -28q-61 0 -105.5 33.5t-64.5 91.5q-26 -58 -76.5 -91.5t-114.5 -33.5q-83 0 -133.5 58t-50.5 151v342h48l1 -329q0 -81 39 -129t104 -48q74 0 122 55t49 141v310h48v-329q0 -82 38.5 -129.5t105.5 -47.5q73 0 121 55
t49 141v310z" />
    <glyph glyph-name="uni0449.loclBGR" horiz-adv-x="979" 
d="M859 151q0 -61 25 -88.5t79 -27.5v-184h-46v152q-84 9 -99 97q-27 -52 -77 -81.5t-111 -29.5t-105.5 33.5t-64.5 91.5q-26 -58 -76.5 -91.5t-114.5 -33.5q-83 0 -133.5 58t-50.5 151v342h48l1 -329q0 -81 39 -129t104 -48q74 0 122 55t49 141v310h48v-329
q0 -82 38.5 -129.5t105.5 -47.5q74 0 122 55t48 141v310h49v-389z" />
    <glyph glyph-name="uni044E.loclBGR" horiz-adv-x="848" 
d="M524 551q118 0 196.5 -80.5t78.5 -201t-78 -200.5t-197 -80q-112 0 -189.5 73t-85.5 185h-106v-249h-49v733h49v-438h106q9 112 86 185t189 73zM524 37q97 0 161 66.5t64 166.5t-64 166.5t-161 66.5t-161.5 -66.5t-64.5 -166.5t64.5 -166.5t161.5 -66.5z" />
    <glyph glyph-name="uni0436.ss01" horiz-adv-x="754" 
d="M20 540h59l235 -255v-9l-255 -276h-59l257 281zM353 0v540h48v-540h-48zM497 282l257 -282h-59l-255 276v9l235 255h59z" />
    <glyph glyph-name="uni043A.ss01" horiz-adv-x="501" 
d="M94 0v540h49v-540h-49zM240 282l264 -282h-60l-259 277v9l241 254h58z" />
    <glyph glyph-name="uni0432.ss02" horiz-adv-x="620" 
d="M442 385q59 -21 94 -71.5t35 -113.5q0 -94 -68.5 -152t-175.5 -58q-118 0 -182 75.5t-64 214.5v182q0 137 63 210.5t179 73.5q99 0 162 -54t63 -140q0 -55 -29 -100.5t-77 -66.5zM323 698q-94 0 -144 -59.5t-50 -176.5v-56h220q33 0 61.5 11t48.5 30t31.5 45.5t11.5 56.5
q0 67 -49 108t-130 41zM327 37q88 0 141.5 45.5t53.5 120.5q0 69 -47.5 113t-123.5 44h-222v-80q0 -119 51 -181t147 -62z" />
    <glyph glyph-name="uni0433.ss02" horiz-adv-x="513" 
d="M256 -6q-95 0 -152.5 42t-57.5 110q0 25 6.5 45t16 34t27 26t32 19t39 13.5t39.5 9.5t41 8q28 5 42 8t36.5 9t34 13t24.5 17.5t18 24.5t5 32q0 30 -18 52.5t-52 35t-78 12.5q-72 0 -111.5 -31.5t-39.5 -88.5h-45q0 77 53 120t142 43q88 0 142 -39.5t54 -103.5
q0 -23 -6.5 -42t-15 -32t-25.5 -24t-30 -17.5t-37 -13t-38 -9.5t-41 -8q-23 -4 -36 -6.5t-33.5 -7.5t-32 -10.5t-25.5 -14t-21.5 -18.5t-13 -24t-5.5 -32q0 -48 44.5 -76.5t117.5 -28.5q77 0 120 34t43 95h47q0 -84 -56.5 -130t-153.5 -46z" />
    <glyph glyph-name="uni0434.ss02" horiz-adv-x="676" 
d="M547 540h34v-462q0 -131 -69 -205.5t-189 -74.5q-93 0 -156.5 45t-88.5 126h49q22 -60 74 -93t122 -33q97 0 153.5 61t56.5 169v61q-23 -35 -56 -61t-75.5 -40t-89.5 -14q-112 0 -188 76t-76 190q0 112 76.5 189t187.5 77q73 0 132.5 -34t94.5 -92zM317 66q94 0 155 62
t61 156.5t-61.5 157t-154.5 62.5q-94 0 -156.5 -63t-62.5 -156.5t62.5 -156t156.5 -62.5z" />
    <glyph glyph-name="uni0436.ss02" horiz-adv-x="748" 
d="M682 0l-198 259h-86v-259h-47v259h-86l-198 -259h-61l217 283l-197 257h58l181 -237h86v432h47v-432h85l181 237h58l-196 -257l216 -283h-60z" />
    <glyph glyph-name="uni0437.ss02" horiz-adv-x="562" 
d="M402 193q51 -21 83 -70.5t32 -110.5q0 -63 -30.5 -112t-84.5 -76t-124 -27q-98 0 -165.5 53.5t-78.5 139.5h49q11 -65 65 -105t130 -40q55 0 98 21t67 60t24 89q0 25 -7 48t-20.5 41.5t-31.5 32.5t-40.5 22t-47.5 8h-115l-1 47h115q53 0 88.5 41.5t35.5 98.5
q0 44 -21.5 78t-60.5 52.5t-89 18.5q-69 0 -117.5 -38t-57.5 -100h-48q9 83 71 134t152 51q97 0 159 -54t62 -139q0 -53 -25 -97t-66 -67z" />
    <glyph glyph-name="uni0438.ss02" horiz-adv-x="641" 
d="M498 540h49v-540h-38l-9 108q-30 -54 -84.5 -86.5t-120.5 -32.5q-96 0 -153 63.5t-57 166.5v321h49v-311q0 -92 45.5 -143.5t126.5 -51.5q79 0 135.5 58.5t56.5 139.5v308z" />
    <glyph glyph-name="uni0439.ss02" horiz-adv-x="641" 
d="M449 705v-38h-254v38h254zM498 540h49v-540h-38l-9 108q-30 -54 -84.5 -86.5t-120.5 -32.5q-96 0 -153 63.5t-57 166.5v321h49v-311q0 -92 45.5 -143.5t126.5 -51.5q79 0 135.5 58.5t56.5 139.5v308z" />
    <glyph glyph-name="uni043A.ss02" horiz-adv-x="524" 
d="M457 0l-215 259h-94v-259h-49v731h49v-426h95l196 235h60l-215 -258l235 -282h-62z" />
    <glyph glyph-name="uni043B.ss02" horiz-adv-x="525" 
d="M499 0h-51l-185 471l-188 -471h-50l217 540h42z" />
    <glyph glyph-name="uni043F.ss02" horiz-adv-x="641" 
d="M346 551q96 0 153 -63.5t57 -166.5v-321h-49v311q0 92 -45.5 143.5t-126.5 51.5q-79 0 -135.5 -58.5t-56.5 -139.5v-308h-49v540h37l9 -109q30 55 85 87.5t121 32.5z" />
    <glyph glyph-name="uni0442.ss02" horiz-adv-x="954" 
d="M685 551q54 0 96 -26.5t65 -73.5t23 -109v-342h-49v329q0 81 -39 129t-105 48q-74 0 -122 -55t-48 -141v-310h-48v329q0 82 -39 129.5t-106 47.5q-48 0 -87 -25t-61 -69.5t-22 -101.5v-310h-49v540h37l9 -96q18 34 46 57.5t63 36.5t74 13q61 0 106 -33.5t64 -91.5
q26 58 77 91.5t115 33.5z" />
    <glyph glyph-name="uni0446.ss02" horiz-adv-x="666" 
d="M547 151q0 -60 25 -88t79 -28v-184h-46v152q-46 5 -69.5 32t-29.5 80q-30 -56 -86.5 -91t-124.5 -35q-96 0 -153 63t-57 167v321h49v-310q0 -92 45.5 -144t126.5 -52q79 0 135.5 58.5t56.5 139.5v308h49v-389z" />
    <glyph glyph-name="uni0448.ss02" horiz-adv-x="953" 
d="M810 540h49v-540h-38l-8 94q-28 -49 -76 -77t-107 -28q-61 0 -105.5 33.5t-64.5 91.5q-26 -58 -76.5 -91.5t-114.5 -33.5q-83 0 -133.5 58t-50.5 151v342h48l1 -329q0 -81 39 -129t104 -48q74 0 122 55t49 141v310h48v-329q0 -82 38.5 -129.5t105.5 -47.5q73 0 121 55
t49 141v310z" />
    <glyph glyph-name="uni0449.ss02" horiz-adv-x="979" 
d="M859 151q0 -61 25 -88.5t79 -27.5v-184h-46v152q-84 9 -99 97q-27 -52 -77 -81.5t-111 -29.5t-105.5 33.5t-64.5 91.5q-26 -58 -76.5 -91.5t-114.5 -33.5q-83 0 -133.5 58t-50.5 151v342h48l1 -329q0 -81 39 -129t104 -48q74 0 122 55t49 141v310h48v-329
q0 -82 38.5 -129.5t105.5 -47.5q74 0 122 55t48 141v310h49v-389z" />
    <glyph glyph-name="uni044E.ss02" horiz-adv-x="848" 
d="M524 551q118 0 196.5 -80.5t78.5 -201t-78 -200.5t-197 -80q-112 0 -189.5 73t-85.5 185h-106v-249h-49v733h49v-438h106q9 112 86 185t189 73zM524 37q97 0 161 66.5t64 166.5t-64 166.5t-161 66.5t-161.5 -66.5t-64.5 -166.5t64.5 -166.5t161.5 -66.5z" />
    <glyph glyph-name="uni0436.ss03" horiz-adv-x="755" 
d="M354 0v731h47v-731h-47zM21 540h59l235 -255v-9l-255 -276h-60l257 282zM497 282l258 -282h-60l-255 276v9l235 255h59z" />
    <glyph glyph-name="uni043A.ss03" horiz-adv-x="500" 
d="M94 0v731h49v-731h-49zM240 282l263 -282h-64l-256 277v9l239 254h62z" />
    <glyph glyph-name="zero.sinf" horiz-adv-x="363" 
d="M181.5 -90q-65.5 0 -103.5 52t-38 141t38 140.5t103.5 51.5t103.5 -51.5t38 -140.5t-38 -141t-103.5 -52zM181 -50q47 0 74.5 40.5t27.5 112.5t-27 112t-74.5 40t-74 -40t-26.5 -112t26.5 -112.5t73.5 -40.5z" />
    <glyph glyph-name="one.sinf" horiz-adv-x="192" 
d="M22 288h111v-370h-40v334h-71v36z" />
    <glyph glyph-name="two.sinf" horiz-adv-x="310" 
d="M109 -43h167v-39h-244v12q87 91 126.5 137.5t52 71.5t12.5 51q0 31 -19.5 50t-51.5 19q-16 0 -30 -5t-23.5 -14.5t-15 -22.5t-5.5 -28v-9h-39v9q0 48 31.5 77.5t80.5 29.5q50 0 81.5 -29.5t31.5 -76.5q0 -42 -30 -87t-125 -146z" />
    <glyph glyph-name="three.sinf" horiz-adv-x="315" 
d="M163 148q51 -2 83.5 -35.5t32.5 -82.5q0 -52 -35 -86t-88 -34q-51 0 -85 31.5t-37 81.5h39q3 -34 26 -55t57 -21q36 0 60 24t24 61q0 35 -25.5 59t-64.5 24h-44v9l99 127h-158v36h218v-10z" />
    <glyph glyph-name="four.sinf" horiz-adv-x="322" 
d="M294 32v-36h-40v-78h-39v78h-191v12l132 280h41l-122 -256h140l6 120h33v-120h40z" />
    <glyph glyph-name="five.sinf" horiz-adv-x="307" 
d="M149 146q55 0 90.5 -33.5t35.5 -84.5t-34.5 -84.5t-86 -33.5t-85.5 31.5t-35 80.5h40q2 -33 24 -54t56 -21q35 0 58 23t23 58q0 36 -24.5 59t-61.5 23h-96l-6 8l20 170h183v-37h-150l-12 -105h61z" />
    <glyph glyph-name="six.sinf" horiz-adv-x="321" 
d="M171 149q52 0 87 -33t35 -83q0 -54 -36.5 -88.5t-92.5 -34.5t-92.5 34.5t-36.5 88.5q0 51 40 123l76 137h45l-74 -133q-9 -16 -16 -31q28 20 65 20zM164 -52q39 0 64.5 23.5t25.5 61.5q0 24 -12 43.5t-32.5 30t-45.5 10.5q-39 0 -64.5 -23.5t-25.5 -60.5
q0 -38 25.5 -61.5t64.5 -23.5z" />
    <glyph glyph-name="seven.sinf" horiz-adv-x="292" 
d="M23 288h247v-7l-147 -363h-41l136 333h-195v37z" />
    <glyph glyph-name="eight.sinf" horiz-adv-x="336" 
d="M234 117q64 -28 64 -96q0 -33 -16.5 -58t-46 -39t-67.5 -14q-57 0 -93 31t-36 80q0 69 64 96q-50 26 -50 81q0 43 32 70t83 27t83 -27t32 -70q0 -55 -49 -81zM168 261q-33 0 -54 -17.5t-21 -45.5q0 -29 21 -47t54 -18q22 0 39.5 8t27 23t9.5 34q0 28 -21 45.5t-55 17.5z
M168.5 -54q40.5 0 65 21t24.5 54q0 35 -24.5 56t-65 21t-65.5 -21t-25 -56q0 -33 25 -54t65.5 -21z" />
    <glyph glyph-name="nine.sinf" horiz-adv-x="321" 
d="M157 296q56 0 92.5 -34.5t36.5 -88.5q0 -53 -40 -123l-76 -137h-45l74 133q9 16 16 31q-28 -20 -65 -20q-52 0 -87 33t-35 83q0 54 36.5 88.5t92.5 34.5zM157 89q39 0 64.5 23.5t25.5 61t-25.5 61t-64.5 23.5t-64.5 -23.5t-25.5 -61t25.5 -61t64.5 -23.5z" />
    <glyph glyph-name="zero.tf" horiz-adv-x="556" 
d="M278 -11q-115 0 -182.5 93t-67.5 252q0 160 67.5 252.5t182.5 92.5q116 0 183 -92.5t67 -252.5q0 -159 -67.5 -252t-182.5 -93zM278 35q94 0 148 80t54 219q0 92 -24.5 159.5t-70 103.5t-107.5 36q-94 0 -148 -80t-54 -219t54 -219t148 -80z" />
    <glyph glyph-name="one.tf" horiz-adv-x="556" 
d="M318 44h168v-44h-393v44h177v577h-153v44h201v-621z" />
    <glyph glyph-name="two.tf" horiz-adv-x="556" 
d="M146 46h356v-46h-447v20q123 123 191 194.5t109.5 126.5t53 87.5t11.5 71.5q0 61 -40.5 98t-107.5 37q-44 0 -79 -17t-54.5 -48t-19.5 -70v-19h-47v19q0 81 56 131.5t144 50.5t142 -50.5t54 -131.5q0 -54 -24.5 -105t-92 -130.5t-205.5 -218.5z" />
    <glyph glyph-name="three.tf" horiz-adv-x="556" 
d="M276 411q94 -1 155.5 -61t61.5 -148q0 -92 -63 -152.5t-157 -60.5q-91 0 -152 55.5t-66 142.5h47q5 -68 52.5 -110t118.5 -42q74 0 123 48t49 121q0 71 -52 119t-131 48h-61v14l189 236h-310v44h388v-15l-193 -239h1z" />
    <glyph glyph-name="four.tf" horiz-adv-x="556" 
d="M515 191v-43h-80v-148h-45v148h-354v15l243 502h49l-230 -474h292v233h45v-233h80z" />
    <glyph glyph-name="five.tf" horiz-adv-x="556" 
d="M268 413q99 0 164 -61t65 -151q0 -92 -63.5 -152t-156.5 -60q-91 0 -152.5 56t-66.5 142h48q5 -67 52.5 -109.5t118.5 -42.5q74 0 122.5 47.5t48.5 118.5q0 72 -52 120.5t-129 48.5h-164l-11 10l32 285h328v-44h-288l-23 -208h127z" />
    <glyph glyph-name="six.tf" horiz-adv-x="556" 
d="M293 420q95 0 159 -60.5t64 -152.5q0 -94 -64.5 -155.5t-164.5 -61.5q-99 0 -164 61.5t-65 155.5q0 96 73 228l134 240h53q-145 -261 -163 -301q59 46 138 46zM287 36q78 0 129.5 48.5t51.5 122.5t-51.5 122.5t-129.5 48.5t-129.5 -48.5t-51.5 -122t51.5 -122.5
t129.5 -49z" />
    <glyph glyph-name="seven.tf" horiz-adv-x="556" 
d="M59 665h439v-12l-271 -653h-51l260 621h-377v44z" />
    <glyph glyph-name="eight.tf" horiz-adv-x="556" 
d="M380 361q58 -19 92 -66t34 -109q0 -87 -63.5 -142t-164.5 -55q-67 0 -119 24.5t-80.5 69.5t-28.5 103q0 62 34.5 108.5t93.5 66.5q-31 13 -53.5 35t-34.5 52t-12 64q0 75 55 122.5t144.5 47.5t144.5 -47t55 -123q0 -52 -26 -92t-71 -59zM125 512q0 -59 42 -95t110.5 -36
t111 36t42.5 95q0 57 -42.5 92.5t-110.5 35.5q-34 0 -62.5 -9.5t-48.5 -26t-31 -40.5t-11 -52zM278 32q81 0 130.5 42.5t49.5 109.5q0 70 -49.5 112.5t-130.5 42.5t-130.5 -42.5t-49.5 -112.5q0 -67 49.5 -109.5t130.5 -42.5z" />
    <glyph glyph-name="nine.tf" horiz-adv-x="556" 
d="M269 680q100 0 165 -61.5t65 -156.5q0 -96 -74 -227l-134 -240h-52q144 259 162 300q-58 -46 -137 -46q-93 0 -158.5 60.5t-65.5 152.5q0 47 17.5 87.5t47.5 69t72.5 45t91.5 16.5zM88 462q0 -74 51.5 -122t130.5 -48q51 0 92.5 22t65 61t23.5 87q0 74 -51.5 123
t-129.5 49q-52 0 -93.5 -22.5t-65 -61.5t-23.5 -88z" />
    <glyph glyph-name="zero.dnom" horiz-adv-x="363" 
d="M181.5 -8q-65.5 0 -103.5 52t-38 141q0 90 38 141.5t103.5 51.5t103.5 -51.5t38 -141.5q0 -89 -38 -141t-103.5 -52zM181 32q32 0 54.5 18.5t35 53t12.5 81.5q0 72 -27 112.5t-74.5 40.5t-74 -40.5t-26.5 -112.5q0 -71 26.5 -112t73.5 -41z" />
    <glyph glyph-name="one.dnom" horiz-adv-x="192" 
d="M22 370h111v-370h-40v334h-71v36z" />
    <glyph glyph-name="two.dnom" horiz-adv-x="310" 
d="M109 39h167v-39h-244v12q87 91 126.5 137.5t52 71.5t12.5 51q0 31 -19.5 50t-51.5 19t-53 -19.5t-21 -50.5v-9h-39v9q0 24 8 43.5t23 33.5t36 22t45 8q50 0 81.5 -29.5t31.5 -76.5q0 -42 -30 -87t-125 -146z" />
    <glyph glyph-name="three.dnom" horiz-adv-x="315" 
d="M163 231q51 -2 83.5 -35.5t32.5 -82.5q0 -53 -35 -87t-88 -34q-51 0 -85 32t-37 82h39q3 -34 26 -55t57 -21q36 0 60 24t24 60t-25.5 60t-64.5 24h-44v9l99 127h-158v36h218v-10z" />
    <glyph glyph-name="four.dnom" horiz-adv-x="322" 
d="M295 115v-36h-41v-79h-39v79h-191v12l133 279h40l-122 -255h141l6 119h32v-119h41z" />
    <glyph glyph-name="five.dnom" horiz-adv-x="307" 
d="M149 228q55 0 90.5 -33.5t35.5 -83.5q0 -51 -34.5 -85t-86 -34t-85.5 31.5t-35 80.5h40q2 -33 24 -53.5t56 -20.5q35 0 58 23t23 58t-24.5 58.5t-61.5 23.5h-96l-6 7l20 170h183v-36h-150l-12 -106h61z" />
    <glyph glyph-name="six.dnom" horiz-adv-x="321" 
d="M171 232q21 0 39.5 -5.5t33.5 -16t26 -25t17 -32.5t6 -38q0 -35 -16.5 -63t-46 -44t-66.5 -16q-56 0 -92.5 35t-36.5 88q0 52 40 124l76 136h45l-74 -133q-9 -15 -16 -31q28 21 65 21zM164 30q25 0 45.5 11t32.5 30t12 44q0 37 -25.5 61t-64.5 24t-64.5 -24t-25.5 -61
t25.5 -61t64.5 -24z" />
    <glyph glyph-name="seven.dnom" horiz-adv-x="292" 
d="M24 370h247v-6l-147 -364h-42l136 334h-194v36z" />
    <glyph glyph-name="eight.dnom" horiz-adv-x="336" 
d="M234 200q64 -28 64 -96q0 -49 -36.5 -80.5t-93.5 -31.5t-93 31.5t-36 80.5q0 69 64 96q-50 26 -50 81q0 28 14.5 50.5t41 34.5t59.5 12q51 0 83 -27t32 -70q0 -55 -49 -81zM168 344q-33 0 -54 -17.5t-21 -45.5q0 -29 21 -47t54 -18q22 0 39.5 8t27 22.5t9.5 34.5
q0 28 -21 45.5t-55 17.5zM168 29q41 0 65.5 20.5t24.5 54.5q0 35 -24.5 56t-65 21t-65.5 -21t-25 -56q0 -22 11.5 -39t32 -26.5t46.5 -9.5z" />
    <glyph glyph-name="nine.dnom" horiz-adv-x="321" 
d="M157 378q56 0 92.5 -34.5t36.5 -88.5q0 -53 -40 -123l-76 -137h-45l74 133q9 16 16 31q-28 -20 -65 -20q-52 0 -87 33t-35 83q0 54 36.5 88.5t92.5 34.5zM157 170q39 0 64.5 24t25.5 61.5t-25.5 61t-64.5 23.5t-64.5 -23.5t-25.5 -61t25.5 -61.5t64.5 -24z" />
    <glyph glyph-name="zero.numr" horiz-adv-x="363" 
d="M181.5 322q-65.5 0 -103.5 52.5t-38 140.5q0 90 38 141.5t103.5 51.5t103.5 -51.5t38 -141.5q0 -88 -38 -140.5t-103.5 -52.5zM181 362q47 0 74.5 41t27.5 112q0 48 -12.5 82.5t-35 52.5t-54.5 18q-47 0 -73.5 -40.5t-26.5 -112.5q0 -71 26.5 -112t73.5 -41z" />
    <glyph glyph-name="one.numr" horiz-adv-x="192" 
d="M22 700h110v-370h-40v334h-70v36z" />
    <glyph glyph-name="two.numr" horiz-adv-x="310" 
d="M109 369h167v-39h-244v12q87 91 126.5 137.5t52 71.5t12.5 51q0 20 -9 36t-25 24.5t-37 8.5t-38 -9t-26.5 -25t-9.5 -36v-9h-39v9q0 48 31.5 77.5t80.5 29.5q50 0 81.5 -29.5t31.5 -76.5q0 -42 -30 -87t-125 -146z" />
    <glyph glyph-name="three.numr" horiz-adv-x="315" 
d="M163 561q33 -2 60 -17.5t41.5 -42t14.5 -58.5q0 -53 -35 -87t-88 -34q-34 0 -61 14.5t-43 40.5t-18 58h39q3 -33 26 -54t57 -21q24 0 43 11t30 30t11 43q0 36 -25.5 59.5t-64.5 23.5h-44v10l99 126h-158v37h218v-10z" />
    <glyph glyph-name="four.numr" horiz-adv-x="322" 
d="M295 444v-36h-41v-78h-39v78h-191v12l133 280h40l-122 -256h141l6 120h32v-120h41z" />
    <glyph glyph-name="five.numr" horiz-adv-x="307" 
d="M149 558q55 0 90.5 -33.5t35.5 -83.5q0 -52 -34.5 -85.5t-86 -33.5t-85.5 31.5t-35 80.5h40q2 -33 24 -53.5t56 -20.5q35 0 58 22.5t23 58.5q0 35 -24.5 58t-61.5 23h-96l-6 8l20 170h183v-37h-150l-12 -105h61z" />
    <glyph glyph-name="six.numr" horiz-adv-x="321" 
d="M171 561q52 0 87 -33t35 -83q0 -54 -36.5 -88.5t-92.5 -34.5t-92.5 34.5t-36.5 88.5q0 52 40 123l76 137h45l-74 -133q-9 -16 -16 -31q28 20 65 20zM164 360q39 0 64.5 23.5t25.5 61.5q0 24 -12 43.5t-32.5 30.5t-45.5 11q-39 0 -64.5 -24t-25.5 -61q0 -38 25.5 -61.5
t64.5 -23.5z" />
    <glyph glyph-name="seven.numr" horiz-adv-x="292" 
d="M23 700h247v-7l-147 -363h-41l136 333h-195v37z" />
    <glyph glyph-name="eight.numr" horiz-adv-x="336" 
d="M234 530q64 -28 64 -96q0 -50 -36.5 -81t-93.5 -31t-93 31t-36 81q0 69 64 95q-50 27 -50 82q0 43 32 70t83 27t83 -27t32 -70q0 -56 -49 -81zM168 674q-33 0 -54 -18t-21 -46q0 -29 21 -46.5t54 -17.5q34 0 55 17.5t21 46.5q0 19 -9.5 33.5t-26.5 22.5t-40 8zM168.5 358
q40.5 0 65 21t24.5 55t-24.5 55.5t-65.5 21.5q-26 0 -46.5 -9.5t-32 -27.5t-11.5 -40q0 -34 25 -55t65.5 -21z" />
    <glyph glyph-name="nine.numr" horiz-adv-x="321" 
d="M157 708q37 0 66.5 -15.5t46 -43.5t16.5 -64q0 -53 -40 -123l-76 -137h-45l74 133q9 16 16 31q-28 -20 -65 -20q-52 0 -87 33t-35 83q0 54 36.5 88.5t92.5 34.5zM157 501q39 0 64.5 23.5t25.5 61t-25.5 61t-64.5 23.5t-64.5 -23.5t-25.5 -61t25.5 -61t64.5 -23.5z" />
    <glyph glyph-name="zero.sups" horiz-adv-x="363" 
d="M181.5 422q-65.5 0 -103.5 52.5t-38 140.5q0 90 38 141.5t103.5 51.5t103.5 -51.5t38 -141.5q0 -88 -38 -140.5t-103.5 -52.5zM181 462q32 0 54.5 18.5t35 53t12.5 81.5q0 72 -27 112.5t-74.5 40.5t-74 -40.5t-26.5 -112.5q0 -71 26.5 -112t73.5 -41z" />
    <glyph glyph-name="one.sups" horiz-adv-x="192" 
d="M22 800h111v-370h-40v334h-71v36z" />
    <glyph glyph-name="two.sups" horiz-adv-x="310" 
d="M109 469h167v-39h-244v12q87 91 126.5 137.5t52 71.5t12.5 51q0 20 -9 36t-25 24.5t-37 8.5t-38 -9t-26.5 -25t-9.5 -36v-9h-39v9q0 48 31.5 77.5t80.5 29.5q50 0 81.5 -29.5t31.5 -76.5q0 -42 -30 -87t-125 -146z" />
    <glyph glyph-name="three.sups" horiz-adv-x="315" 
d="M163 661q33 -2 60 -17.5t41.5 -42t14.5 -58.5q0 -26 -9.5 -48.5t-26 -38.5t-39 -25t-48.5 -9q-51 0 -85 32t-37 81h39q3 -33 26 -54t57 -21q24 0 43 11t30 30t11 43q0 36 -25.5 59.5t-64.5 23.5h-44v10l99 126h-158v37h218v-10z" />
    <glyph glyph-name="four.sups" horiz-adv-x="322" 
d="M294 544v-36h-40v-78h-39v78h-191v12l132 280h41l-122 -256h140l6 120h33v-120h40z" />
    <glyph glyph-name="five.sups" horiz-adv-x="307" 
d="M149 658q55 0 90.5 -33.5t35.5 -83.5q0 -52 -34.5 -85.5t-86 -33.5t-85.5 31.5t-35 80.5h40q2 -33 24 -53.5t56 -20.5q35 0 58 22.5t23 58.5q0 35 -24.5 58t-61.5 23h-96l-6 8l20 170h183v-37h-150l-12 -105h61z" />
    <glyph glyph-name="six.sups" horiz-adv-x="321" 
d="M171 661q52 0 87 -33t35 -83q0 -54 -36.5 -88.5t-92.5 -34.5t-92.5 34.5t-36.5 88.5q0 52 40 123l76 137h45l-74 -133q-9 -16 -16 -31q28 20 65 20zM164 460q39 0 64.5 23.5t25.5 61.5q0 24 -12 43.5t-32.5 30.5t-45.5 11q-26 0 -46 -11t-32 -30.5t-12 -43.5
q0 -38 25.5 -61.5t64.5 -23.5z" />
    <glyph glyph-name="seven.sups" horiz-adv-x="292" 
d="M23 800h247v-7l-147 -363h-41l136 333h-195v37z" />
    <glyph glyph-name="eight.sups" horiz-adv-x="336" 
d="M234 630q64 -28 64 -96q0 -50 -36.5 -81t-93.5 -31t-93 31t-36 81q0 69 64 95q-50 27 -50 82q0 43 32 70t83 27t83 -27t32 -70q0 -56 -49 -81zM168 774q-33 0 -54 -18t-21 -46q0 -29 21 -46.5t54 -17.5q34 0 55 17.5t21 46.5q0 19 -9.5 33.5t-26.5 22.5t-40 8zM168.5 458
q40.5 0 65 21t24.5 55t-24.5 55.5t-65 21.5t-65.5 -21.5t-25 -55.5t25 -55t65.5 -21z" />
    <glyph glyph-name="nine.sups" horiz-adv-x="321" 
d="M157 808q56 0 92.5 -34.5t36.5 -88.5q0 -53 -40 -123l-76 -137h-45l74 133q9 16 16 31q-28 -20 -65 -20q-52 0 -87 33t-35 83q0 54 36.5 88.5t92.5 34.5zM157 601q39 0 64.5 23.5t25.5 60.5q0 25 -12 44.5t-32 30t-46 10.5q-39 0 -64.5 -23.5t-25.5 -61t25.5 -61
t64.5 -23.5z" />
    <glyph glyph-name="bullet.case" horiz-adv-x="310" 
d="M155 298q-28 0 -46.5 19t-18.5 46q0 14 5 26t13.5 20.5t20.5 13.5t26 5q28 0 46 -18.5t18 -46.5q0 -27 -18 -46t-46 -19z" />
    <glyph glyph-name="parenleft.case" horiz-adv-x="267" 
d="M181 -119q-125 205 -125 469q0 257 120 465h54q-57 -96 -91 -217t-34 -248q0 -131 35 -252.5t94 -216.5h-53z" />
    <glyph glyph-name="parenright.case" horiz-adv-x="267" 
d="M86 -119h-54q60 95 95 216.5t35 252.5q0 127 -34 248t-91 217h54q119 -208 119 -465q0 -264 -124 -469z" />
    <glyph glyph-name="braceleft.case" horiz-adv-x="343" 
d="M235 -57h87v-45h-103q-46 0 -77 31t-31 78v254q0 19 -9 35t-25.5 25t-35.5 9h-7v42h7q19 0 35.5 9t25.5 25t9 36v250q0 47 31 77.5t77 30.5h101v-44h-85q-17 0 -31 -5.5t-23.5 -15t-15 -23.5t-5.5 -30v-238q0 -32 -17.5 -57.5t-45.5 -35.5q28 -10 45.5 -35t17.5 -57v-242
q0 -21 9.5 -38.5t26.5 -26.5t39 -9z" />
    <glyph glyph-name="braceright.case" horiz-adv-x="343" 
d="M309 372h7v-42h-7q-29 0 -49.5 -20t-20.5 -49v-254q0 -47 -31 -78t-77 -31h-103v45h87q33 0 54 20.5t21 53.5v242q0 32 17.5 57t45.5 35q-28 10 -45.5 35.5t-17.5 57.5v238q0 33 -21 53.5t-54 20.5h-85v44h101q22 0 42 -8t34.5 -22.5t23 -34.5t8.5 -43v-250q0 -30 20 -50
t50 -20z" />
    <glyph glyph-name="bracketleft.case" horiz-adv-x="330" 
d="M104 -105v908h204v-43h-158v-822h160v-43h-206z" />
    <glyph glyph-name="bracketright.case" horiz-adv-x="330" 
d="M226 -105h-206v43h159v822h-157v43h204v-908z" />
    <glyph glyph-name="hyphen.case" horiz-adv-x="456" 
d="M72 317v48h312v-48h-312z" />
    <glyph glyph-name="endash.case" horiz-adv-x="638" 
d="M72 317v47h495v-47h-495z" />
    <glyph glyph-name="emdash.case" horiz-adv-x="891" 
d="M71 317v47h749v-47h-749z" />
    <glyph glyph-name="guillemotleft.case" horiz-adv-x="554" 
d="M220 128l-174 201v11l174 201h59l-178 -206l178 -207h-59zM438 128l-174 201v11l174 201h59l-178 -206l178 -207h-59z" />
    <glyph glyph-name="guillemotright.case" horiz-adv-x="554" 
d="M116 129h-58l177 206l-177 206h58l174 -200v-11zM334 129h-59l178 206l-178 206h59l174 -200v-11z" />
    <glyph glyph-name="guilsinglleft.case" horiz-adv-x="336" 
d="M220 128l-174 201v11l174 201h59l-178 -206l178 -207h-59z" />
    <glyph glyph-name="guilsinglright.case" horiz-adv-x="336" 
d="M116 128h-58l177 207l-177 206h58l174 -201v-11z" />
    <glyph glyph-name="cent.tf" horiz-adv-x="556" 
d="M294 36q66 0 118 33.5t79 92.5l47 -1q-17 -49 -49 -86t-77 -59t-97 -26v-86h-41v86q-105 8 -175 84t-70 184q0 109 69.5 184.5t175.5 82.5v89h41v-89q80 -6 139.5 -52t84.5 -119h-48q-26 59 -78 92t-119 33q-93 0 -155 -63t-62 -158q0 -94 62.5 -158t154.5 -64z" />
    <glyph glyph-name="currency.tf" horiz-adv-x="592" 
d="M541 81l-29 -30l-88 89q-56 -46 -128 -46q-73 0 -129 46l-85 -88l-30 29l86 88q-45 55 -45 127q0 74 47 130l-87 88l29 29l88 -88q55 44 126 44t126 -44l88 88l29 -29l-88 -88q47 -56 47 -130q0 -71 -45 -127zM135 297q0 -67 47.5 -114t113.5 -47q44 0 80.5 21.5t58 58.5
t21.5 81q0 66 -47 113t-113 47q-43 0 -80.5 -21.5t-59 -58.5t-21.5 -80z" />
    <glyph glyph-name="dollar.tf" horiz-adv-x="556" 
d="M512 185q0 -82 -56.5 -134.5t-149.5 -58.5v-88h-42v88q-102 6 -160.5 63t-58.5 149h49q0 -75 52.5 -119.5t137.5 -44.5q78 0 128 40t50 104q0 18 -3.5 33t-12 27t-17 21t-24 17t-27 13t-32 10.5t-33.5 8.5t-36 8q-29 6 -45 10t-43 12t-42 16t-34.5 22t-29.5 29.5
t-17.5 38.5t-7.5 50q0 52 24.5 92t69.5 62.5t106 26.5v83h43v-83q44 -3 80 -18.5t61 -40.5t38.5 -60.5t13.5 -78.5h-49q0 70 -46 110.5t-121 40.5q-50 0 -89 -16t-60.5 -46t-21.5 -70q0 -15 4 -28t8 -23t15 -19.5t18 -15.5t23.5 -13t25 -10t29.5 -8.5t29 -7.5t32 -7
q29 -7 45.5 -11t43.5 -12.5t42.5 -17t35 -22.5t29.5 -30.5t17.5 -40t7.5 -51.5z" />
    <glyph glyph-name="Euro.tf" horiz-adv-x="649" 
d="M470 639q-100 0 -177.5 -55t-107.5 -146h374l-11 -42h-374q-5 -30 -5 -60q0 -33 6 -63h341l-10 -42h-320q30 -90 107.5 -144t176.5 -54q58 0 108 18v-45q-53 -17 -114 -17q-117 0 -207 66.5t-122 175.5h-100l10 42h81q-5 31 -5 63q0 30 4 60h-87l10 42h86
q13 44 35.5 82.5t54 68t69.5 50.5t82 32t91 11q79 0 148 -29l-10 -42q-61 28 -134 28z" />
    <glyph glyph-name="florin.tf" horiz-adv-x="556" 
d="M402 629q-30 0 -56 -12t-42 -34.5t-19 -50.5l-13 -88h164l-6 -40h-162l-69 -475q-8 -58 -46.5 -91.5t-96.5 -33.5h-39l6 43h27q42 0 69.5 24t33.5 68l67 465h-106l6 40h105l14 93q8 58 51 94t105 36h72l-4 -38h-61z" />
    <glyph glyph-name="uni20BD.tf" horiz-adv-x="556" 
d="M337 274h-179v-95h255v-37h-255v-142h-48v142h-79v37h79v96h-79v41h79v349h227q88 0 145.5 -55.5t57.5 -140t-57.5 -140t-145.5 -55.5zM493 469.5q0 65.5 -46 109t-114 43.5h-175v-305h175q68 0 114 43.5t46 109z" />
    <glyph glyph-name="sterling.tf" horiz-adv-x="556" 
d="M479 141h44v-141h-496v36l75 6v257h-67v42h67v139q0 89 57.5 146t143.5 57q85 0 141.5 -56t56.5 -139v-6h-45v3q0 65 -44 109t-109 44t-109 -45.5t-44 -114.5v-137h208v-42h-208v-256h329v98z" />
    <glyph glyph-name="yen.tf" horiz-adv-x="556" 
d="M301 298v-25h210v-34h-210v-90h210v-34h-210v-115h-48v115h-210v34h210v90h-210v34h210v25l-251 367h52l223 -326l225 326h52z" />
    <glyph glyph-name="uni0308.case" 
d="M-371 809v69h64v-69h-64zM-164 809v69h64v-69h-64z" />
    <glyph glyph-name="uni0307.case" 
d="M-211 809v69h65v-69h-65z" />
    <glyph glyph-name="gravecomb.case" 
d="M-185 781l-94 142h52l83 -142h-41z" />
    <glyph glyph-name="acutecomb.case" 
d="M-249 781l82 142h53l-94 -142h-41z" />
    <glyph glyph-name="uni030B.case" 
d="M-387 781l72 142h48l-81 -142h-39zM-231 781l81 142h50l-92 -142h-39z" />
    <glyph glyph-name="uni0302.case" 
d="M-102 781h-46l-104 112l-102 -112h-46l120 142h57z" />
    <glyph glyph-name="uni030C.case" 
d="M-213 923h45l-120 -142h-57l-120 142h46l102 -112z" />
    <glyph glyph-name="uni0306.case" 
d="M-268 775q-67 0 -107 39t-40 109h40v-2q0 -26 7.5 -47.5t22 -35.5t34 -21t43.5 -7q32 0 56 12.5t37 38t13 60.5v2h41q0 -70 -40 -109t-107 -39z" />
    <glyph glyph-name="uni030A.case" 
d="M-218 763q-49 0 -80 30t-31 77t30.5 76t80.5 29q49 0 79.5 -29t30.5 -76q0 -31 -14 -55.5t-39 -38t-57 -13.5zM-218 796q34 0 55 20.5t21 53.5t-21 53t-55 20t-55.5 -20t-21.5 -53t21.5 -53.5t55.5 -20.5z" />
    <glyph glyph-name="tildecomb.case" 
d="M-224 790q-27 0 -47.5 12.5t-45.5 39.5q-20 22 -34 31.5t-31 9.5q-24 0 -39.5 -21t-15.5 -56v-11h-33v13q0 51 23.5 81.5t64.5 30.5q26 0 45.5 -12t43.5 -39q13 -15 23 -24t21 -14t24 -5q17 0 29.5 9.5t19 27t6.5 40.5v9h33v-10q0 -51 -23.5 -81.5t-63.5 -30.5z" />
    <glyph glyph-name="uni0304.case" 
d="M-428 827v43h313v-43h-313z" />
    <glyph glyph-name="uni0326.case" 
d="M-139 -209l-4 26q33 16 33 60h-35v58h62v-54q0 -32 -15.5 -56.5t-40.5 -33.5z" />
    <glyph glyph-name="uni0327.case" 
d="M-206 -53q43 -4 70 -28.5t27 -61.5q0 -39 -32 -64.5t-81 -25.5h-64v32h64q32 0 52.5 16.5t20.5 42.5q0 12 -5.5 23t-15.5 19t-24 12.5t-30 4.5h-18l-6 8l23 87l37 -1z" />
    <glyph glyph-name="uni0328.case" 
d="M-210 -225q-49 0 -79 26t-30 69q0 51 41.5 97t105.5 66l3 -25q-47 -18 -78 -54.5t-31 -74.5q0 -31 22.5 -49.5t60.5 -18.5q25 0 46 9v-33q-28 -12 -61 -12z" />
    <glyph glyph-name="uni0335.case" 
d="M-490 330v45h390v-45h-390z" />
    <glyph glyph-name="uni0336.case" 
d="M-800 551v38h700v-38h-700z" />
    <glyph glyph-name="uni0337.case" 
d="M-427 227v45l386 207v-47z" />
    <glyph glyph-name="uni0338.case" 
d="M-466 -59l498 824h55l-498 -824h-55z" />
    <glyph glyph-name="uni0308.narrow.case" 
d="M-287 809v69h60v-69h-60zM-145 809v69h59v-69h-59z" />
    <glyph glyph-name="gravecomb.narrow.case" 
d="M-101 781h-41l-66 142h52z" />
    <glyph glyph-name="acutecomb.narrow.case" 
d="M-329 781l55 142h51l-66 -142h-40z" />
    <glyph glyph-name="uni0302.narrow.case" 
d="M-186 781h-44l-86 112l-86 -112h-44l104 142h52z" />
    <glyph glyph-name="uni0306.narrow.case" 
d="M-268 775q-62 0 -98.5 39.5t-36.5 108.5h40v-2q0 -53 25.5 -82t69.5 -29t69 29t25 82v2h41q0 -46 -17 -79.5t-47.5 -51t-70.5 -17.5z" />
    <glyph glyph-name="tildecomb.narrow.case" 
d="M-227 790q-14 0 -27 4t-24.5 12.5t-18.5 15.5t-18 19q-9 11 -14.5 16.5t-14.5 12.5t-17.5 10t-17.5 3q-22 0 -36 -21t-14 -56v-11h-31v13q0 51 21.5 81.5t58.5 30.5q20 0 37 -8.5t26.5 -17t23.5 -25.5q13 -15 20 -21.5t19.5 -14t26.5 -7.5q22 0 35.5 21t13.5 56v9h31v-10
q0 -51 -21.5 -81.5t-58.5 -30.5z" />
    <glyph glyph-name="uni0304.narrow.case" 
d="M-366 827v45h248v-45h-248z" />
    <glyph glyph-name="uni0308.narrow" 
d="M-284 651v69h58v-69h-58zM-160 650v70h57v-70h-57z" />
    <glyph glyph-name="gravecomb.narrow" 
d="M-157 606h-42l-65 152h52z" />
    <glyph glyph-name="acutecomb.narrow" 
d="M-328 606l55 152h52l-66 -152h-41z" />
    <glyph glyph-name="uni0302.narrow" 
d="M-96 606h-43l-90 120l-89 -120h-43l107 152h51z" />
    <glyph glyph-name="uni0306.narrow" 
d="M-268 600q-63 0 -101 42t-38 116h40v-2q0 -58 27 -89.5t72.5 -31.5t71.5 31.5t26 89.5v2h41q0 -74 -38 -116t-101 -42z" />
    <glyph glyph-name="tildecomb.narrow" 
d="M-230 616q-18 0 -34.5 8.5t-25.5 17.5t-23 26q-11 12 -15 16.5t-13 12t-17 10.5t-17 3q-21 0 -34 -18.5t-13 -49.5v-18h-35v16q0 50 21 79.5t58 29.5q19 0 36 -9.5t26 -18t23 -25.5q12 -14 19 -21.5t18.5 -14t22.5 -6.5q15 0 25.5 8t16 24t5.5 37v15h35v-13
q0 -51 -21 -80t-58 -29z" />
    <glyph glyph-name="uni0304.narrow" 
d="M-351 667v40h246v-40h-246z" />
    <glyph glyph-name="tonos.case" horiz-adv-x="324" 
d="M87 558l82 142h53l-94 -142h-41z" />
    <glyph glyph-name="dieresistonos.narrow" horiz-adv-x="442" 
d="M178 606l39 152h44l-49 -152h-34zM83 656v60h54v-60h-54zM304 656v60h53v-60h-53z" />
    <glyph glyph-name="brevecombcy" horiz-adv-x="469" 
d="M108 667v38h254v-38h-254z" />
    <glyph glyph-name="brevecombcy.case" horiz-adv-x="504" 
d="M115 826v40h274v-40h-274z" />
    <glyph glyph-name="fontfabric" horiz-adv-x="694" 
d="M614 495h-313v-72h313v-205h-313v-218h-201v700h514v-205zM531 336h-322v249h322v23h-346v-511h24v217h322v22z" />
    </font>
</defs>
</svg>
