<?xml version="1.0" encoding="UTF-8" standalone="no"?>
<!-- Created with Inkscape (http://www.inkscape.org/) -->

<svg
   xmlns:dc="http://purl.org/dc/elements/1.1/"
   xmlns:cc="http://creativecommons.org/ns#"
   xmlns:rdf="http://www.w3.org/1999/02/22-rdf-syntax-ns#"
   xmlns:svg="http://www.w3.org/2000/svg"
   xmlns="http://www.w3.org/2000/svg"
   xmlns:sodipodi="http://sodipodi.sourceforge.net/DTD/sodipodi-0.dtd"
   xmlns:inkscape="http://www.inkscape.org/namespaces/inkscape"
   width="744.09448819"
   height="1052.3622047"
   id="svg3055"
   version="1.1"
   inkscape:version="0.48.2 r9819"
   sodipodi:docname="lannister.svg">
  <defs
     id="defs3057" />
  <sodipodi:namedview
     id="base"
     pagecolor="#ffffff"
     bordercolor="#666666"
     borderopacity="1.0"
     inkscape:pageopacity="0.0"
     inkscape:pageshadow="2"
     inkscape:zoom="0.35"
     inkscape:cx="195.3156"
     inkscape:cy="566.43453"
     inkscape:document-units="px"
     inkscape:current-layer="layer1"
     showgrid="false"
     inkscape:window-width="1366"
     inkscape:window-height="716"
     inkscape:window-x="-8"
     inkscape:window-y="-8"
     inkscape:window-maximized="1" />
  <metadata
     id="metadata3060">
    <rdf:RDF>
      <cc:Work
         rdf:about="">
        <dc:format>image/svg+xml</dc:format>
        <dc:type
           rdf:resource="http://purl.org/dc/dcmitype/StillImage" />
        <dc:title />
      </cc:Work>
    </rdf:RDF>
  </metadata>
  <g
     inkscape:label="Livello 1"
     inkscape:groupmode="layer"
     id="layer1">
    <g
       id="g3098"
       transform="translate(2082.8571,248.57143)" />
    <g
       id="g3074"
       transform="translate(2071.4286,-28.571429)" />
    <path
       style="fill:#eee;stroke:#000000;stroke-width:0.25130117;stroke-miterlimit:4;stroke-opacity:1;stroke-dasharray:none"
       d="m 373.88325,824.21428 c -3.85077,-2.00708 -6.76961,-6.5396 -6.05214,-9.39808 0.71787,-2.86026 -2.54647,-5.89116 -6.34498,-5.89116 -1.60436,0 -3.29997,0.38299 -3.76806,0.85105 -1.15534,1.15531 -1.07186,4.83038 0.17767,7.82091 1.06378,2.54599 0.50049,4.0941 -1.48965,4.0941 -1.34403,0 -7.09026,-4.06979 -8.80871,-6.23876 -1.36025,-1.7169 -1.47115,-2.47343 -1.06067,-7.23657 0.57014,-6.61557 0.57014,-6.64393 -0.0109,-11.17034 -0.54455,-4.24327 -1.60251,-4.74296 -3.7266,-1.75989 -1.08149,1.51875 -1.31483,2.70255 -1.0303,5.22673 0.49214,4.36622 -0.6617,4.97123 -3.75789,1.97032 -2.30481,-2.23392 -2.42101,-2.58678 -2.42101,-7.35163 0,-4.54148 0.22049,-5.31514 2.38068,-8.3535 1.30934,-1.84161 3.10314,-5.35127 3.98617,-7.79921 2.21365,-6.1367 5.32865,-9.67244 12.5969,-14.29837 3.4176,-2.17517 10.11118,-6.43449 14.87458,-9.46511 15.32774,-9.75205 20.77102,-15.17195 26.34976,-26.23648 1.71917,-3.40971 2.41003,-6.03686 3.03662,-11.54725 0.79488,-6.99022 0.77873,-7.16781 -0.80479,-8.85338 -1.18282,-1.25907 -1.5112,-2.251 -1.22516,-3.70112 0.28046,-1.42185 -0.0737,-2.56052 -1.25461,-4.03384 -1.89486,-2.364 -3.56523,-2.14092 -4.61347,0.61613 -0.79892,2.10131 -2.56719,2.36161 -3.16868,0.46647 -0.49926,-1.57298 0.68985,-5.05827 1.72577,-5.05827 1.24921,0 0.75594,-1.68894 -1.11463,-3.81638 -1.59362,-1.8125 -1.99761,-1.95169 -3.57684,-1.23214 -2.42115,1.10313 -3.30254,0.36218 -2.79393,-2.34885 0.3435,-1.83107 0.0814,-2.5939 -1.35478,-3.94313 l -1.7807,-1.67286 -1.64144,1.5421 c -3.15236,2.96145 -5.45742,0.96777 -3.15099,-2.72537 1.44155,-2.3083 -0.11784,-3.92752 -3.56947,-3.70642 l -2.8453,0.1823 -0.49448,-4.26035 c -0.49274,-4.24556 -0.50257,-4.26034 -2.83122,-4.26034 -2.55091,0 -3.23314,-0.91368 -2.71324,-3.63354 0.40867,-2.13762 -2.42712,-6.93088 -4.12641,-6.97487 -0.63778,-0.0165 -1.72948,0.83978 -2.42607,1.90287 -2.5712,3.92417 -7.62442,8.66917 -12.96887,12.17791 -3.67574,2.41319 -6.06835,4.5744 -7.23482,6.53508 -0.95858,1.61122 -2.78695,4.13414 -4.06305,5.60648 -2.67922,3.09117 -9.4807,8.49983 -10.68873,8.49983 -1.716,0 -0.71934,-2.74612 1.65355,-4.55603 4.71976,-3.59991 8.34856,-8.26176 7.27035,-9.33996 -0.17258,-0.17258 -1.71769,0.32317 -3.43358,1.10169 -3.96701,1.79987 -10.9417,1.9213 -14.44339,0.25146 -3.83592,-1.82925 -3.17504,-4.41372 0.78098,-3.05414 1.11753,0.38406 3.52928,0.97385 5.35951,1.31069 3.09707,0.57 3.5098,0.4623 5.9563,-1.55431 2.79376,-2.30289 10.2198,-13.20551 10.2198,-15.00437 0,-0.58867 -0.61946,-1.07031 -1.37661,-1.07031 -2.22646,0 -2.31837,-1.10753 -0.45857,-5.52623 1.96967,-4.6797 3.15604,-11.49523 2.00098,-11.49523 -0.39935,0 -1.47775,0.79235 -2.39634,1.76083 -0.91862,0.96844 -2.06916,1.76631 -2.55673,1.77305 -1.62111,0.0225 -0.91975,-2.94506 2.30499,-9.75252 2.74276,-5.79008 3.19151,-7.37222 3.19151,-11.25241 0,-5.08762 -0.99127,-5.87994 -2.98123,-2.38286 -0.6645,1.16777 -1.70175,2.12322 -2.30499,2.12322 -1.80503,0 -1.27477,-2.8904 1.31949,-7.19251 2.12115,-3.51763 3.66861,-8.60189 5.18967,-17.05099 0.19456,-1.08074 -0.1242,-2.56923 -0.7378,-3.44527 -1.41567,-2.02113 -0.97268,-4.91446 2.11256,-13.79808 3.0133,-8.67652 7.11447,-17.53225 10.88215,-23.49795 3.23595,-5.12373 3.34411,-5.61422 1.46055,-6.62227 -4.73433,-2.53374 -12.81273,1.96138 -12.81273,7.1295 0,1.03082 0.63832,2.6857 1.41849,3.6775 3.80327,4.8351 0.007,5.45238 -4.95946,0.80649 -1.91413,-1.79043 -3.81538,-3.04821 -4.22498,-2.79504 -0.40961,0.25315 -0.74476,1.58915 -0.74476,2.96887 0,5.33314 -1.99094,9.91942 -5.78818,13.33345 -1.96679,1.76831 -4.41378,3.61666 -5.43776,4.10743 -1.91894,0.91975 -2.07344,1.27501 -3.92716,9.03173 -1.07025,4.47839 -1.05961,4.63794 0.41326,6.20576 1.08695,1.15699 2.32402,1.61223 4.40233,1.62002 5.37202,0.0203 6.14369,2.15131 1.26923,3.5051 -7.09914,1.9716 -15.22708,0.19511 -21.29059,-4.65348 -5.65141,-4.51907 -5.36884,-4.377 -4.7789,-2.40305 0.87614,2.93159 4.64635,6.06983 11.37864,9.47129 9.20559,4.65113 12.77639,8.08914 14.8338,14.28229 0.9071,2.73054 1.88439,7.51236 2.17176,10.62635 0.40764,4.41719 0.88904,6.09735 2.18996,7.64341 4.04177,4.80338 -1.54561,5.19585 -6.45627,0.45348 -3.23221,-3.12146 -5.29235,-3.59499 -5.29235,-1.21645 0,2.33872 -2.57829,7.1869 -5.3274,10.01756 -1.34651,1.38647 -4.38303,3.5521 -6.74781,4.8125 -4.69487,2.50232 -9.035,6.50854 -9.64109,8.89929 -0.41786,1.64808 1.09549,5.12109 2.87499,6.59792 1.63481,1.3568 1.35839,2.87573 -0.52334,2.87573 -2.27888,0 -5.80974,-3.945 -7.16338,-8.00359 -1.42843,-4.28281 -1.46118,-12.87075 -0.0642,-16.83025 1.26624,-3.58899 0.56786,-4.92073 -2.31334,-4.41118 -4.1015,0.72534 -7.84801,6.28386 -13.64205,20.2402 -4.04395,9.74079 -9.48077,15.62049 -16.5856,17.93657 -1.99842,0.65148 -4.9101,2.20983 -6.47037,3.463 -3.68609,2.96055 -5.18223,3.72184 -8.99239,4.5757 -4.59303,1.02934 -13.49857,-1.53065 -12.26547,-3.52584 0.1969,-0.31858 2.18809,-0.79927 4.42487,-1.06825 4.34232,-0.52212 6.07419,-1.5991 7.73441,-4.80959 0.80639,-1.5594 0.86972,-2.49958 0.282,-4.18557 -1.41807,-4.0679 -0.9549,-8.71221 1.11413,-11.17107 1.29491,-1.53897 1.6449,-2.45208 1.13522,-2.96181 -1.43141,-1.43137 -3.66697,0.25069 -10.10199,7.60083 -5.16847,5.90346 -7.62129,8.08046 -11.93927,10.59675 -2.98895,1.7418 -6.30395,3.17265 -7.36661,3.17971 -1.41544,0.009 -2.22155,0.57242 -3.01422,2.10527 -1.52548,2.94995 -1.33852,4.2541 1.06533,7.43114 1.15938,1.53229 2.10798,3.08285 2.10798,3.44573 0,1.19143 -3.83033,-0.22629 -7.66991,-2.83884 -4.35702,-2.96468 -6.64415,-6.77533 -6.41456,-10.68757 0.085,-1.44892 -0.41227,-4.11757 -1.10507,-5.93028 -1.12725,-2.94938 -1.59008,-3.38834 -4.40304,-4.17592 -1.72889,-0.48406 -3.22695,-0.75627 -3.32904,-0.60493 -0.10212,0.15134 -1.08966,1.50214 -2.19458,3.00179 -1.73531,2.3553 -1.95008,3.15569 -1.57706,5.87725 0.34719,2.53296 0.20301,3.2384 -0.73541,3.5985 -1.54947,0.59457 -4.02258,-2.54704 -5.97456,-7.58952 -0.83107,-2.14699 -2.58706,-4.89097 -3.90216,-6.0977 -2.64442,-2.42652 -4.53908,-6.29741 -4.53908,-9.27362 0,-2.40307 3.94145,-9.04683 6.03026,-10.16472 0.85049,-0.45517 2.70411,-2.79544 4.11919,-5.20059 6.29464,-10.69884 16.54519,-18.23184 29.92194,-21.98934 6.66331,-1.87173 19.42538,-4.02134 23.85072,-4.01741 3.4082,0.004 10.38419,-3.2496 12.64285,-5.89484 3.47989,-4.07558 3.56024,-4.54444 1.71063,-9.98262 -0.93344,-2.74433 -2.01243,-5.305 -2.39778,-5.69038 -0.46138,-0.46135 -1.6572,0.29484 -3.50172,2.21446 -3.83483,3.99091 -13.19481,7.40269 -14.50278,5.28636 -0.2019,-0.3267 0.8832,-1.81483 2.41132,-3.30704 5.0567,-4.93772 5.01774,-10.00474 -0.0441,-5.74542 -2.5654,2.15861 -3.50337,2.32048 -3.49919,0.60377 0.004,-1.43593 3.3244,-6.65426 5.56041,-8.73742 1.56843,-1.46118 1.98431,-3.13154 0.94036,-3.77673 -0.3237,-0.20007 -2.30748,1.37688 -4.40845,3.50428 -2.10099,2.1274 -4.2298,3.86798 -4.73071,3.86798 -1.92403,0 -0.7601,-3.26544 2.89472,-8.12133 2.09303,-2.78084 4.3057,-6.02332 4.91702,-7.20548 1.33907,-2.5895 4.26795,-13.76359 3.74475,-14.28679 -0.20407,-0.20405 -3.08503,2.38612 -6.40217,5.75595 -5.52661,5.61437 -8.90202,7.63437 -8.90202,5.32735 0,-0.43979 2.17798,-3.39195 4.83996,-6.56036 9.19452,-10.94369 10.36527,-13.08693 5.88246,-10.76878 -1.19651,0.61874 -5.0239,1.88726 -8.50526,2.81895 -6.86457,1.83708 -10.92488,1.7365 -21.61351,-0.53537 -7.78899,-1.65555 -8.1294,-3.41837 -0.85056,-4.40463 4.61213,-0.62493 8.27144,-2.80273 13.29289,-7.91112 3.35052,-3.40854 6.18592,-7.80364 5.37809,-8.33646 -0.10841,-0.0715 -1.79292,-1.0377 -3.74329,-2.14708 -5.28186,-3.00434 -9.51359,-6.68309 -10.96873,-9.5354 -0.71164,-1.39495 -3.06319,-4.15681 -5.22569,-6.13747 -3.83149,-3.50938 -5.30142,-6.28613 -4.47191,-8.44775 0.66053,-1.72136 1.40977,-1.26034 3.45527,2.1261 2.44668,4.05064 4.09037,4.22804 4.09037,0.44145 0,-2.71058 1.43186,-4.85596 2.71262,-4.06438 0.35593,0.21995 0.86401,2.60112 1.12913,5.29147 0.72309,7.33817 1.01667,7.56352 9.75612,7.4888 6.38318,-0.0546 7.77997,-0.29543 10.87048,-1.87442 1.96391,-1.0034 5.39181,-3.82349 7.68269,-6.32043 2.27508,-2.47975 5.4101,-5.86605 6.96665,-7.52512 2.49172,-2.65577 10.69642,-8.4626 17.72848,-12.5472 l 2.37432,-1.37914 -3.19149,-0.46877 c -1.75536,-0.25782 -5.09371,-0.99361 -7.41861,-1.63508 -2.32489,-0.64147 -4.64323,-1.16631 -5.15186,-1.16631 -1.47582,0 -5.85106,-3.09773 -5.86071,-4.14947 -0.0102,-1.11227 2.75858,-0.90019 11.69351,0.89568 13.21365,2.65587 15.92678,2.74171 25.31206,0.80074 4.75508,-0.9834 8.94019,-2.08256 9.30022,-2.44259 0.95167,-0.95167 0.082,-1.96918 -2.15843,-2.52526 -2.2609,-0.56116 -5.1486,-3.0318 -5.1486,-4.40499 0,-1.2492 0.55385,-1.20073 6.56934,0.57494 4.32788,1.27752 7.91379,1.60129 22.86363,2.06439 16.70583,0.51749 19.80157,0.88122 27.48257,3.22896 0.99474,0.30404 1.24114,-0.0525 1.24114,-1.79612 0,-1.19651 0.27326,-2.17547 0.60724,-2.17547 0.33399,0 2.10336,1.14237 3.93194,2.5386 1.82858,1.39622 7.69902,5.43303 13.0454,8.97068 5.34638,3.53766 12.03146,8.14003 14.85576,10.22751 4.56348,3.37295 7.27642,4.63002 7.27642,3.37159 0,-0.2331 -1.30892,-4.14272 -2.90869,-8.68804 -7.80622,-22.17888 -16.85716,-34.95957 -37.87192,-53.47828 -12.26656,-10.80958 -21.94634,-20.15099 -25.48762,-24.59671 -5.01634,-6.29749 -16.7309,-23.17845 -21.07367,-30.36766 -1.94397,-3.21812 -3.70315,-5.85113 -3.90933,-5.85113 -0.20617,0 -1.22196,0.58637 -2.25739,1.30304 -2.78969,1.93095 -4.42818,2.36421 -5.51857,1.45927 -1.38805,-1.15197 -1.22018,-2.20156 0.83701,-5.23296 2.3038,-3.39484 2.08186,-5.60493 -0.59374,-5.91219 -2.91557,-0.33482 -5.9829,3.2088 -6.51808,7.53023 -0.64098,5.17563 -2.36768,10.44164 -3.86948,11.80073 -1.69367,1.53276 -6.27186,2.65198 -6.8725,1.68012 -0.23773,-0.38467 0.68388,-1.86741 2.04802,-3.29499 3.43011,-3.58959 4.05747,-7.27819 1.64772,-9.68794 -1.73049,-1.73049 -4.09882,-2.22148 -6.41965,-1.33091 -1.47865,0.56743 -3.92856,5.3514 -3.92856,7.67144 0,2.21178 -1.96542,7.39917 -3.46444,9.1438 -1.46233,1.70192 -5.38079,3.31028 -8.06481,3.31028 -3.13621,0 -7.42316,-1.44401 -8.79843,-2.96365 -1.14534,-1.26558 -1.03283,-1.48386 2.4116,-4.67844 4.37254,-4.05536 5.30928,-7.22184 3.39336,-11.47062 -1.34431,-2.98112 -3.4927,-4.30014 -6.96476,-4.27603 -6.86281,0.0477 -8.92478,8.99046 -3.46609,15.03255 3.45468,3.82392 2.50485,4.62316 -4.32487,3.63925 -6.55533,-0.94439 -8.65895,-1.97897 -16.29214,-8.0125 -7.92948,-6.26776 -8.74045,-6.53051 -11.30311,-3.6624 -2.45208,2.74437 -2.50913,4.6634 -0.23802,8.0057 1.34555,1.98011 2.70871,2.8997 5.85117,3.94718 3.08969,1.02991 4.09688,1.69983 4.09688,2.725 0,1.2139 -0.79677,1.42581 -7.44688,1.98049 -10.10192,0.84258 -14.94412,-0.15001 -18.60866,-3.81454 -2.10135,-2.10134 -2.66816,-3.21322 -2.66816,-5.23389 0,-1.41116 -0.29807,-2.56574 -0.66236,-2.56574 -0.36428,0 -1.56112,1.31292 -2.65959,2.9176 -1.0985,1.60468 -3.75261,3.96653 -5.89802,5.24856 -3.26631,1.95185 -4.82588,2.39446 -9.58896,2.72146 -6.62579,0.45486 -8.02844,-0.0234 -6.63098,-2.26109 0.51271,-0.82102 1.83096,-1.86502 2.92936,-2.32001 2.68263,-1.11117 5.24252,-5.7934 5.77449,-10.56189 0.55059,-4.93502 -0.4103,-6.83259 -2.15484,-4.25536 -1.70762,2.52273 -7.87398,8.23384 -11.48306,10.6353 -3.53394,2.35144 -12.1274,4.53844 -15.19003,3.86578 -3.5884,-0.78814 -6.45022,-0.48677 -9.75578,1.02735 -4.572,2.09421 -5.99253,1.88223 -9.5864,-1.43051 -3.28951,-3.03216 -5.07937,-7.20914 -4.23247,-9.87743 0.59303,-1.86851 1.29703,-1.74849 4.08089,0.69578 3.65787,3.21165 5.7602,3.45241 8.12438,0.9304 1.0825,-1.1548 2.61087,-3.18209 3.39638,-4.50507 1.2148,-2.04611 1.87646,-2.438 4.42943,-2.62338 3.4999,-0.25413 5.40424,-2.40026 3.18413,-3.58841 -1.38861,-0.74318 -4.6722,-0.25278 -11.08324,1.6553 -2.86997,0.85417 -5.63263,1.14031 -8.86534,0.91821 -4.11108,-0.28245 -5.20171,-0.0711 -8.75399,1.69625 -4.452437,2.21521 -8.974976,2.60687 -11.830382,1.02453 -2.205292,-1.2221 -3.578246,-0.78045 -5.662471,1.82146 -1.58337,1.97671 -1.631996,2.29545 -0.755106,4.95238 0.788174,2.38824 0.781401,2.93597 -0.04257,3.44522 -1.909778,1.1803 -5.248613,-2.12095 -8.396832,-8.30226 -1.827138,-3.58747 -1.372074,-5.32789 2.651764,-10.14241 1.945589,-2.32786 2.91536,-4.37311 3.58369,-7.55788 1.2311,-5.86669 0.3731,-7.00762 -3.829811,-5.09265 -1.216076,0.55407 -2.054624,1.7325 -2.55491,3.59032 -0.604432,2.24472 -1.02991,2.72382 -2.259283,2.54404 -3.178161,-0.46476 -3.516359,-9.58146 -0.534435,-14.40632 1.126166,-1.82218 2.780975,-3.16827 5.254546,-4.27424 4.604965,-2.05898 9.049186,-6.47038 7.503198,-7.44782 -1.848836,-1.16893 -4.395772,-0.74416 -6.874539,1.14647 -2.733593,2.08502 -4.464894,1.83563 -4.464894,-0.64312 0,-2.09235 3.375585,-6.85252 6.372782,-8.98672 2.940782,-2.09401 10.170653,-2.77827 13.176236,-1.24705 1.64498,0.83807 3.944674,0.98668 10.947767,0.70747 8.73974,-0.34845 8.9338,-0.32241 13.69723,1.83823 2.65755,1.20543 6.64695,3.29157 8.86534,4.63587 5.12462,3.1054 10.90248,5.03898 21.51743,7.20087 4.63845,0.94469 8.98515,2.00052 9.65935,2.34629 3.43246,1.76037 11.50457,3.00133 18.23903,2.80396 6.20102,-0.18174 7.11498,-0.36902 7.33193,-1.50232 0.13631,-0.71209 -0.32669,-1.7148 -1.02886,-2.22825 -1.08201,-0.79119 -1.13235,-1.10746 -0.33009,-2.07413 1.19153,-1.43572 3.52419,-1.47979 4.0626,-0.0767 0.57255,1.4921 2.1501,1.32617 2.56754,-0.27008 0.31664,-1.21086 0.68591,-1.26724 4.00368,-0.61124 4.2496,0.84025 5.07987,0.41015 3.20579,-1.66069 -1.32184,-1.4606 -1.32139,-1.50458 0.0263,-2.48997 0.7545,-0.55172 1.87804,-0.84245 2.49673,-0.64608 1.82402,0.57892 6.52497,0.59953 9.76522,0.0428 4.00169,-0.68753 4.18347,-2.7353 0.35464,-3.9954 -1.46279,-0.48142 -4.12765,-2.11146 -5.92193,-3.62234 -3.57264,-3.00837 -5.15563,-6.49452 -4.77407,-10.51395 0.19943,-2.10122 0.50133,-2.4745 2.00112,-2.4745 1.54519,0 1.84246,0.41708 2.37499,3.33213 1.08727,5.9513 6.58893,9.78859 14.03421,9.78859 5.0673,0 13.30889,-6.10847 12.3439,-9.14897 -0.67904,-2.13943 -6.34464,-2.12713 -8.62878,0.0187 -1.84817,1.73623 -3.80524,1.34414 -3.80524,-0.76235 0,-2.80694 2.29685,-7.08967 4.84961,-9.04265 2.31283,-1.76938 3.33516,-2.02583 9.33495,-2.34161 6.32227,-0.33274 6.75163,-0.45299 6.96427,-1.95037 0.27083,-1.90684 0.004,-1.93597 -3.94563,-0.42821 -2.91414,1.11293 -3.30131,1.09664 -8.27305,-0.34796 -6.81633,-1.98058 -10.73844,-4.27102 -13.68094,-7.98943 -3.1598,-3.99306 -2.87517,-5.22904 1.21723,-5.28551 3.32855,-0.046 6.12926,-1.18487 7.58907,-3.0862 3.67131,-4.78176 -3.6499,-5.21425 -12.92089,-0.76329 -3.12059,1.49818 -7.08014,3.13444 -8.79903,3.63611 -3.01387,0.87966 -3.28828,0.82469 -7.70259,-1.54299 -5.52675,-2.96439 -8.99218,-7.24458 -8.88644,-10.97583 0.085,-2.99783 3.30124,-8.28055 6.01871,-9.88581 2.38191,-1.40701 2.44837,-1.03911 0.84473,4.67617 -1.39419,4.96887 -0.98332,6.97463 1.76073,8.59558 3.19733,1.88871 5.88567,1.57963 8.2978,-0.95401 1.14568,-1.2034 4.3969,-3.9341 7.22496,-6.06822 l 5.1419,-3.88023 0,-4.84623 c 0,-3.71888 -0.31595,-5.23572 -1.35822,-6.52057 l -1.35818,-1.67434 -1.81917,1.70608 c -1.33188,1.24912 -1.70673,2.1539 -1.3995,3.37804 0.40533,1.61485 -0.70017,3.78123 -1.9295,3.78123 -0.32922,0 -2.20505,-2.12208 -4.16851,-4.71574 -3.39353,-4.48276 -3.56881,-4.92954 -3.54736,-9.04266 0.0141,-2.67497 0.4201,-4.85251 1.06382,-5.7036 1.09496,-1.44767 1.43239,-4.65174 0.48989,-4.65174 -0.30327,0 -1.44868,-2.05962 -2.54532,-4.57693 -1.96342,-4.50686 -1.97712,-4.63432 -0.89496,-8.32587 0.60443,-2.06192 0.87217,-3.9645 0.59495,-4.22794 -0.27722,-0.26345 -2.33981,-0.70265 -4.58358,-0.976 -4.06397,-0.4951 -4.09048,-0.48615 -6.91499,2.33838 -2.38956,2.38957 -2.83539,3.29455 -2.83539,5.75573 0,2.35388 -0.251,2.92035 -1.29397,2.92035 -1.73173,0 -10.0977,-7.30738 -11.61972,-10.1494 -2.30628,-4.30653 -1.09,-9.75896 3.22324,-14.44952 2.24844,-2.44511 2.17121,-4.47942 -0.17001,-4.47942 -0.76684,0 -3.72903,-1.83924 -6.58261,-4.08722 -8.21801,-6.47387 -11.53466,-7.28909 -16.27895,-4.0013 -3.08258,2.13623 -4.47771,1.70922 -3.89729,-1.19284 0.67577,-3.37893 3.47803,-6.96384 6.66173,-8.52231 2.73584,-1.33924 3.50699,-1.40914 8.15612,-0.73932 2.82406,0.40686 5.8527,0.95287 6.73036,1.21336 2.98814,0.88684 1.63084,-0.97064 -5.56593,-7.61701 -8.62614,-7.96645 -9.85976,-10.0801 -9.85976,-16.89313 0,-3.94497 -0.37871,-5.76376 -1.77308,-8.51541 -3.5198,-6.94604 -1.82585,-11.15883 6.87609,-17.10046 2.22151,-1.51686 4.20498,-2.75792 4.4077,-2.75792 0.2027,0 0.69783,0.61518 1.10019,1.36707 0.58212,1.08763 0.36597,1.80163 -1.05725,3.49309 -0.98393,1.16929 -2.13947,3.13151 -2.56786,4.36047 -0.98645,2.82967 -0.13305,3.79672 3.47823,3.94149 1.46118,0.0586 3.13186,0.2328 3.71264,0.38716 0.85821,0.2281 1.06712,-0.65938 1.11556,-4.73934 0.0412,-3.47166 0.42646,-5.54376 1.24904,-6.71816 0.65418,-0.93399 1.18943,-2.36026 1.18943,-3.16949 0,-1.50774 -4.7673,-6.72379 -6.14531,-6.72379 -1.17892,0 -6.3442,-5.89744 -7.98887,-9.1212 -1.70013,-3.33256 -1.93794,-8.96285 -0.59124,-13.99805 l 0.87759,-3.28124 -2.82795,-2.41176 c -1.87057,-1.59525 -3.30819,-2.29054 -4.24644,-2.05369 -0.78015,0.19693 -2.16458,0.56468 -3.07654,0.81723 -1.4352,0.39745 -1.62585,0.23494 -1.41845,-1.20923 0.2879,-2.004461 7.92629,-7.688551 10.38135,-7.725223 1.90098,-0.02843 4.8862,1.420955 8.86854,4.305755 1.5587,1.129102 3.19726,2.052926 3.64127,2.052926 0.70842,0 3.47522,-2.978598 7.73868,-8.331171 2.28305,-2.866216 -0.34897,-7.981068 -4.10693,-7.981068 -0.95215,0 -1.93709,-0.333138 -2.18872,-0.740295 -0.79257,-1.282405 0.87505,-2.475106 5.32405,-3.807786 l 4.3064,-1.289967 2.6823,1.775065 c 1.85523,1.227732 2.93667,2.624054 3.50724,4.528402 1.37931,4.603722 2.21477,5.2696 6.99487,5.575099 2.36938,0.15142 4.70218,0.370229 5.18399,0.486235 0.48185,0.116 1.24532,-0.373413 1.69659,-1.087568 0.70298,-1.112436 0.38865,-1.674126 -2.19368,-3.920097 -1.65783,-1.441885 -3.01421,-3.171417 -3.01421,-3.843414 0,-2.780293 8.60191,-0.378842 12.05687,3.365976 1.61761,1.753333 1.75803,2.411045 1.60139,7.50135 -0.14193,4.611397 0.0891,6.021507 1.33125,8.126831 0.82662,1.40103 2.41957,5.96291 3.53988,10.13752 1.75184,6.52785 2.03619,8.88066 2.03142,16.81016 -0.004,5.07098 -0.47873,13.20937 -1.05705,18.08531 -1.111,9.36669 -1.36783,20.27964 -0.60777,25.82477 0.36846,2.68816 0.67503,3.23709 1.59577,2.85711 2.75497,-1.13696 3.26058,-0.73507 3.62199,2.87876 0.34245,3.42456 0.43972,3.55853 2.8369,3.9075 2.31444,0.33694 2.46964,0.52042 2.29499,2.7134 -0.117,1.4691 0.34894,3.10508 1.24114,4.3581 0.78565,1.10334 1.42846,2.49648 1.42846,3.09587 0,1.81239 1.25447,2.00207 2.40233,0.36323 0.90385,-1.29041 1.26038,-1.39432 2.17624,-0.63424 0.60239,0.49995 1.09527,1.93748 1.09527,3.19453 0,1.42192 0.5634,2.79541 1.49105,3.63493 0.82008,0.74217 1.92206,2.18287 2.44885,3.20155 0.52679,1.01868 1.93028,2.25497 3.11891,2.74732 1.18862,0.49234 2.16292,1.25539 2.1651,1.69566 0.021,4.25383 4.87899,11.48039 8.0179,11.92714 0.953,0.13564 1.63603,0.8053 1.76849,1.73378 0.11865,0.83204 1.1559,2.35048 2.30499,3.37432 1.18027,1.05164 2.0892,2.57909 2.0892,3.5109 0,2.16983 0.61371,2.69607 2.1717,1.86225 1.81191,-0.96971 3.24985,0.71045 4.60887,5.38529 0.92302,3.17505 1.45675,3.93843 3.02138,4.32108 2.22387,0.5439 2.93835,1.41851 2.95331,3.61521 0.007,1.10303 0.4359,1.59575 1.38746,1.59575 0.75714,0 1.57821,-0.32623 1.82465,-0.72496 0.24643,-0.39872 2.1004,-1.92973 4.11992,-3.40224 11.88142,-8.66315 19.19488,-9.89292 32.39558,-5.44737 8.23595,2.77358 10.37089,2.97067 15.02006,1.38654 5.38257,-1.83403 9.84428,-7.44833 10.06471,-12.66475 l 0.0928,-2.19712 -6.02844,-0.55538 c -7.39192,-0.68099 -14.13871,-0.13635 -17.36412,1.40174 -1.99249,0.95015 -2.62235,0.99408 -3.52402,0.24575 -2.04936,-1.70081 -0.98606,-9.88811 2.03006,-15.63128 0.92185,-1.75534 1.90701,-3.98941 2.18921,-4.96459 0.61877,-2.13815 4.50998,-6.38306 5.85116,-6.38306 0.52851,0 1.4253,1.11145 1.99292,2.46987 1.49073,3.56787 3.76293,3.91891 7.24644,1.11951 2.94948,-2.37029 5.12451,-2.35201 5.12451,0.0431 0,1.45416 3.79398,4.16199 5.83761,4.16641 2.28029,0.005 2.60911,-7.84054 0.39325,-9.3822 -0.51709,-0.35978 -4.59496,-0.40543 -9.42238,-0.10549 -4.68091,0.29083 -9.78735,0.59192 -11.34766,0.66906 -1.56031,0.0771 -4.11353,0.46857 -5.67381,0.86984 -1.56031,0.40126 -4.3651,0.93968 -6.23289,1.1965 -1.86776,0.25681 -4.58057,0.96814 -6.02844,1.58073 -1.79176,0.75808 -5.82528,1.22595 -12.62997,1.46501 -8.95924,0.31477 -10.48192,0.19005 -14.66156,-1.20085 -5.35066,-1.7806 -10.47178,-5.86035 -12.60504,-10.04186 -2.09808,-4.11256 -1.92263,-10.81036 0.36158,-13.80514 6.46403,-8.47476 19.06454,-11.0248 27.35781,-5.53657 1.54388,1.0217 2.80706,2.32241 2.80706,2.89048 0,0.56807 -1.43618,2.42867 -3.19153,4.13466 -1.75536,1.706 -3.19153,3.69231 -3.19153,4.41404 0,1.85589 3.34192,4.69269 7.09229,6.02029 7.48231,2.64869 21.29522,4.34118 22.29023,2.73121 0.21333,-0.34518 -0.8772,-4.48013 -2.42337,-9.18878 -2.6988,-8.21874 -2.9563,-9.98089 -2.81482,-19.26196 0.0151,-0.97518 -0.17184,-2.89657 -0.41495,-4.26974 -0.33918,-1.9158 -0.13961,-2.75856 0.85772,-3.62228 2.1954,-1.9013 17.09487,-4.97508 28.95962,-5.97441 5.12066,-0.43129 6.03135,-0.74479 9.34133,-3.21566 2.0171,-1.50577 5.04908,-4.34204 6.73766,-6.30282 l 3.07015,-3.56505 9.57457,0.0135 c 5.26602,0.007 13.08524,0.48335 17.37608,1.0576 10.48393,1.4031 13.52943,1.3279 17.14721,-0.42344 3.03771,-1.47053 4.70565,-3.28634 6.8149,-7.41918 1.05209,-2.06147 1.00421,-2.36629 -1.04171,-6.62902 -1.57761,-3.287 -1.93541,-4.67732 -1.35343,-5.25927 1.03306,-1.03307 8.26413,6.49453 10.08927,10.503 1.46486,3.21724 1.70923,8.96383 0.52552,12.35938 -1.21536,3.48641 0.0401,4.1195 3.55561,1.79302 5.50555,-3.6434 7.02037,-8.2616 4.34639,-13.25067 -1.5165,-2.82949 -1.23787,-5.00592 0.59566,-4.65281 0.62634,0.12062 2.29818,2.131 3.71519,4.46749 2.18416,3.60141 2.64243,5.09451 3.00994,9.80705 0.37036,4.74867 0.22214,5.97326 -1.01699,8.40215 -0.7978,1.56381 -1.25609,3.03773 -1.01847,3.27538 0.63772,0.63772 4.95223,-1.8595 7.11757,-4.11965 1.16584,-1.21688 2.03286,-3.08264 2.27645,-4.89878 0.51293,-3.82419 1.47603,-4.31076 3.50742,-1.77201 1.40493,1.7558 1.64933,2.86075 1.63315,7.38398 -0.0127,3.55366 -0.36467,5.77617 -1.06031,6.69591 -1.55701,2.05852 -1.28959,2.85217 1.39191,4.13089 1.33828,0.63817 5.55259,4.36295 9.36513,8.27726 4.61329,4.73643 7.94998,7.53551 9.97561,8.3683 1.67402,0.68826 3.0449,1.48338 3.04638,1.76694 0,0.28357 -0.80374,1.04392 -1.78927,1.68968 -1.4675,0.96154 -3.07249,1.11244 -8.86534,0.83349 -3.91895,-0.1887 -7.07344,-0.0589 -7.07344,0.29109 0,0.34744 1.40114,2.13401 3.11363,3.97016 1.71249,1.83614 3.57986,4.46047 4.14973,5.83182 1.37414,3.30693 5.73053,7.07905 8.187,7.08901 3.91979,0.0159 7.24493,0.88697 7.24493,1.89794 0,1.67301 -6.2999,3.9698 -11.87956,4.33099 -2.82806,0.18306 -5.14193,0.55931 -5.14193,0.83609 0,0.27678 0.46166,2.03713 1.02588,3.91189 0.5642,1.87476 1.24204,5.1968 1.50631,7.38231 0.61785,5.10992 5.94921,14.97 9.702,17.94328 1.46279,1.15896 2.65963,2.37801 2.65963,2.70902 0,1.33442 -2.78951,1.32943 -7.63614,-0.0136 -2.81163,-0.77914 -5.83417,-1.41321 -6.71675,-1.40905 -1.42898,0.006 -1.25514,0.34978 1.58679,3.13159 5.26967,5.15824 6.14937,6.26587 8.20912,10.33618 1.61911,3.19951 1.98304,4.86686 2.02433,9.27488 0.0451,4.81244 -0.1638,5.68375 -1.99863,8.33652 -2.38588,3.44944 -5.99811,5.88407 -9.59409,6.4663 l -2.54149,0.41151 -0.55351,9.91877 c -0.30442,5.45531 -0.40946,11.57308 -0.23341,13.59502 0.34586,3.97255 2.708,8.026 4.67711,8.026 0.6276,0 2.3877,-1.27662 3.91129,-2.83692 2.82571,-2.89377 5.31921,-3.71069 5.31921,-1.74268 0,0.60182 -1.45022,2.64462 -3.22271,4.53956 -2.66931,2.8537 -3.14326,3.76191 -2.76002,5.28883 0.25448,1.01392 0.25827,1.84348 0.008,1.84348 -0.95552,0 -5.72572,-2.22629 -6.76582,-3.15766 -0.59938,-0.53673 -3.16429,-1.66619 -5.69978,-2.50991 -5.08808,-1.69314 -7.88742,-3.99607 -11.84857,-9.74751 -1.41444,-2.05377 -2.83785,-3.73409 -3.16306,-3.73409 -0.97483,0 -0.66784,3.17389 0.44994,4.65172 1.28102,1.69366 1.49014,16.30816 0.32367,22.61823 -1.13354,6.13178 -0.30324,10.46716 2.69093,14.05096 2.82448,3.38068 6.24838,5.90845 8.90685,6.57568 3.78712,0.95052 8.11573,-4.51757 7.36558,-9.30454 -0.39072,-2.49325 0.52741,-4.57926 1.53142,-3.47935 1.30892,1.43399 2.25623,5.64832 1.82107,8.10162 -0.69213,3.90208 -2.94011,7.01636 -7.47381,10.35388 -6.96617,5.12822 -12.69716,5.52075 -20.48506,1.4031 -4.48733,-2.37258 -5.2965,-1.6834 -5.2965,4.51108 0,4.43992 0.30478,5.50492 3.10289,10.84159 7.04859,13.44339 6.71215,20.58717 -1.4167,30.07973 -3.42361,3.99798 -4.13192,5.24792 -3.79102,6.6897 0.23061,0.97518 0.67026,3.20925 0.97704,4.96459 2.09072,11.96331 4.84299,24.73885 6.49362,30.14218 0.71498,2.34046 2.43646,8.56393 3.82553,13.82994 4.62108,17.51894 12.22324,36.90654 23.08219,58.86591 7.77232,15.71744 8.91407,18.69782 10.29756,26.88098 1.8264,10.80271 5.49396,16.33766 14.08113,21.25087 9.06015,5.18383 13.65507,6.44645 23.52252,6.46373 10.34347,0.0181 18.73006,-1.90803 28.83288,-6.62207 5.08321,-2.37182 7.43917,-3.97548 10.2699,-6.99045 3.85811,-4.10923 4.1315,-4.86872 4.73524,-13.15339 0.45039,-6.18118 -1.90083,-10.84077 -7.28618,-14.43953 -6.21629,-4.15404 -9.78418,-4.96609 -18.14394,-4.12961 -21.91015,2.19237 -22.3921,2.20285 -26.77703,0.58268 -5.1907,-1.91792 -7.84625,-4.91613 -9.71601,-10.96976 -1.81071,-5.86246 -1.82763,-10.71198 -0.0731,-20.97482 1.77477,-10.38115 4.79123,-17.02132 8.67711,-19.101 2.87397,-1.53809 3.1064,0.40616 0.60875,5.09221 -1.68855,3.16809 -2.43116,5.62929 -2.69673,8.93802 l -0.36653,4.56605 4.22317,4.10691 c 4.49796,4.37414 5.8474,4.90133 13.10051,5.11811 4.04072,0.12077 13.24002,-1.71346 15.85678,-3.16165 0.78014,-0.43175 2.77006,-1.45094 4.42204,-2.26486 2.88345,-1.42066 7.98943,-6.54115 7.98943,-8.01211 0,-0.38907 -0.55852,-0.59692 -1.24113,-0.4619 -0.68262,0.13502 -2.14639,0.4373 -3.2528,0.67171 -1.1064,0.23442 -3.56386,1.87813 -5.461,3.65268 -4.7398,4.43354 -6.45559,3.1785 -3.52039,-2.575 0.78017,-1.52923 1.41845,-3.6742 1.41845,-4.76661 0,-2.9054 5.84181,-11.23584 9.49484,-13.53968 1.66282,-1.04869 4.99403,-2.84306 7.40266,-3.98749 3.15165,-1.49745 4.37935,-2.46742 4.37935,-3.45998 0,-1.67064 -4.44275,-12.09749 -8.66914,-20.34604 l -3.08889,-6.02844 -4.93671,-0.391 c -2.7152,-0.21504 -6.79464,-0.96241 -9.06544,-1.66081 -5.1374,-1.58005 -7.22714,-0.89362 -10.89087,3.57748 -3.34754,4.08524 -3.85863,6.70766 -2.24148,11.50095 0.70638,2.09366 1.11022,4.08837 0.89742,4.43268 -0.97771,1.58195 -2.5898,0.27071 -4.62579,-3.76254 -1.83195,-3.62906 -2.15814,-4.98368 -1.88489,-7.82742 0.36004,-3.74715 3.29871,-8.67153 7.15963,-11.99755 l 2.17401,-1.87285 -2.44958,-1.53509 c -3.42509,-2.14637 -9.17301,-1.74213 -13.0355,0.91675 -4.21994,2.90497 -5.63966,5.65574 -6.06692,11.75514 -0.22147,3.16169 -0.70747,5.37503 -1.21716,5.54292 -1.1282,0.37167 -3.64277,-4.6675 -4.44812,-8.91398 -1.12736,-5.94459 0,-10.79752 3.57478,-15.40412 1.72713,-2.22494 3.45942,-4.50841 3.84951,-5.07436 0.5429,-0.78772 -0.019,-1.68118 -2.39623,-3.81025 -2.84685,-2.54965 -3.44335,-2.78122 -7.16374,-2.78122 -7.18715,0 -11.12968,2.16391 -13.56793,7.44689 -1.4021,3.03796 -1.80988,9.90999 -0.63126,10.63842 1.07162,0.66229 0.84979,3.69505 -0.3026,4.13728 -2.79865,1.07392 -7.51353,-11.21614 -7.48155,-19.50177 0.0228,-5.87326 0.92365,-9.58192 3.88511,-15.99161 2.90192,-6.28081 5.07372,-9.00059 9.6539,-12.08973 5.39964,-3.64186 17.90035,-5.64487 23.03821,-3.69147 1.21657,0.46255 2.18382,0.48648 2.60585,0.0645 0.42199,-0.42201 -1.30482,-5.63104 -4.65219,-14.0336 -5.89665,-14.80164 -12.16464,-36.38778 -14.79489,-50.95155 -1.46244,-8.09748 -1.66531,-11.42176 -1.66657,-27.30528 0,-17.27008 0.0863,-18.45295 1.94527,-26.24142 3.6921,-15.46853 12.43299,-30.53573 24.05997,-41.47356 8.17497,-7.69044 10.98172,-9.86812 17.678,-13.71584 7.95019,-4.56825 14.39125,-6.87561 23.16831,-8.29953 6.7055,-1.08784 7.90476,-1.09253 15.2484,-0.0598 11.6681,1.64094 20.39311,4.75659 26.62915,9.50914 l 2.34639,1.7882 2.61823,-1.56981 c 4.95057,-2.96827 9.01559,-4.48478 15.7389,-5.87168 7.54961,-1.55734 11.50955,-3.55349 15.42369,-7.77483 3.64983,-3.93631 3.83947,-4.39806 3.12031,-7.59882 -0.76891,-3.42205 -0.008,-5.06987 1.82613,-3.95478 2.10605,1.28038 5.23997,7.86022 5.6539,11.87059 0.32472,3.14649 0.0749,4.35967 -1.56695,7.60978 -3.41624,6.76241 -5.93945,9.0576 -12.4002,11.27961 -1.75532,0.60371 -3.19154,1.41681 -3.19154,1.80688 0,0.39008 2.87239,2.12559 6.38307,3.8567 5.7305,2.82571 6.99934,3.17602 12.41147,3.42661 5.41214,0.25059 6.27938,0.10912 8.48298,-1.38394 2.68287,-1.81778 6.34983,-6.66058 6.38725,-8.43535 0.0284,-1.34362 -2.58847,-3.86346 -4.66359,-4.49079 -0.93723,-0.28333 -1.83023,-0.049 -2.39184,0.6277 -0.84179,1.01432 -3.5594,1.54116 -3.5594,0.69002 0,-0.2144 0.46693,-1.29276 1.0376,-2.39634 1.15744,-2.23828 2.36663,-2.88764 5.3771,-2.88764 2.51772,0 7.41627,4.79247 8.02875,7.85492 0.5092,2.5459 -1.97623,10.88388 -3.7828,12.69046 -2.12607,2.12604 -12.29992,3.82672 -15.16501,2.53502 -1.24009,-0.55907 -1.25294,-0.47603 -0.23176,1.49867 2.17749,4.21083 10.99421,10.88232 14.38156,10.88232 0.65517,0 1.60662,-0.55852 2.11437,-1.24115 0.76887,-1.03367 1.13762,-1.09219 2.2059,-0.3501 3.36973,2.34087 5.4029,1.95929 9.56751,-1.79558 4.22348,-3.80792 5.51078,-7.11809 5.52953,-14.21856 0.0137,-5.20875 0.15983,-5.87535 1.24208,-5.66693 0.67454,0.12991 1.45015,1.03097 1.72351,2.00238 0.27337,0.9714 0.88468,3.1078 1.35846,4.74755 2.11059,7.30439 -1.34529,16.37531 -9.17472,24.08153 -2.78464,2.74079 -5.06294,5.28629 -5.06294,5.65667 0,0.37038 1.46345,2.09627 3.25212,3.8353 1.78863,1.73904 4.22211,5.06682 5.40771,7.39508 2.04399,4.01398 2.13811,4.56792 1.81753,10.69665 -0.29162,5.57545 -0.65731,7.06241 -2.6617,10.82305 -2.05367,3.85307 -5.94903,7.92741 -7.59103,7.93979 -0.31858,0.002 -1.44289,0.45493 -2.49842,1.0056 -1.92225,1.00282 -4.81847,0.78099 -4.81847,-0.36904 0,-0.33665 1.19679,-1.22766 2.65958,-1.98001 5.14159,-2.64448 8.68803,-8.13508 8.68803,-13.45075 0,-2.22739 -0.60335,-3.13701 -4.64713,-7.00568 -4.56375,-4.36613 -6.15415,-5.1945 -7.08408,-3.68984 -1.31324,2.12492 -6.36818,4.91775 -8.90094,4.91775 -1.47876,0 -2.90023,0.34235 -3.15885,0.76078 -0.25858,0.41843 0.4208,2.73228 1.50976,5.1419 2.76617,6.12084 3.23338,14.89874 1.09693,20.60891 -2.01307,5.38041 -4.5019,8.95183 -7.7072,11.05964 -1.46802,0.96537 -4.26487,3.16767 -6.21527,4.89399 -5.26578,4.66085 -10.37285,6.72911 -15.24837,6.17529 -5.70653,-0.6482 -10.14615,-2.30388 -12.35222,-4.6065 -2.4822,-2.59087 -4.05178,-2.20395 -7.06435,1.74149 -1.67728,2.19669 -2.5813,4.42969 -3.26912,8.07476 -0.90581,4.80074 -0.87513,5.19963 0.65046,8.45684 1.29829,2.77191 2.29271,3.76925 5.25782,5.27328 2.01116,1.02016 4.24174,2.03012 4.95682,2.24438 2.22516,0.6667 0.85961,2.15131 -2.18658,2.37725 -5.29562,0.39279 -16.08146,-6.21297 -20.77697,-12.72478 -5.21109,-7.22691 -5.544,-18.70052 -0.81475,-28.08127 1.45625,-2.8886 0.4736,-4.34543 -2.02805,-3.00661 -1.02696,0.54963 -3.4643,0.74181 -6.741,0.53152 -4.04473,-0.25958 -5.80072,-0.75218 -8.28594,-2.32446 -5.92723,-3.74984 -9.73742,-12.60095 -7.9827,-18.54386 0.47374,-1.60442 1.30527,-3.54422 1.8479,-4.31066 1.57866,-2.22986 9.26982,-8.70649 10.33915,-8.70649 1.81272,0 1.79042,2.08139 -0.0621,5.79898 -2.68609,5.39026 -2.41648,7.68612 1.11719,9.51344 2.98115,1.5416 7.9101,0.66593 10.86752,-1.93072 3.4246,-3.00685 6.02616,-8.99934 6.04877,-13.93301 0.0217,-4.71705 -4.67852,-20.65311 -6.27169,-21.26446 -0.5905,-0.22661 -2.09847,0.91903 -3.74483,2.8451 -3.80871,4.45585 -11.56881,9.91396 -16.26094,11.43727 -3.70459,1.2027 -4.16858,1.20748 -8.51075,0.0878 -5.73903,-1.47994 -8.58643,-3.61702 -12.17578,-9.13836 -2.64435,-4.06772 -2.80362,-4.60993 -2.55423,-8.69584 0.20115,-3.29638 0.78378,-5.19525 2.3924,-7.79711 3.60072,-5.82405 6.22924,-4.55273 3.13509,1.51631 -0.78017,1.53023 -1.41849,4.16543 -1.41849,5.85603 0,3.69635 1.76733,5.76523 6.14758,7.19659 2.64313,0.8637 3.30777,0.82459 6.27867,-0.3695 4.89813,-1.9687 9.26115,-7.36746 11.40182,-14.10842 0.93727,-2.95151 1.70413,-5.88625 1.70413,-6.52163 0,-0.63537 1.10483,-3.16516 2.45511,-5.62175 1.35031,-2.45658 2.20336,-4.62211 1.89566,-4.81229 -0.30773,-0.19017 -3.37386,-0.89875 -6.81366,-1.57461 -5.97287,-1.17357 -6.54459,-1.17118 -12.71134,0.0533 -12.11638,2.40582 -18.23641,5.35279 -27.23648,13.11513 -10.42741,8.99342 -17.19621,24.31234 -20.07806,45.44008 -1.18401,8.68038 -1.40981,12.93266 -1.07322,20.21299 0.90504,19.57602 3.78063,36.08362 9.0806,52.12825 2.77607,8.40392 5.96669,15.60301 6.91526,15.60301 0.39637,0 1.17556,-0.87767 1.73149,-1.95038 1.39001,-2.68204 9.12772,-9.95363 14.27404,-13.41418 2.34044,-1.57379 6.44576,-3.58592 9.12294,-4.47141 4.28056,-1.41579 5.86299,-1.568 13.12073,-1.26202 7.4299,0.31325 8.69137,0.56685 12.64686,2.54253 5.09001,2.54233 11.14172,8.37563 13.83109,13.33191 3.89213,7.17287 3.87612,16.52432 -0.0414,24.18684 -2.34566,4.58799 -9.32431,9.73079 -15.20847,11.20762 -3.01946,0.75783 -2.40986,-1.28172 1.5827,-5.29535 3.59377,-3.61271 6.43538,-8.85544 6.43538,-11.87323 0,-2.56566 -2.42656,-6.82124 -5.35621,-9.39352 -4.73521,-4.15754 -7.82343,-4.55649 -13.79297,-1.78184 -4.7318,2.19936 -6.77354,4.01971 -8.68027,7.73913 -3.31629,6.46898 -0.86056,15.31787 5.79812,20.89284 1.88851,1.58114 4.11746,2.87479 4.95325,2.87479 2.47008,0 2.38805,1.5605 -0.37541,7.13937 -2.27285,4.58842 -2.65479,6.09989 -2.94528,11.65517 -0.40224,7.69188 0.91697,12.22608 7.59584,26.10745 2.3607,4.90648 4.29218,9.13226 4.29218,9.39062 0,0.45178 3.37612,8.04429 5.16805,11.62243 0.47648,0.95147 2.62052,2.70681 4.76449,3.90075 11.18273,6.22756 12.38445,7.31146 15.69412,14.15538 1.50835,3.11912 2.74247,6.06503 2.74247,6.54646 0,0.48144 1.88913,2.51847 4.19809,4.52675 8.09107,7.03739 10.51525,12.92534 10.982,26.67366 0.3433,10.11131 0.66346,10.28035 7.0877,3.7419 2.99558,-3.04882 4.39992,-4.0394 4.94865,-3.49066 0.54875,0.54875 0.51863,1.11285 -0.10609,1.9878 -0.47978,0.6719 -1.16373,1.88957 -1.51991,2.70593 -0.68637,1.57319 -8.65419,8.53414 -11.05038,9.654 -1.47968,0.69154 -7.44777,8.97516 -7.44777,10.33741 0,1.40975 1.29467,1.62526 4.7509,0.79084 4.85488,-1.1721 10.29538,-4.42463 13.23883,-7.9147 5.73549,-6.80055 6.83325,-7.58088 6.83325,-4.85742 0,4.58801 -10.37942,13.73984 -16.44096,14.49645 -8.22086,1.02614 -20.4576,3.3011 -23.61516,4.39033 -2.65366,0.91541 -4.76811,1.11272 -8.51076,0.79416 l -4.97985,-0.42388 -3.85341,5.75012 c -7.3944,11.03402 -18.40607,21.09867 -28.83366,26.35396 -5.76157,2.90371 -11.96181,4.73795 -20.05782,5.9338 -8.39301,1.23971 -13.08489,0.83668 -26.23315,-2.25342 -7.34091,-1.72527 -24.07767,-9.46654 -26.62952,-12.317 -2.15843,-2.41101 -3.4404,-1.83737 -5.74121,2.56906 -1.17022,2.24116 -3.98042,6.5745 -6.24486,9.62964 -4.92294,6.64189 -5.67728,8.4239 -5.07499,11.9888 0.34825,2.06116 1.07622,3.13056 3.03929,4.46448 3.45047,2.34466 6.22285,2.27937 8.33448,-0.19627 0.91497,-1.07271 2.61076,-3.0674 3.76845,-4.43267 1.85498,-2.18764 2.1644,-2.32865 2.6063,-1.18813 0.27582,0.71182 -0.0758,3.20066 -0.78126,5.53076 -1.23391,4.07526 -3.24296,6.57189 -7.13372,8.86481 -1.30485,0.76898 -1.28453,0.92755 0.59977,4.68083 2.51495,5.00941 2.43639,7.72847 -0.37454,12.96315 -2.83192,5.27375 -4.32879,5.56263 -4.62862,0.89318 -0.1843,-2.87001 -0.56944,-3.63183 -2.63129,-5.20446 -1.94711,-1.48515 -2.86773,-1.74795 -4.74869,-1.35551 -3.29552,0.68756 -5.01541,1.93569 -6.46599,4.69241 -1.22944,2.33652 -1.21983,2.49256 0.40862,6.63042 1.33701,3.39729 2.55308,4.98962 6.13243,8.02974 4.21743,3.58215 4.62778,3.76817 7.41118,3.36011 6.18318,-0.90651 9.45208,-2.09594 13.02261,-4.73829 2.03115,-1.50317 3.99172,-2.73304 4.35678,-2.73304 1.4458,0 1.46844,2.45472 0.0514,5.57805 -5.18883,11.43724 -7.75504,14.84063 -12.47764,16.54835 -1.46936,0.53131 -2.32862,1.27852 -2.20551,1.91779 0.20302,1.05416 7.06102,3.41269 14.73803,5.06849 6.91915,1.49238 10.99302,6.86334 10.99302,14.4932 0,5.66801 -1.30331,5.9266 -5.92994,1.17664 -4.33673,-4.4524 -7.75704,-5.40437 -10.42197,-2.90082 -2.19262,2.05985 -2.1811,3.3357 0.0574,6.36986 2.63263,3.56832 4.23791,4.17813 11.07243,4.20618 5.75104,0.0235 6.32469,0.16608 9.3817,2.33009 6.90536,4.8883 14.60754,11.57685 14.62091,12.69673 0.0144,1.20014 -3.26185,2.729 -5.84796,2.729 -1.96041,0 -8.44651,4.88998 -7.84404,5.91382 3.44647,5.85702 6.85077,7.5011 12.78313,6.17349 2.82718,-0.6327 4.4114,-1.49357 6.03792,-3.28101 2.35021,-2.58268 3.90413,-3.06249 4.54121,-1.4022 0.21551,0.56157 -0.63515,4.36576 -1.89033,8.45366 -2.01973,6.57798 -2.6586,7.7991 -5.55596,10.61972 -1.8006,1.7529 -5.02917,4.12238 -7.17458,5.26554 l -3.90076,2.07849 -0.4028,4.54339 c -0.60366,6.80861 -1.54072,8.45304 -7.33778,12.87679 -3.38005,2.57938 -5.61097,3.29822 -6.379,2.05551 -0.20536,-0.33227 0.13403,-2.38781 0.7542,-4.56783 1.48585,-5.22317 0.83563,-8.56351 -2.27186,-11.67097 -3.28122,-3.28126 -6.07534,-3.05793 -6.96894,0.55698 -0.5273,2.13312 -0.22172,3.43597 2.04157,8.70438 2.9055,6.76333 3.03216,9.3175 0.7053,14.22103 -1.23093,2.59394 -8.21169,10.92973 -10.08044,12.03708 -1.6889,1.00081 -2.9294,-0.0313 -3.76437,-3.13231 -1.05308,-3.91084 -3.95047,-8.21095 -5.87085,-8.71313 -2.27849,-0.59584 -2.68799,0.30987 -1.56547,3.46223 1.29003,3.62262 1.34431,10.37036 0.10724,13.33105 -0.529,1.26606 -2.92558,4.52714 -5.32574,7.24679 -2.40013,2.71965 -4.56814,5.74268 -4.81781,6.71786 -0.24963,0.97522 -0.885,2.40262 -1.41192,3.17209 -0.52689,0.76939 -0.95802,1.90146 -0.95802,2.51564 0,1.26539 -4.45429,5.75698 -7.01383,7.0724 -3.05329,1.56922 -5.80205,2.07964 -7.57324,1.40618 -2.39289,-0.90968 -2.17088,-1.59771 1.1108,-3.4421 3.58955,-2.01752 4.2563,-3.30217 4.2563,-8.20141 0,-3.26726 -0.3693,-4.46336 -2.12767,-6.8907 -1.17023,-1.61546 -2.12769,-3.73166 -2.12769,-4.7027 0,-0.97103 0.95746,-3.3216 2.12769,-5.22344 3.44695,-5.60202 2.59597,-7.54586 -1.34063,-3.06231 -2.81918,3.21087 -5.04241,7.57797 -5.04241,9.90479 0,4.21756 -6.53041,13.83463 -9.39431,13.83463 -2.89738,0 -5.31798,2.18958 -8.89915,8.05004 -2.94576,4.82057 -4.67644,6.77 -8.601,9.68833 -2.70224,2.00941 -5.10145,4.14413 -5.3316,4.74395 -0.26287,0.68504 0.5013,1.95789 2.05543,3.42356 2.1762,2.05241 2.81591,2.28737 5.3163,1.95199 2.27964,-0.30581 2.93713,-0.13453 3.32068,0.86492 1.5158,3.95018 -11.06642,5.51186 -17.47908,2.16946 l 0,0 z M 178.36484,667.41001 c 1.45187,-3.04462 1.52341,-4.58594 0.21291,-4.58594 -1.35003,0 -3.27308,3.11055 -3.27308,5.29426 0,2.60222 1.66527,2.21676 3.06017,-0.70832 l 0,0 z m 137.27467,-86.474 c 2.03255,-3.8314 1.66883,-6.05319 -1.4586,-8.90966 -2.63772,-2.40918 -4.82361,-3.05814 -7.22517,-2.14507 -1.59125,0.60498 -1.7152,0.9112 -1.15685,2.85804 0.34396,1.19924 1.53812,3.36828 2.65376,4.82008 1.1156,1.4518 2.57884,3.5173 3.25163,4.59001 0.67279,1.0727 1.45584,1.95039 1.74005,1.95039 0.28425,0 1.27206,-1.42371 2.19518,-3.16379 z M 606.06875,302.1744 c 1.47224,-0.61515 3.34189,-2.2471 4.39157,-3.83329 1.70256,-2.57271 1.79295,-3.11925 1.3184,-7.97147 -0.2802,-2.86515 -1.00396,-6.00725 -1.60833,-6.98244 -1.74293,-2.81236 -8.67075,-10.63842 -9.4174,-10.63842 -0.37271,0 -0.64064,1.3564 -0.59535,3.01422 0.21565,7.89694 -2.37935,16.57068 -6.35548,21.243 l -2.42919,2.85455 1.71997,1.30243 c 1.5785,1.19529 3.52306,1.64191 8.54835,1.96338 1.02506,0.0655 3.01744,-0.36282 4.42746,-0.95196 l 0,0 z M 316.441,185.65561 c 0,-1.49345 -1.30847,-2.97876 -2.62413,-2.97876 -0.94703,0 -1.2957,2.93604 -0.44918,3.78255 0.99208,0.99208 3.07331,0.44775 3.07331,-0.80379 z m 17.00239,-3.28671 c -0.0267,-4.04325 -3.18658,-7.91079 -5.90564,-7.22835 -3.1921,0.80117 -7.49614,8.0636 -5.78997,9.76974 0.18817,0.1882 2.90097,0.34218 6.02841,0.34218 l 5.68626,0 -0.019,-2.88357 0,0 z m 28.97755,-33.40689 c 1.49421,-1.31498 -8.52025,-7.35757 -10.76571,-6.4959 -1.3962,0.53577 -2.79369,5.4221 -1.86934,6.53592 0.45401,0.54702 2.61448,0.70949 6.53915,0.49176 3.22362,-0.17884 5.96679,-0.41815 6.0959,-0.53178 l 0,0 z"
       id="path3170"
       inkscape:connector-curvature="0" />
  </g>
</svg>
